SplineFontDB: 3.2
FontName: Rom-BoldItalic
FullName: Rom Bold Italic
FamilyName: Rom
Weight: Bold
Copyright: (c) designteam 2019
Version: 2.000
ItalicAngle: -11
UnderlinePosition: -100
UnderlineWidth: 50
Ascent: 750
Descent: 250
InvalidEm: 0
LayerCount: 2
Layer: 0 0 "Back" 1
Layer: 1 0 "Fore" 0
XUID: [1021 595 1893679584 5028665]
BaseHoriz: 2 'ideo' 'romn'
BaseScript: 'DFLT' 1  -163 0
BaseScript: 'cyrl' 1  -163 0
BaseScript: 'grek' 1  -163 0
BaseScript: 'latn' 1  -163 0
StyleMap: 0x0021
FSType: 8
OS2Version: 0
OS2_WeightWidthSlopeOnly: 1
OS2_UseTypoMetrics: 1
CreationTime: 1344823661
ModificationTime: 1601215093
PfmFamily: 33
TTFWeight: 700
TTFWidth: 5
LineGap: 200
VLineGap: 0
Panose: 2 11 6 3 3 4 3 9 2 4
OS2TypoAscent: 750
OS2TypoAOffset: 0
OS2TypoDescent: -250
OS2TypoDOffset: 0
OS2TypoLinegap: 200
OS2WinAscent: 935
OS2WinAOffset: 0
OS2WinDescent: 250
OS2WinDOffset: 0
HheadAscent: 750
HheadAOffset: 0
HheadDescent: -250
HheadDOffset: 0
OS2SubXSize: 650
OS2SubYSize: 600
OS2SubXOff: -15
OS2SubYOff: 75
OS2SupXSize: 650
OS2SupYSize: 600
OS2SupXOff: 68
OS2SupYOff: 350
OS2StrikeYSize: 50
OS2StrikeYPos: 290
OS2CapHeight: 674
OS2XHeight: 484
OS2FamilyClass: 2048
OS2Vendor: 'DtEu'
OS2CodePages: 2000019f.00000000
OS2UnicodeRanges: 20000287.00000001.00000000.00000000
Lookup: 1 0 0 "'aalt' Access All Alternates lookup 0" { "'aalt' Access All Alternates lookup 0 subtable"  } ['aalt' ('DFLT' <'dflt' > 'cyrl' <'SRB ' 'dflt' > 'grek' <'dflt' > 'latn' <'AZE ' 'CRT ' 'MOL ' 'ROM ' 'TRK ' 'dflt' > ) ]
Lookup: 3 0 0 "'aalt' Access All Alternates lookup 1" { "'aalt' Access All Alternates lookup 1 subtable"  } ['aalt' ('DFLT' <'dflt' > 'cyrl' <'SRB ' 'dflt' > 'grek' <'dflt' > 'latn' <'AZE ' 'CRT ' 'MOL ' 'ROM ' 'TRK ' 'dflt' > ) ]
Lookup: 1 0 0 "'locl' Localized Forms in Latin lookup 2" { "'locl' Localized Forms in Latin lookup 2 subtable"  } ['locl' ('latn' <'AZE ' 'CRT ' 'TRK ' > ) ]

StartChar: .notdef
Encoding: 65536 -1 0
Width: 500
Flags: MW
HStem: 0 50<80 420 80 500> 650 50<80 420 80 80>
VStem: 0 50<95 605 95 700> 450 50<95 605 605 605>
LayerCount: 2
Fore
SplineSet
0 0 m 1
 0 700 l 1
 500 700 l 1
 500 0 l 1
 0 0 l 1
250 395 m 1
 420 650 l 1
 80 650 l 1
 250 395 l 1
280 350 m 1
 450 95 l 1
 450 605 l 1
 280 350 l 1
80 50 m 1
 420 50 l 1
 250 305 l 1
 80 50 l 1
50 605 m 1
 50 95 l 1
 220 350 l 1
 50 605 l 1
EndSplineSet
EndChar

StartChar: exclam
Encoding: 33 33 2
Width: 254
Flags: MW
HStem: -11 21G<66 111> -11 156<75.5 111> 654 20G<146 273 273 273>
VStem: 18 152<48.5 83>
LayerCount: 2
Fore
SplineSet
166 209 m 1xb0
 74 209 l 1
 146 674 l 1
 273 674 l 1
 166 209 l 1xb0
87 -11 m 0
 45 -11 18 20 18 60 c 0
 18 106 52 145 99 145 c 0x70
 141 145 170 115 170 72 c 0
 170 25 135 -11 87 -11 c 0
EndSplineSet
EndChar

StartChar: quotedbl
Encoding: 34 34 3
Width: 350
Flags: MW
HStem: 423 262<116 160 86 229 116 259 289 333>
VStem: 86 316<423 685>
LayerCount: 2
Fore
SplineSet
116 685 m 1
 229 685 l 1
 160 423 l 1
 86 423 l 1
 116 685 l 1
289 685 m 1
 402 685 l 1
 333 423 l 1
 259 423 l 1
 289 685 l 1
EndSplineSet
EndChar

StartChar: numbersign
Encoding: 35 35 4
Width: 519
Flags: MW
HStem: 0 21G<51 126 51 51 214 214 214 290> 187 75<40 109 27 134 40 184 209 273 372 444> 392 75<102 175 89 198 272 337 102 249 436 505> 630 20G<256 330 330 330 419 493 493 493>
VStem: 27 490<187 467>
LayerCount: 2
Fore
SplineSet
209 262 m 1
 297 262 l 1
 337 392 l 1
 249 392 l 1
 209 262 l 1
126 0 m 1
 51 0 l 1
 109 187 l 1
 27 187 l 1
 40 262 l 1
 134 262 l 1
 175 392 l 1
 89 392 l 1
 102 467 l 1
 198 467 l 1
 256 650 l 1
 330 650 l 1
 272 467 l 1
 361 467 l 1
 419 650 l 1
 493 650 l 1
 436 467 l 1
 517 467 l 1
 505 392 l 1
 412 392 l 1
 372 262 l 1
 457 262 l 1
 444 187 l 1
 347 187 l 1
 290 0 l 1
 214 0 l 1
 273 187 l 1
 184 187 l 1
 126 0 l 1
EndSplineSet
Substitution2: "'onum' Oldstyle Figures lookup 15 subtable" numbersign.taboldstyle
Substitution2: "'aalt' Access All Alternates lookup 0 subtable" numbersign.taboldstyle
EndChar

StartChar: dollar
Encoding: 36 36 5
Width: 519
Flags: MW
HStem: -87 189<179 232 153 243.5> 551 181<313 361>
VStem: 104 125<453.5 493.5 453.5 502.5> 326 126<164 210>
LayerCount: 2
Fore
SplineSet
232 -87 m 1
 153 -87 l 1
 171 11 l 1
 116 13 55 38 26 60 c 1
 64 149 l 1
 99 123 147 102 211 102 c 0
 276 102 326 137 326 191 c 0
 326 229 304 258 242 289 c 0
 162 330 104 380 104 455 c 0
 104 550 181 627 295 639 c 1
 313 732 l 1
 392 732 l 1
 375 639 l 1
 427 637 472 620 495 604 c 1
 457 517 l 1
 433 530 392 551 330 551 c 0
 267 551 229 515 229 472 c 0
 229 435 255 412 328 375 c 0
 406 335 452 282 452 210 c 0
 452 92 361 24 251 11 c 1
 232 -87 l 1
EndSplineSet
Substitution2: "'onum' Oldstyle Figures lookup 15 subtable" dollar.taboldstyle
Substitution2: "'subs' Subscript lookup 14 subtable" dollar.inferior
Substitution2: "'sups' Superscript lookup 13 subtable" dollar.superior
Substitution2: "'dnom' Denominators lookup 7 subtable" dollar.denominator
Substitution2: "'numr' Numerators lookup 6 subtable" dollar.numerator
AlternateSubs2: "'aalt' Access All Alternates lookup 1 subtable" dollar.numerator dollar.denominator dollar.superior dollar.inferior dollar.taboldstyle
EndChar

StartChar: percent
Encoding: 37 37 6
Width: 826
Flags: MW
HStem: -8 69<582 633.5 582 650> 261 69<191 242.5 191 258> 323 69<614.5 666.5> 591 69<223.5 275.5>
VStem: 65 91<387.5 445.5 387.5 474.5> 308 91<481 534.5> 456 91<118 176 118 205> 699 91<212.5 266>
LayerCount: 2
Fore
SplineSet
266 660 m 0xbf
 354 660 399 596 399 518 c 0
 399 375 315 261 201 261 c 0xdf
 120 261 65 319 65 411 c 0
 65 538 144 660 266 660 c 0xbf
255 591 m 0
 192 591 156 482 156 409 c 0
 156 366 171 330 211 330 c 0xdf
 274 330 308 446 308 516 c 0
 308 553 296 591 255 591 c 0
220 -11 m 1
 146 -11 l 1
 632 661 l 1
 705 661 l 1
 220 -11 l 1
657 392 m 0
 745 392 790 328 790 249 c 0
 790 106 707 -8 593 -8 c 0
 511 -8 456 49 456 142 c 0
 456 268 535 392 657 392 c 0
646 323 m 0
 583 323 547 213 547 139 c 0
 547 97 562 61 602 61 c 0
 665 61 699 177 699 248 c 0
 699 284 687 323 646 323 c 0
EndSplineSet
Substitution2: "'onum' Oldstyle Figures lookup 15 subtable" percent.oldstyle
Substitution2: "'aalt' Access All Alternates lookup 0 subtable" percent.oldstyle
EndChar

StartChar: ampersand
Encoding: 38 38 7
Width: 631
Flags: MW
HStem: -11 89<208 251> 0 21G<438 575 438 438> 0 119 607 78<307.5 351.5>
VStem: 16 118<153 214.5 153 215> 144 106<491 536.5 491 548.5> 390 106<513 558.5>
LayerCount: 2
Fore
SplineSet
575 0 m 1x5a
 438 0 l 1x5a
 423 17 411 34 397 53 c 1
 348 13 290 -11 212 -11 c 0
 91 -11 16 60 16 163 c 0x9a
 16 267 95 335 180 375 c 1
 181 378 l 1
 159 416 144 455 144 496 c 0
 144 601 225 685 340 685 c 0
 436 685 496 625 496 543 c 0
 496 464 438 404 326 352 c 1
 326 349 l 1
 357 298 399 237 430 194 c 1
 472 244 502 308 526 379 c 1
 634 379 l 1
 598 274 553 188 483 119 c 1x3e
 509 83 540 42 575 0 c 1x5a
244 78 m 0x9a
 288 78 323 96 350 122 c 1
 317 168 265 240 221 311 c 1
 185 287 134 247 134 182 c 0
 134 124 172 78 244 78 c 0x9a
330 607 m 0x9e
 285 607 250 565 250 508 c 0
 250 474 260 444 280 414 c 1
 345 445 390 485 390 541 c 0
 390 576 373 607 330 607 c 0x9e
EndSplineSet
EndChar

StartChar: quoteright
Encoding: 8217 8217 8
Width: 227
Flags: MW
HStem: 665 20G<285 285>
VStem: 61 224
LayerCount: 2
Fore
SplineSet
165 675 m 1
 285 685 l 1
 243 594 186 491 139 429 c 1
 61 422 l 1
 98 495 140 595 165 675 c 1
EndSplineSet
EndChar

StartChar: parenleft
Encoding: 40 40 9
Width: 301
Flags: MW
HStem: -117 808<123 359 123 359>
VStem: 64 96<110 268 110 272.5>
LayerCount: 2
Fore
SplineSet
269 691 m 1
 359 691 l 1
 256 567 160 379 160 157 c 0
 160 63 171 -20 207 -117 c 1
 123 -117 l 1
 85 -37 64 54 64 155 c 0
 64 390 163 576 269 691 c 1
EndSplineSet
Substitution2: "'subs' Subscript lookup 14 subtable" parenleft.inferior
Substitution2: "'sups' Superscript lookup 13 subtable" parenleft.superior
Substitution2: "'dnom' Denominators lookup 7 subtable" parenleft.denominator
Substitution2: "'numr' Numerators lookup 6 subtable" parenleft.numerator
Substitution2: "'case' Case-Sensitive Forms lookup 5 subtable" parenleft.cap
AlternateSubs2: "'aalt' Access All Alternates lookup 1 subtable" parenleft.cap parenleft.numerator parenleft.denominator parenleft.superior parenleft.inferior
EndChar

StartChar: parenright
Encoding: 41 41 10
Width: 301
Flags: MW
HStem: -117 808<-41 197 -41 197>
VStem: 159 96<307 465>
LayerCount: 2
Fore
SplineSet
50 -117 m 1
 -41 -117 l 1
 62 8 159 196 159 418 c 0
 159 512 148 594 111 691 c 1
 197 691 l 1
 234 612 255 521 255 420 c 0
 255 184 156 -1 50 -117 c 1
EndSplineSet
Substitution2: "'subs' Subscript lookup 14 subtable" parenright.inferior
Substitution2: "'sups' Superscript lookup 13 subtable" parenright.superior
Substitution2: "'dnom' Denominators lookup 7 subtable" parenright.denominator
Substitution2: "'numr' Numerators lookup 6 subtable" parenright.numerator
Substitution2: "'case' Case-Sensitive Forms lookup 5 subtable" parenright.cap
AlternateSubs2: "'aalt' Access All Alternates lookup 1 subtable" parenright.cap parenright.numerator parenright.denominator parenright.superior parenright.inferior
EndChar

StartChar: asterisk
Encoding: 42 42 11
Width: 435
Flags: MW
HStem: 308 377<178 225 225 300>
VStem: 69 389<454 541>
LayerCount: 2
Fore
SplineSet
343 685 m 1
 415 642 l 1
 298 516 l 1
 299 514 l 1
 458 541 l 1
 441 454 l 1
 292 477 l 1
 292 475 l 1
 381 353 l 1
 300 308 l 1
 256 456 l 1
 254 456 l 1
 178 308 l 1
 109 353 l 1
 225 476 l 1
 225 478 l 1
 69 454 l 1
 85 541 l 1
 229 514 l 1
 229 517 l 1
 143 642 l 1
 225 685 l 1
 268 538 l 1
 270 538 l 1
 343 685 l 1
EndSplineSet
EndChar

StartChar: plus
Encoding: 43 43 12
Width: 596
Flags: MW
HStem: 228 78<48 261 48 261 342 555>
VStem: 261 81<0 228 0 228 306 532>
LayerCount: 2
Fore
SplineSet
261 532 m 1
 342 532 l 1
 342 306 l 1
 555 306 l 1
 555 228 l 1
 342 228 l 1
 342 0 l 1
 261 0 l 1
 261 228 l 1
 48 228 l 1
 48 306 l 1
 261 306 l 1
 261 532 l 1
EndSplineSet
EndChar

StartChar: comma
Encoding: 44 44 13
Width: 238
Flags: MW
HStem: -121 274<-51 186>
VStem: -51 237
LayerCount: 2
Fore
SplineSet
35 -113 m 1
 -51 -121 l 1
 -13 -45 31 60 55 143 c 1
 186 153 l 1
 144 59 83 -49 35 -113 c 1
EndSplineSet
Substitution2: "'subs' Subscript lookup 14 subtable" comma.inferior
Substitution2: "'sups' Superscript lookup 13 subtable" comma.superior
Substitution2: "'dnom' Denominators lookup 7 subtable" comma.denominator
Substitution2: "'numr' Numerators lookup 6 subtable" comma.numerator
AlternateSubs2: "'aalt' Access All Alternates lookup 1 subtable" comma.numerator comma.denominator comma.superior comma.inferior
EndChar

StartChar: hyphen
Encoding: 45 45 14
Width: 315
Flags: MW
HStem: 224 85<46 280 29 296>
VStem: 29 267<224 309>
LayerCount: 2
Fore
SplineSet
46 309 m 1
 296 309 l 1
 280 224 l 1
 29 224 l 1
 46 309 l 1
EndSplineSet
Substitution2: "'subs' Subscript lookup 14 subtable" hyphen.inferior
Substitution2: "'sups' Superscript lookup 13 subtable" hyphen.superior
Substitution2: "'dnom' Denominators lookup 7 subtable" hyphen.denominator
Substitution2: "'numr' Numerators lookup 6 subtable" hyphen.numerator
Substitution2: "'case' Case-Sensitive Forms lookup 5 subtable" hyphen.cap
AlternateSubs2: "'aalt' Access All Alternates lookup 1 subtable" endash emdash hyphen.cap hyphen.superior hyphen.inferior hyphen.numerator hyphen.denominator
EndChar

StartChar: period
Encoding: 46 46 15
Width: 238
Flags: MW
HStem: -10 158<77 113>
VStem: 19 153<50 85.5>
LayerCount: 2
Fore
SplineSet
89 -10 m 0
 47 -10 19 21 19 62 c 0
 19 109 53 148 101 148 c 0
 143 148 172 118 172 74 c 0
 172 26 137 -10 89 -10 c 0
EndSplineSet
Substitution2: "'subs' Subscript lookup 14 subtable" period.inferior
Substitution2: "'sups' Superscript lookup 13 subtable" period.superior
Substitution2: "'dnom' Denominators lookup 7 subtable" period.denominator
Substitution2: "'numr' Numerators lookup 6 subtable" period.numerator
AlternateSubs2: "'aalt' Access All Alternates lookup 1 subtable" ellipsis period.superior period.inferior period.numerator period.denominator
EndChar

StartChar: slash
Encoding: 47 47 16
Width: 326
Flags: MW
HStem: 665 20G<326 413 413 413>
VStem: -46 459
LayerCount: 2
Fore
SplineSet
40 -40 m 1
 -46 -40 l 1
 326 685 l 1
 413 685 l 1
 40 -40 l 1
EndSplineSet
Substitution2: "'frac' Diagonal Fractions lookup 9 subtable" slash.frac
Substitution2: "'dnom' Denominators lookup 7 subtable" fraction
Substitution2: "'numr' Numerators lookup 6 subtable" fraction
Substitution2: "'aalt' Access All Alternates lookup 0 subtable" fraction
EndChar

StartChar: zero
Encoding: 48 48 17
Width: 519
Flags: MW
HStem: -11 93<200 287.5 200 315> 568 93<271.5 356>
VStem: 41 115<185 275.5 185 323> 396 116<390.5 467>
LayerCount: 2
Fore
SplineSet
337 661 m 0
 469 661 512 555 512 447 c 0
 512 239 412 -11 218 -11 c 0
 90 -11 41 90 41 218 c 0
 41 428 149 661 337 661 c 0
323 568 m 0
 220 568 156 337 156 214 c 0
 156 156 167 82 233 82 c 0
 342 82 396 338 396 443 c 0
 396 491 389 568 323 568 c 0
EndSplineSet
Substitution2: "'zero' Slashed Zero lookup 20 subtable" zero.slash
Substitution2: "'pnum' Proportional Numbers lookup 17 subtable" zero.fitted
Substitution2: "'onum' Oldstyle Figures lookup 15 subtable" zero.taboldstyle
Substitution2: "'subs' Subscript lookup 14 subtable" zero.inferior
Substitution2: "'sups' Superscript lookup 13 subtable" zero.superior
Substitution2: "'dnom' Denominators lookup 7 subtable" zero.denominator
Substitution2: "'numr' Numerators lookup 6 subtable" zero.numerator
AlternateSubs2: "'aalt' Access All Alternates lookup 1 subtable" zero.fitted zero.oldstyle zero.taboldstyle zero.numerator zero.denominator zero.superior zero.inferior zero.slash
EndChar

StartChar: one
Encoding: 49 49 18
Width: 519
Flags: MW
HStem: 0 21G<182 182 182 295> 630 20G<321 418 418 418>
VStem: 155 263<573 650>
LayerCount: 2
Fore
SplineSet
182 0 m 1
 284 538 l 1
 282 538 l 1
 162 482 l 1
 155 573 l 1
 321 650 l 1
 418 650 l 1
 295 0 l 1
 182 0 l 1
EndSplineSet
Substitution2: "'pnum' Proportional Numbers lookup 17 subtable" one.fitted
Substitution2: "'onum' Oldstyle Figures lookup 15 subtable" one.taboldstyle
Substitution2: "'subs' Subscript lookup 14 subtable" one.inferior
Substitution2: "'sups' Superscript lookup 13 subtable" one.superior
Substitution2: "'dnom' Denominators lookup 7 subtable" one.denominator
Substitution2: "'numr' Numerators lookup 6 subtable" one.numerator
AlternateSubs2: "'aalt' Access All Alternates lookup 1 subtable" one.fitted one.oldstyle one.taboldstyle one.numerator one.denominator one.superior one.inferior
EndChar

StartChar: two
Encoding: 50 50 19
Width: 519
Flags: MW
HStem: 0 99<187 419> 563 98<273 312.5>
VStem: 374 121<429 498>
LayerCount: 2
Fore
SplineSet
419 0 m 1
 -2 0 l 1
 12 76 l 1
 133 172 l 2
 283 296 374 383 374 475 c 0
 374 521 345 563 280 563 c 0
 222 563 176 542 144 520 c 1
 118 604 l 1
 167 637 239 661 307 661 c 0
 434 661 495 582 495 492 c 0
 495 357 379 252 247 146 c 1
 187 101 l 1
 187 99 l 1
 438 99 l 1
 419 0 l 1
EndSplineSet
Substitution2: "'pnum' Proportional Numbers lookup 17 subtable" two.fitted
Substitution2: "'onum' Oldstyle Figures lookup 15 subtable" two.taboldstyle
Substitution2: "'subs' Subscript lookup 14 subtable" two.inferior
Substitution2: "'sups' Superscript lookup 13 subtable" two.superior
Substitution2: "'dnom' Denominators lookup 7 subtable" two.denominator
Substitution2: "'numr' Numerators lookup 6 subtable" two.numerator
AlternateSubs2: "'aalt' Access All Alternates lookup 1 subtable" two.fitted two.oldstyle two.taboldstyle two.numerator two.denominator two.superior two.inferior
EndChar

StartChar: three
Encoding: 51 51 20
Width: 519
Flags: MW
HStem: -11 99<152 230 152 251> 302 90<180 191 162 207> 563 98<265 302.5>
VStem: 327 122<173.5 237> 359 123<472.5 515.5>
LayerCount: 2
Fore
SplineSet
11 32 m 1xe8
 48 123 l 1
 74 109 121 88 183 88 c 0
 277 88 327 144 327 203 c 0xf0
 327 271 272 302 191 302 c 2
 162 302 l 1
 180 392 l 1
 207 392 l 2
 272 392 359 425 359 495 c 0
 359 536 332 563 273 563 c 0
 221 563 174 548 144 529 c 1
 125 617 l 1
 170 643 234 661 296 661 c 0
 405 661 482 604 482 514 c 0xe8
 482 431 416 371 338 350 c 1
 337 348 l 1
 407 333 449 275 449 204 c 0xf0
 449 73 322 -11 180 -11 c 0
 103 -11 37 10 11 32 c 1xe8
EndSplineSet
Substitution2: "'pnum' Proportional Numbers lookup 17 subtable" three.fitted
Substitution2: "'onum' Oldstyle Figures lookup 15 subtable" three.taboldstyle
Substitution2: "'subs' Subscript lookup 14 subtable" three.inferior
Substitution2: "'sups' Superscript lookup 13 subtable" three.superior
Substitution2: "'dnom' Denominators lookup 7 subtable" three.denominator
Substitution2: "'numr' Numerators lookup 6 subtable" three.numerator
AlternateSubs2: "'aalt' Access All Alternates lookup 1 subtable" three.fitted three.oldstyle three.taboldstyle three.numerator three.denominator three.superior three.inferior
EndChar

StartChar: four
Encoding: 52 52 21
Width: 519
Flags: MW
HStem: 0 21G<257 367 257 257> 167 91<145 289 416 480> 549 101<366 370 366 366>
VStem: 11 486<167 258>
LayerCount: 2
Fore
SplineSet
367 0 m 1
 257 0 l 1
 289 167 l 1
 11 167 l 1
 26 245 l 1
 352 650 l 1
 490 650 l 1
 416 258 l 1
 497 258 l 1
 480 167 l 1
 399 167 l 1
 367 0 l 1
145 258 m 1
 306 258 l 1
 342 433 l 2
 350 471 361 512 370 549 c 1
 366 549 l 1
 338 507 316 471 286 431 c 2
 146 260 l 1
 145 258 l 1
EndSplineSet
Substitution2: "'pnum' Proportional Numbers lookup 17 subtable" four.fitted
Substitution2: "'onum' Oldstyle Figures lookup 15 subtable" four.taboldstyle
Substitution2: "'subs' Subscript lookup 14 subtable" four.inferior
Substitution2: "'sups' Superscript lookup 13 subtable" four.superior
Substitution2: "'dnom' Denominators lookup 7 subtable" four.denominator
Substitution2: "'numr' Numerators lookup 6 subtable" four.numerator
AlternateSubs2: "'aalt' Access All Alternates lookup 1 subtable" four.fitted four.oldstyle four.taboldstyle four.numerator four.denominator four.superior four.inferior
EndChar

StartChar: five
Encoding: 53 53 22
Width: 519
Flags: MW
HStem: -11 98<147 214.5 147 246.5> 332 90<160 275.5> 550 100<266 492 266 266>
VStem: 334 121<181 252.5>
LayerCount: 2
Fore
SplineSet
512 650 m 1
 492 550 l 1
 266 550 l 1
 226 420 l 1
 237 422 245 422 256 422 c 0
 295 422 342 413 381 386 c 0
 430 356 455 301 455 242 c 0
 455 82 323 -11 170 -11 c 0
 98 -11 38 8 14 26 c 1
 46 119 l 1
 71 104 120 87 174 87 c 0
 255 87 334 141 334 221 c 0
 334 284 298 332 175 332 c 0
 145 332 124 330 98 328 c 1
 190 650 l 1
 512 650 l 1
EndSplineSet
Substitution2: "'pnum' Proportional Numbers lookup 17 subtable" five.fitted
Substitution2: "'onum' Oldstyle Figures lookup 15 subtable" five.taboldstyle
Substitution2: "'subs' Subscript lookup 14 subtable" five.inferior
Substitution2: "'sups' Superscript lookup 13 subtable" five.superior
Substitution2: "'dnom' Denominators lookup 7 subtable" five.denominator
Substitution2: "'numr' Numerators lookup 6 subtable" five.numerator
AlternateSubs2: "'aalt' Access All Alternates lookup 1 subtable" five.fitted five.oldstyle five.taboldstyle five.numerator five.denominator five.superior five.inferior
EndChar

StartChar: six
Encoding: 54 54 23
Width: 519
Flags: MW
HStem: -11 91<211 279.5 211 309.5> 344 89<296.5 303> 563 96<468 493>
VStem: 34 114<163 203.5 163 285> 366 120<204.5 275>
LayerCount: 2
Fore
SplineSet
493 659 m 1
 476 563 l 1
 460 563 442 563 419 560 c 0
 302 544 215 469 177 369 c 1
 179 368 l 1
 216 408 269 433 324 433 c 0
 423 432 486 357 486 253 c 0
 486 119 383 -11 236 -11 c 0
 100 -11 34 85 34 210 c 0
 34 360 109 492 196 563 c 0
 265 619 352 651 439 658 c 0
 463 660 479 660 493 659 c 1
241 80 m 0
 318 80 366 167 366 242 c 0
 366 308 331 344 275 344 c 0
 231 344 188 315 162 271 c 0
 156 261 152 249 151 239 c 0
 149 225 148 211 148 196 c 0
 148 130 181 80 241 80 c 0
EndSplineSet
Substitution2: "'pnum' Proportional Numbers lookup 17 subtable" six.fitted
Substitution2: "'onum' Oldstyle Figures lookup 15 subtable" six.taboldstyle
Substitution2: "'subs' Subscript lookup 14 subtable" six.inferior
Substitution2: "'sups' Superscript lookup 13 subtable" six.superior
Substitution2: "'dnom' Denominators lookup 7 subtable" six.denominator
Substitution2: "'numr' Numerators lookup 6 subtable" six.numerator
AlternateSubs2: "'aalt' Access All Alternates lookup 1 subtable" six.fitted six.oldstyle six.taboldstyle six.numerator six.denominator six.superior six.inferior
EndChar

StartChar: seven
Encoding: 55 55 24
Width: 519
Flags: MW
HStem: 0 21G<34 163 34 34> 550 100<126 396 107 544>
VStem: 34 510
LayerCount: 2
Fore
SplineSet
126 650 m 1
 544 650 l 1
 529 571 l 1
 408 381 286 191 163 0 c 1
 34 0 l 1
 156 183 277 366 397 548 c 1
 396 550 l 1
 107 550 l 1
 126 650 l 1
EndSplineSet
Substitution2: "'pnum' Proportional Numbers lookup 17 subtable" seven.fitted
Substitution2: "'onum' Oldstyle Figures lookup 15 subtable" seven.taboldstyle
Substitution2: "'subs' Subscript lookup 14 subtable" seven.inferior
Substitution2: "'sups' Superscript lookup 13 subtable" seven.superior
Substitution2: "'dnom' Denominators lookup 7 subtable" seven.denominator
Substitution2: "'numr' Numerators lookup 6 subtable" seven.numerator
AlternateSubs2: "'aalt' Access All Alternates lookup 1 subtable" seven.fitted seven.oldstyle seven.taboldstyle seven.numerator seven.denominator seven.superior seven.inferior
EndChar

StartChar: eight
Encoding: 56 56 25
Width: 519
Flags: MW
HStem: -11 86<207.5 270 207.5 288> 575 86<282.5 339.5>
VStem: 21 121<143 201.5> 99 112<455 503.5 455 527> 353 122<151.5 213.5> 392 112<471.5 515.5>
LayerCount: 2
Fore
SplineSet
324 661 m 0xd4
 426 661 504 605 504 508 c 0xe4
 504 435 455 381 383 347 c 1
 383 344 l 1
 445 310 475 253 475 196 c 0
 475 60 348 -11 228 -11 c 0
 97 -11 21 59 21 154 c 0xe8
 21 249 88 312 166 343 c 1
 166 346 l 1
 119 381 99 424 99 470 c 0
 99 584 204 661 324 661 c 0xd4
239 75 m 0xe8
 301 75 353 118 353 185 c 0
 353 242 317 277 255 299 c 1
 199 284 142 239 142 168 c 0
 142 118 176 75 239 75 c 0xe8
311 575 m 0xd4
 254 575 211 529 211 478 c 0
 211 432 243 401 295 383 c 1
 346 400 392 441 392 495 c 0
 392 536 368 575 311 575 c 0xd4
EndSplineSet
Substitution2: "'pnum' Proportional Numbers lookup 17 subtable" eight.fitted
Substitution2: "'onum' Oldstyle Figures lookup 15 subtable" eight.taboldstyle
Substitution2: "'subs' Subscript lookup 14 subtable" eight.inferior
Substitution2: "'sups' Superscript lookup 13 subtable" eight.superior
Substitution2: "'dnom' Denominators lookup 7 subtable" eight.denominator
Substitution2: "'numr' Numerators lookup 6 subtable" eight.numerator
AlternateSubs2: "'aalt' Access All Alternates lookup 1 subtable" eight.fitted eight.oldstyle eight.taboldstyle eight.numerator eight.denominator eight.superior eight.inferior
EndChar

StartChar: nine
Encoding: 57 57 26
Width: 519
Flags: MW
HStem: -9 99 227 89<246 258> 570 91<277 342>
VStem: 68 119<385 453 385 468.5> 399 117<451.5 492.5>
LayerCount: 2
Fore
SplineSet
52 -9 m 1
 66 88 l 1
 83 86 101 87 127 90 c 0
 172 95 219 111 260 141 c 0
 308 174 347 223 371 284 c 1
 369 285 l 1
 334 246 281 227 235 227 c 0
 130 227 68 304 68 400 c 0
 68 537 180 661 322 661 c 0
 456 661 516 565 516 444 c 0
 516 286 432 147 350 80 c 0
 288 29 205 -1 126 -8 c 0
 92 -10 71 -10 52 -9 c 1
311 570 m 0
 243 570 187 492 187 414 c 0
 187 356 219 316 273 316 c 0
 318 316 357 340 379 373 c 0
 385 381 390 390 393 403 c 0
 397 418 399 441 399 462 c 0
 399 523 373 570 311 570 c 0
EndSplineSet
Substitution2: "'pnum' Proportional Numbers lookup 17 subtable" nine.fitted
Substitution2: "'onum' Oldstyle Figures lookup 15 subtable" nine.taboldstyle
Substitution2: "'subs' Subscript lookup 14 subtable" nine.inferior
Substitution2: "'sups' Superscript lookup 13 subtable" nine.superior
Substitution2: "'dnom' Denominators lookup 7 subtable" nine.denominator
Substitution2: "'numr' Numerators lookup 6 subtable" nine.numerator
AlternateSubs2: "'aalt' Access All Alternates lookup 1 subtable" nine.fitted nine.oldstyle nine.taboldstyle nine.numerator nine.denominator nine.superior nine.inferior
EndChar

StartChar: colon
Encoding: 58 58 27
Width: 238
Flags: MW
HStem: -11 157<77 113> 326 157<141 177>
VStem: 19 152<49 83.5> 83 152<385.5 420>
LayerCount: 2
Fore
SplineSet
153 326 m 0xd0
 111 326 83 357 83 397 c 0
 83 443 117 483 165 483 c 0
 207 483 235 452 235 409 c 0
 235 362 201 326 153 326 c 0xd0
89 -11 m 0xe0
 47 -11 19 20 19 60 c 0
 19 107 53 146 101 146 c 0
 143 146 171 115 171 73 c 0
 171 25 137 -11 89 -11 c 0xe0
EndSplineSet
EndChar

StartChar: semicolon
Encoding: 59 59 28
Width: 238
Flags: MW
HStem: 326 157<145.5 181>
VStem: 88 152<385.5 420>
LayerCount: 2
Fore
SplineSet
34 -113 m 1
 -51 -121 l 1
 -13 -45 32 60 56 143 c 1
 185 153 l 1
 144 59 83 -49 34 -113 c 1
157 326 m 0
 116 326 88 357 88 397 c 0
 88 443 122 483 169 483 c 0
 211 483 240 452 240 409 c 0
 240 362 205 326 157 326 c 0
EndSplineSet
EndChar

StartChar: less
Encoding: 60 60 29
Width: 596
Flags: MW
HStem: 0 532<527 527>
VStem: 64 97<265 267 265 302 265 302>
LayerCount: 2
Fore
SplineSet
64 230 m 1
 64 302 l 1
 527 532 l 1
 527 443 l 1
 161 267 l 1
 161 265 l 1
 527 89 l 1
 527 0 l 1
 64 230 l 1
EndSplineSet
EndChar

StartChar: equal
Encoding: 61 61 30
Width: 596
Flags: MW
HStem: 128 78<48 555 48 555> 331 78<48 555 48 555>
VStem: 48 507<128 206 128 206 331 409 128 409>
LayerCount: 2
Fore
SplineSet
555 331 m 1
 48 331 l 1
 48 409 l 1
 555 409 l 1
 555 331 l 1
555 128 m 1
 48 128 l 1
 48 206 l 1
 555 206 l 1
 555 128 l 1
EndSplineSet
EndChar

StartChar: greater
Encoding: 62 62 31
Width: 596
Flags: MW
HStem: 0 532<83 83>
VStem: 455 92<265 267 267 267>
LayerCount: 2
Fore
SplineSet
547 304 m 1
 547 228 l 1
 83 0 l 1
 83 89 l 1
 455 265 l 1
 455 267 l 1
 83 443 l 1
 83 532 l 1
 547 304 l 1
EndSplineSet
EndChar

StartChar: question
Encoding: 63 63 32
Width: 413
Flags: MW
HStem: -11 21G<132 177> -11 156<141 177> 590 95<220.5 322>
VStem: 84 151<48.5 83> 308 120<514.5 547>
LayerCount: 2
Fore
SplineSet
242 209 m 1xb8
 129 209 l 1
 129 218 130 227 131 235 c 0
 138 289 166 343 224 406 c 0
 266 450 308 488 308 532 c 0
 308 562 292 589 241 590 c 0
 200 590 164 579 136 562 c 1
 119 645 l 1
 157 667 209 685 274 685 c 0
 370 685 428 627 428 554 c 0
 428 475 377 421 319 362 c 0
 275 318 255 282 247 235 c 0
 245 226 244 218 242 209 c 1xb8
153 -11 m 0
 111 -11 84 20 84 60 c 0
 84 106 117 145 165 145 c 0x78
 207 145 235 115 235 72 c 0
 235 25 201 -11 153 -11 c 0
EndSplineSet
EndChar

StartChar: at
Encoding: 64 64 33
Width: 736
Flags: MW
HStem: -104 56<286.5 380.5> 65 59<520.5 536 520.5 570.5> 65 68<314.5 329.5> 361 67<375 421.5> 537 55<318.5 474.5>
VStem: 37 68<133.5 312> 191 85<181.5 244.5 181.5 254.5> 439 65 638 66<240.5 367>
LayerCount: 2
Fore
SplineSet
435 252 m 2xdf80
 452 355 l 1
 443 358 430 361 413 361 c 0
 337 361 276 287 276 202 c 0
 276 161 296 133 333 133 c 0xbf80
 380 133 425 193 435 252 c 2xdf80
508 -15 m 1
 525 -66 l 1
 468 -95 414 -104 347 -104 c 0
 177 -104 37 15 37 210 c 0
 37 414 183 592 407 592 c 0
 582 592 704 470 704 303 c 0
 704 155 621 65 520 65 c 0xdf80
 476 65 441 90 439 147 c 1
 436 147 l 1
 403 92 358 65 301 65 c 0xbf80
 240 65 191 113 191 193 c 0
 191 316 285 428 427 428 c 0
 470 428 515 418 540 405 c 1
 509 222 l 2
 497 155 505 124 536 124 c 0xdf80
 583 122 638 183 638 298 c 0
 638 436 552 537 397 537 c 0
 240 537 105 414 105 217 c 0
 105 50 210 -48 363 -48 c 0
 413 -48 468 -37 508 -15 c 1
EndSplineSet
Substitution2: "'case' Case-Sensitive Forms lookup 5 subtable" at.cap
Substitution2: "'aalt' Access All Alternates lookup 0 subtable" at.cap
EndChar

StartChar: A
Encoding: 65 65 34
Width: 596
Flags: MW
HStem: 0 21G<-28 96 -28 -28 419 419 419 541> 192 90<225 393 225 400 188 393> 578 96<362 364 362 362>
VStem: -28 569<0 0>
LayerCount: 2
Fore
SplineSet
400 192 m 1
 188 192 l 1
 96 0 l 1
 -28 0 l 1
 310 674 l 1
 456 674 l 1
 541 0 l 1
 419 0 l 1
 400 192 l 1
225 282 m 1
 393 282 l 1
 374 450 l 2
 371 486 367 538 364 578 c 1
 362 578 l 1
 344 538 326 490 307 450 c 2
 225 282 l 1
EndSplineSet
Position2: "'cpsp' Capital Spacing lookup 0 subtable" dx=10 dy=0 dh=20 dv=0
EndChar

StartChar: B
Encoding: 66 66 35
Width: 553
Flags: MW
HStem: -4 92<206 233> 312 86<197 269 215 252> 587 92<298.5 344>
VStem: 384 123<173.5 247.5 173.5 249> 419 120<480.5 535.5>
LayerCount: 2
Fore
SplineSet
26 6 m 1xf0
 150 663 l 1
 195 673 251 679 312 679 c 0
 382 679 433 667 474 638 c 0
 513 614 539 574 539 523 c 0xe8
 539 438 473 380 399 360 c 1
 399 357 l 1
 462 338 507 286 507 209 c 0
 507 138 469 85 420 51 c 0
 364 11 284 -4 182 -4 c 0
 114 -4 58 0 26 6 c 1xf0
250 582 m 1
 215 398 l 1
 269 398 l 2
 356 398 419 439 419 508 c 0
 419 563 376 587 312 587 c 0
 285 587 262 585 250 582 c 1
197 312 m 1
 155 91 l 1
 174 89 195 88 217 88 c 0
 304 88 384 123 384 213 c 0xf0
 384 285 323 312 252 312 c 2
 197 312 l 1
EndSplineSet
Position2: "'cpsp' Capital Spacing lookup 0 subtable" dx=10 dy=0 dh=20 dv=0
EndChar

StartChar: C
Encoding: 67 67 36
Width: 571
Flags: MW
HStem: -10 99<299.5 375.5> 584 101<412 473.5>
VStem: 49 126<230.5 336 230.5 343>
LayerCount: 2
Fore
SplineSet
501 115 m 1
 512 20 l 1
 476 4 415 -10 336 -10 c 0
 161 -10 49 98 49 273 c 0
 49 413 109 532 207 605 c 0
 277 658 361 685 458 685 c 0
 532 685 586 667 605 654 c 1
 571 560 l 1
 549 572 503 584 444 584 c 0
 380 584 318 562 272 522 c 0
 213 470 175 385 175 287 c 0
 175 174 233 89 366 89 c 0
 415 89 465 98 501 115 c 1
EndSplineSet
Position2: "'cpsp' Capital Spacing lookup 0 subtable" dx=10 dy=0 dh=20 dv=0
EndChar

StartChar: D
Encoding: 68 68 37
Width: 666
Flags: MW
HStem: -4 95<221 270> 585 94<313.5 383 297.5 397.5>
VStem: 527 126<354 446.5 336.5 454>
LayerCount: 2
Fore
SplineSet
26 6 m 1
 151 664 l 1
 206 674 266 679 329 679 c 0
 437 679 522 651 576 598 c 0
 622 556 653 493 653 400 c 0
 653 273 601 157 516 87 c 0
 438 23 339 -4 201 -4 c 0
 130 -4 64 1 26 6 c 1
252 579 m 1
 160 95 l 1
 183 92 208 91 234 91 c 0
 325 91 398 120 447 174 c 0
 500 230 527 310 527 398 c 0
 527 510 468 585 327 585 c 0
 300 585 271 583 252 579 c 1
EndSplineSet
Position2: "'cpsp' Capital Spacing lookup 0 subtable" dx=10 dy=0 dh=20 dv=0
EndChar

StartChar: E
Encoding: 69 69 38
Width: 496
Flags: MW
HStem: 0 99<160 413> 300 98<216 440 198 459> 575 99<250 507 250 250>
VStem: 24 502
LayerCount: 2
Fore
SplineSet
459 398 m 1
 440 300 l 1
 198 300 l 1
 160 99 l 1
 432 99 l 1
 413 0 l 1
 24 0 l 1
 152 674 l 1
 526 674 l 1
 507 575 l 1
 250 575 l 1
 216 398 l 1
 459 398 l 1
EndSplineSet
Position2: "'cpsp' Capital Spacing lookup 0 subtable" dx=10 dy=0 dh=20 dv=0
EndChar

StartChar: F
Encoding: 70 70 39
Width: 490
Flags: MW
HStem: 0 21G<24 24 24 141> 287 98<214 431 195 450> 575 99<250 504 250 250>
VStem: 24 500
LayerCount: 2
Fore
SplineSet
24 0 m 1
 152 674 l 1
 524 674 l 1
 504 575 l 1
 250 575 l 1
 214 385 l 1
 450 385 l 1
 431 287 l 1
 195 287 l 1
 141 0 l 1
 24 0 l 1
EndSplineSet
Position2: "'cpsp' Capital Spacing lookup 0 subtable" dx=10 dy=0 dh=20 dv=0
EndChar

StartChar: G
Encoding: 71 71 40
Width: 651
Flags: MW
HStem: -7 99<305 386 305 389.5> 276 94<386 486 367 618> 580 101<427 493.5>
VStem: 49 127<235.5 329 222.5 334>
LayerCount: 2
Fore
SplineSet
618 370 m 1
 554 30 l 1
 508 14 431 -7 348 -7 c 0
 255 -7 179 19 126 72 c 0
 73 123 49 197 49 274 c 0
 49 394 97 507 184 582 c 0
 258 645 359 681 472 681 c 0
 557 681 618 663 642 650 c 1
 606 552 l 1
 574 568 524 580 463 580 c 0
 391 580 325 557 275 514 c 0
 214 462 176 375 176 283 c 0
 176 162 242 92 368 92 c 0
 404 92 434 99 454 107 c 1
 486 276 l 1
 367 276 l 1
 386 370 l 1
 618 370 l 1
EndSplineSet
Position2: "'cpsp' Capital Spacing lookup 0 subtable" dx=10 dy=0 dh=20 dv=0
EndChar

StartChar: H
Encoding: 72 72 41
Width: 648
Flags: MW
HStem: 0 21G<25 141 25 25 415 532 415 415> 298 104<217 472 197 491> 654 20G<153 269 269 269 543 660 660 660>
VStem: 25 635
LayerCount: 2
Fore
SplineSet
153 674 m 1
 269 674 l 1
 217 402 l 1
 491 402 l 1
 543 674 l 1
 660 674 l 1
 532 0 l 1
 415 0 l 1
 472 298 l 1
 197 298 l 1
 141 0 l 1
 25 0 l 1
 153 674 l 1
EndSplineSet
Position2: "'cpsp' Capital Spacing lookup 0 subtable" dx=10 dy=0 dh=20 dv=0
EndChar

StartChar: I
Encoding: 73 73 42
Width: 256
Flags: MW
HStem: 0 21G<22 139 22 22> 654 20G<150 267 267 267>
VStem: 22 245
LayerCount: 2
Fore
SplineSet
150 674 m 1
 267 674 l 1
 139 0 l 1
 22 0 l 1
 150 674 l 1
EndSplineSet
Position2: "'cpsp' Capital Spacing lookup 0 subtable" dx=10 dy=0 dh=20 dv=0
EndChar

StartChar: J
Encoding: 74 74 43
Width: 383
Flags: MW
HStem: -11 103<55.5 105.5 55.5 143> 654 20G<285 401 401 401>
VStem: -33 434
LayerCount: 2
Fore
SplineSet
-33 6 m 1
 -10 105 l 1
 12 97 39 92 72 92 c 0
 139 92 181 126 201 234 c 2
 285 674 l 1
 401 674 l 1
 315 221 l 2
 284 56 213 -11 73 -11 c 0
 31 -11 -14 -3 -33 6 c 1
EndSplineSet
Position2: "'cpsp' Capital Spacing lookup 0 subtable" dx=10 dy=0 dh=20 dv=0
EndChar

StartChar: K
Encoding: 75 75 44
Width: 556
Flags: MW
HStem: 0 21G<24 24 24 139 389 389 389 516> 654 20G<152 267 267 267 485 630 630 630>
VStem: 24 606
LayerCount: 2
Fore
SplineSet
24 0 m 1
 152 674 l 1
 267 674 l 1
 208 361 l 1
 212 361 l 1
 233 390 255 414 275 438 c 2
 485 674 l 1
 630 674 l 1
 352 383 l 1
 516 0 l 1
 389 0 l 1
 261 310 l 1
 185 239 l 1
 139 0 l 1
 24 0 l 1
EndSplineSet
Position2: "'cpsp' Capital Spacing lookup 0 subtable" dx=10 dy=0 dh=20 dv=0
EndChar

StartChar: L
Encoding: 76 76 45
Width: 467
Flags: MW
HStem: 0 102<160 406> 654 20G<152 269 269 269>
VStem: 24 401<0 102>
LayerCount: 2
Fore
SplineSet
24 0 m 1
 152 674 l 1
 269 674 l 1
 160 102 l 1
 425 102 l 1
 406 0 l 1
 24 0 l 1
EndSplineSet
Position2: "'cpsp' Capital Spacing lookup 0 subtable" dx=10 dy=0 dh=20 dv=0
EndChar

StartChar: M
Encoding: 77 77 46
Width: 802
Flags: MW
HStem: 0 21G<8 116 8 8 588 701 588 588> 8 157<382 386 382 393 303 386> 564 110<248 250 248 248 671 674 671 671>
VStem: 8 782<0 674>
LayerCount: 2
Fore
SplineSet
701 0 m 1xb0
 588 0 l 1xb0
 633 317 l 2
 643 386 657 481 674 564 c 1
 671 564 l 1
 636 485 596 398 559 327 c 2
 393 8 l 1
 303 8 l 1x70
 268 322 l 2
 260 397 254 484 250 564 c 1
 248 564 l 1
 230 487 210 385 193 317 c 2
 116 0 l 1
 8 0 l 1xb0
 179 674 l 1
 333 674 l 1
 369 359 l 2
 374 299 381 229 382 165 c 1
 386 165 l 1x70
 410 229 442 300 471 358 c 2
 634 674 l 1
 790 674 l 1
 701 0 l 1xb0
EndSplineSet
Position2: "'cpsp' Capital Spacing lookup 0 subtable" dx=10 dy=0 dh=20 dv=0
EndChar

StartChar: N
Encoding: 78 78 47
Width: 651
Flags: MW
HStem: 0 21G<24 133 24 24 416 416 416 535> 0 150<416 467 465 467 465 535> 536 138<231 231> 654 20G<152 286 286 286 553 663 663 663>
VStem: 24 639
LayerCount: 2
Fore
SplineSet
133 0 m 1x98
 24 0 l 1
 152 674 l 1
 286 674 l 1
 404 361 l 2
 433 279 450 217 465 150 c 1
 467 150 l 1x58
 471 216 479 281 497 378 c 2
 553 674 l 1
 663 674 l 1
 535 0 l 1
 416 0 l 1
 295 319 l 2
 264 407 247 462 231 536 c 1
 227 535 l 1xa8
 220 471 206 388 188 288 c 2
 133 0 l 1x98
EndSplineSet
Position2: "'cpsp' Capital Spacing lookup 0 subtable" dx=10 dy=0 dh=20 dv=0
EndChar

StartChar: O
Encoding: 79 79 48
Width: 688
Flags: MW
HStem: -11 98<273.5 354.5 273.5 362> 587 98<371 459>
VStem: 48 123<222 316.5 222 327> 552 124<359.5 446.5>
LayerCount: 2
Fore
SplineSet
411 685 m 0
 591 685 676 560 676 406 c 0
 676 286 633 162 554 84 c 0
 493 24 411 -11 313 -11 c 0
 139 -11 48 116 48 267 c 0
 48 387 93 513 174 591 c 0
 235 650 320 685 411 685 c 0
397 587 m 0
 345 587 300 565 264 529 c 0
 205 470 171 360 171 273 c 0
 171 171 217 87 330 87 c 0
 379 87 426 108 461 144 c 0
 519 202 552 317 552 402 c 0
 552 491 521 587 397 587 c 0
EndSplineSet
Position2: "'cpsp' Capital Spacing lookup 0 subtable" dx=10 dy=0 dh=20 dv=0
EndChar

StartChar: P
Encoding: 80 80 49
Width: 535
Flags: MW
HStem: 0 21G<24 24 24 139> 250 95<253.5 290> 585 94<298.5 344 282.5 346>
VStem: 430 117<457 523.5>
LayerCount: 2
Fore
SplineSet
24 0 m 1
 150 663 l 1
 191 673 252 679 313 679 c 0
 375 679 442 666 485 631 c 0
 525 601 547 557 547 497 c 0
 547 417 510 353 461 314 c 0
 407 271 330 250 250 250 c 0
 226 250 205 253 187 255 c 1
 139 0 l 1
 24 0 l 1
249 579 m 1
 205 351 l 1
 224 347 241 345 266 345 c 0
 365 345 430 408 430 488 c 0
 430 559 379 585 313 585 c 0
 284 585 262 583 249 579 c 1
EndSplineSet
Position2: "'cpsp' Capital Spacing lookup 0 subtable" dx=10 dy=0 dh=20 dv=0
EndChar

StartChar: Q
Encoding: 81 81 50
Width: 688
Flags: MW
HStem: 587 98<371 459.5>
VStem: 48 123<220 312.5 220 326> 552 123<362 446>
LayerCount: 2
Fore
SplineSet
612 -15 m 1
 571 -109 l 1
 480 -84 376 -48 327 -25 c 0
 295 -12 286 -10 280 -9 c 0
 150 -1 48 100 48 269 c 0
 48 383 91 506 168 585 c 0
 232 649 320 685 411 685 c 0
 594 685 675 552 675 406 c 0
 675 295 634 168 559 93 c 0
 529 62 488 36 447 22 c 1
 447 19 l 1
 496 8 556 -6 612 -15 c 1
397 587 m 0
 345 587 300 565 265 530 c 0
 205 470 171 355 171 270 c 0
 171 170 216 86 328 86 c 0
 380 86 425 108 460 142 c 0
 519 201 552 319 552 405 c 0
 552 487 522 587 397 587 c 0
EndSplineSet
Position2: "'cpsp' Capital Spacing lookup 0 subtable" dx=10 dy=0 dh=20 dv=0
EndChar

StartChar: R
Encoding: 82 82 51
Width: 556
Flags: MW
HStem: 0 21G<25 25 25 140 366 366 366 486> 278 89<210 250 193 276> 586 93<298.5 346>
VStem: 428 122<463.5 527>
LayerCount: 2
Fore
SplineSet
25 0 m 1
 151 663 l 1
 194 673 257 679 317 679 c 0
 382 679 444 666 486 635 c 0
 524 609 550 568 550 513 c 0
 550 414 480 346 394 320 c 1
 393 317 l 1
 437 300 456 253 462 189 c 0
 470 105 475 27 486 0 c 1
 366 0 l 1
 361 16 354 80 348 161 c 0
 343 247 312 278 250 278 c 2
 193 278 l 1
 140 0 l 1
 25 0 l 1
251 580 m 1
 210 367 l 1
 276 367 l 2
 367 367 428 423 428 496 c 0
 428 558 379 586 313 586 c 0
 284 586 265 584 251 580 c 1
EndSplineSet
Position2: "'cpsp' Capital Spacing lookup 0 subtable" dx=10 dy=0 dh=20 dv=0
EndChar

StartChar: S
Encoding: 83 83 52
Width: 490
Flags: MW
HStem: -10 100<167.5 229.5 167.5 259.5> 584 101<291 328>
VStem: 90 122<473 518.5 473 539.5> 322 122<157.5 212>
LayerCount: 2
Fore
SplineSet
5 37 m 1
 45 133 l 1
 83 108 138 90 197 90 c 0
 262 90 322 125 322 190 c 0
 322 234 293 264 227 299 c 0
 149 341 90 395 90 475 c 0
 90 604 202 685 338 685 c 0
 413 685 462 666 488 651 c 1
 450 554 l 1
 428 566 383 585 328 584 c 0
 254 584 212 541 212 496 c 0
 212 450 250 423 313 387 c 0
 395 344 444 290 444 208 c 0
 444 73 335 -10 184 -10 c 0
 102 -10 35 13 5 37 c 1
EndSplineSet
Position2: "'cpsp' Capital Spacing lookup 0 subtable" dx=10 dy=0 dh=20 dv=0
EndChar

StartChar: T
Encoding: 84 84 53
Width: 503
Flags: MW
HStem: 0 21G<144 144 144 261> 572 102<86 253 66 577 369 369 369 557>
VStem: 66 511<572 674>
LayerCount: 2
Fore
SplineSet
144 0 m 1
 253 572 l 1
 66 572 l 1
 86 674 l 1
 577 674 l 1
 557 572 l 1
 369 572 l 1
 261 0 l 1
 144 0 l 1
EndSplineSet
Position2: "'cpsp' Capital Spacing lookup 0 subtable" dx=10 dy=0 dh=20 dv=0
EndChar

StartChar: U
Encoding: 85 85 54
Width: 639
Flags: MW
HStem: -11 98<260.5 336.5 260.5 362.5> 654 20G<150 267 267 267 536 653 653 653>
VStem: 68 116<199 211.5>
LayerCount: 2
Fore
SplineSet
150 674 m 1
 267 674 l 1
 192 281 l 2
 187 256 184 228 184 199 c 0
 185 130 226 87 295 87 c 0
 378 87 435 143 461 280 c 2
 536 674 l 1
 653 674 l 1
 578 282 l 2
 539 79 445 -11 280 -11 c 0
 153 -11 68 55 68 197 c 0
 68 226 72 259 77 290 c 2
 150 674 l 1
EndSplineSet
Position2: "'cpsp' Capital Spacing lookup 0 subtable" dx=10 dy=0 dh=20 dv=0
EndChar

StartChar: V
Encoding: 86 86 55
Width: 579
Flags: MW
HStem: 0 21G<165 298 165 165> 0 121<255 257 255 298 165 257> 654 20G<82 201 201 201 520 649 649 649>
VStem: 82 567<674 674>
LayerCount: 2
Fore
SplineSet
298 0 m 1xb0
 165 0 l 1
 82 674 l 1
 201 674 l 1
 240 303 l 2
 248 233 252 179 255 121 c 1
 257 121 l 1x70
 279 176 305 238 340 308 c 2
 520 674 l 1
 649 674 l 1
 298 0 l 1xb0
EndSplineSet
Position2: "'cpsp' Capital Spacing lookup 0 subtable" dx=10 dy=0 dh=20 dv=0
EndChar

StartChar: W
Encoding: 87 87 56
Width: 848
Flags: MW
HStem: 0 21G<124 252 124 124 484 484 484 610> 0 128<216 218 216 252 124 218> 0 131<484 575 573 575 573 610> 535 139<475 478 475 475> 654 20G<95 212 212 212 444 571 571 571 791 914 914 914>
VStem: 109.5 106 474 99.5
LayerCount: 2
Fore
SplineSet
252 0 m 1x8e
 124 0 l 1
 95 674 l 1
 212 674 l 1
 219 327 l 2
 220 243 218 181 216 128 c 1
 218 128 l 1x4e
 239 184 259 242 293 324 c 2
 444 674 l 1
 571 674 l 1
 576 334 l 2
 577 250 576 187 573 131 c 1
 575 131 l 1x2e
 597 195 619 259 646 327 c 2
 791 674 l 1
 914 674 l 1
 610 0 l 1
 484 0 l 1
 474 325 l 2
 472 403 473 458 478 535 c 1
 475 535 l 1x96
 452 466 431 403 400 330 c 2
 252 0 l 1x8e
EndSplineSet
Position2: "'cpsp' Capital Spacing lookup 0 subtable" dx=10 dy=0 dh=20 dv=0
EndChar

StartChar: X
Encoding: 88 88 57
Width: 547
Flags: MW
HStem: 0 21G<-36 103 -36 -36 370 494 370 370> 654 20G<99 222 222 222 476 615 615 615>
VStem: -36 651
LayerCount: 2
Fore
SplineSet
494 0 m 1
 370 0 l 1
 316 150 l 2
 301 192 289 228 277 266 c 1
 275 266 l 1
 253 231 232 196 202 148 c 2
 103 0 l 1
 -36 0 l 1
 221 344 l 1
 99 674 l 1
 222 674 l 1
 273 525 l 2
 286 484 296 454 306 417 c 1
 308 417 l 1
 332 458 352 491 374 526 c 2
 476 674 l 1
 615 674 l 1
 363 343 l 1
 494 0 l 1
EndSplineSet
Position2: "'cpsp' Capital Spacing lookup 0 subtable" dx=10 dy=0 dh=20 dv=0
EndChar

StartChar: Y
Encoding: 89 89 58
Width: 546
Flags: MW
HStem: 0 21G<155 271 155 155> 654 20G<77 201 201 201 475 613 613 613>
VStem: 77 536<674 674>
LayerCount: 2
Fore
SplineSet
271 0 m 1
 155 0 l 1
 208 277 l 1
 77 674 l 1
 201 674 l 1
 254 482 l 2
 269 424 276 394 282 364 c 1
 284 364 l 1
 302 396 324 434 354 484 c 2
 475 674 l 1
 613 674 l 1
 324 279 l 1
 271 0 l 1
EndSplineSet
Position2: "'cpsp' Capital Spacing lookup 0 subtable" dx=10 dy=0 dh=20 dv=0
EndChar

StartChar: Z
Encoding: 90 90 59
Width: 540
Flags: MW
HStem: 0 100<158 464> 574 100<135 411 116 587>
VStem: -23 610
LayerCount: 2
Fore
SplineSet
-23 0 m 1
 -10 69 l 1
 411 570 l 1
 411 574 l 1
 116 574 l 1
 135 674 l 1
 587 674 l 1
 573 601 l 1
 157 104 l 1
 158 100 l 1
 483 100 l 1
 464 0 l 1
 -23 0 l 1
EndSplineSet
Position2: "'cpsp' Capital Spacing lookup 0 subtable" dx=10 dy=0 dh=20 dv=0
EndChar

StartChar: bracketleft
Encoding: 91 91 60
Width: 301
Flags: MW
HStem: -112 70<111 198> 616 70<237 336 237 237>
VStem: 9 341
LayerCount: 2
Fore
SplineSet
198 -112 m 1
 9 -112 l 1
 161 686 l 1
 350 686 l 1
 336 616 l 1
 237 616 l 1
 111 -42 l 1
 211 -42 l 1
 198 -112 l 1
EndSplineSet
Substitution2: "'case' Case-Sensitive Forms lookup 5 subtable" bracketleft.cap
Substitution2: "'aalt' Access All Alternates lookup 0 subtable" bracketleft.cap
EndChar

StartChar: backslash
Encoding: 92 92 61
Width: 333
Flags: MW
HStem: 665 20G<56 140 140 140>
VStem: 56 256
LayerCount: 2
Fore
SplineSet
312 -40 m 1
 228 -40 l 1
 56 685 l 1
 140 685 l 1
 312 -40 l 1
EndSplineSet
EndChar

StartChar: bracketright
Encoding: 93 93 62
Width: 301
Flags: MW
HStem: -112 70<-20 79 -20 156 -33 79> 616 70<119 205 105 308>
VStem: -33 341
LayerCount: 2
Fore
SplineSet
119 686 m 1
 308 686 l 1
 156 -112 l 1
 -33 -112 l 1
 -20 -42 l 1
 79 -42 l 1
 205 616 l 1
 105 616 l 1
 119 686 l 1
EndSplineSet
Substitution2: "'case' Case-Sensitive Forms lookup 5 subtable" bracketright.cap
Substitution2: "'aalt' Access All Alternates lookup 0 subtable" bracketright.cap
EndChar

StartChar: asciicircum
Encoding: 94 94 63
Width: 596
Flags: MW
HStem: 182 468<51 335 51 335 257 540 257 450> 553 97<294 296 294 294>
VStem: 51 489<182 182>
LayerCount: 2
Fore
SplineSet
540 182 m 1xa0
 450 182 l 1
 296 553 l 1
 294 553 l 1
 140 182 l 1
 51 182 l 1
 257 650 l 1
 335 650 l 1x60
 540 182 l 1xa0
EndSplineSet
EndChar

StartChar: underscore
Encoding: 95 95 64
Width: 500
Flags: MW
HStem: -125 50<-52 438 -62 448>
VStem: -62 510<-125 -75>
LayerCount: 2
Fore
SplineSet
-52 -75 m 1
 448 -75 l 1
 438 -125 l 1
 -62 -125 l 1
 -52 -75 l 1
EndSplineSet
EndChar

StartChar: quoteleft
Encoding: 8216 8216 65
Width: 227
Flags: MW
HStem: 665 20G<291 291>
VStem: 67 224
LayerCount: 2
Fore
SplineSet
187 431 m 1
 67 422 l 1
 108 513 166 616 213 678 c 1
 291 685 l 1
 254 612 211 512 187 431 c 1
EndSplineSet
EndChar

StartChar: a
Encoding: 97 97 66
Width: 540
Flags: MW
HStem: -11 94<193.5 203> 0 21G<340 448 340 340> 408 90<286 350.5> 478 20G<257.5 397.5>
VStem: 28 121<150.5 231.5 150.5 238> 349 99
LayerCount: 2
Fore
SplineSet
448 0 m 1x5c
 340 0 l 1x6c
 341 29 345 68 349 110 c 1
 346 110 l 1
 298 20 234 -11 172 -11 c 0
 85 -11 28 57 28 155 c 0
 28 321 144 498 371 498 c 0xac
 424 498 481 488 518 476 c 1
 468 222 l 2
 454 149 446 58 448 0 c 1x5c
362 275 m 2
 388 403 l 1
 376 406 361 408 340 408 c 0
 232 408 149 287 149 176 c 0
 149 125 168 83 219 83 c 0xac
 273 83 339 151 362 275 c 2
EndSplineSet
Substitution2: "'sups' Superscript lookup 13 subtable" a.superior
Substitution2: "'ordn' Ordinals lookup 12 subtable" a.superior
AlternateSubs2: "'aalt' Access All Alternates lookup 1 subtable" ordfeminine a.superior
EndChar

StartChar: b
Encoding: 98 98 67
Width: 545
Flags: MW
HStem: -11 89<205 277 205 307> 403 95<338.5 345> 690 20G<152 269 269 269>
VStem: 41 120<120 134> 395 122<256.5 331>
LayerCount: 2
Fore
SplineSet
152 710 m 1
 269 710 l 1
 208 415 l 1
 210 415 l 1
 249 468 307 498 370 498 c 0
 474 498 517 413 517 326 c 0
 517 172 411 -11 203 -11 c 0
 101 -11 40 32 41 120 c 0
 41 148 45 177 50 204 c 2
 152 710 l 1
176 243 m 2
 166 198 l 2
 163 181 160 163 161 140 c 0
 161 100 184 78 226 78 c 0
 328 78 395 209 395 304 c 0
 395 358 372 403 318 403 c 0
 258 403 196 341 176 243 c 2
EndSplineSet
EndChar

StartChar: c
Encoding: 99 99 68
Width: 430
Flags: MW
HStem: -10 94<227.5 259> 403 95<280.5 353> 478 20G<250.5 362.5>
VStem: 31 122<161.5 248.5 161.5 269>
LayerCount: 2
Fore
SplineSet
364 107 m 1xd0
 368 17 l 1
 340 3 290 -10 228 -10 c 0
 106 -10 31 68 31 184 c 0
 31 354 160 498 341 498 c 0xd0
 384 498 422 487 440 479 c 1xb0
 410 388 l 1
 392 396 369 403 337 403 c 0
 224 403 153 299 153 198 c 0
 153 125 195 84 260 84 c 0
 305 84 339 96 364 107 c 1xd0
EndSplineSet
EndChar

StartChar: d
Encoding: 100 100 69
Width: 544
Flags: MW
HStem: -11 94<200.5 208.5> 0 83<200.5 443 200.5 336> 408 90<274 338.5> 690 20G<451 567 567 567>
VStem: 29 121<158.5 242.5 158.5 255.5> 341 102
LayerCount: 2
Fore
SplineSet
451 710 m 1xbc
 567 710 l 1
 465 173 l 2
 454 117 446 53 443 0 c 1
 336 0 l 1x7c
 346 87 l 1
 344 87 l 1
 300 20 240 -11 177 -11 c 0
 90 -11 29 60 29 170 c 0
 29 341 154 498 333 498 c 0
 358 498 387 493 408 484 c 1
 451 710 l 1xbc
362 241 m 2
 391 389 l 1
 377 399 353 408 324 408 c 0
 224 408 150 297 150 188 c 0
 150 129 173 83 228 83 c 0xbc
 280 83 342 140 362 241 c 2
EndSplineSet
EndChar

StartChar: e
Encoding: 101 101 70
Width: 479
Flags: MW
HStem: -10 91<234 259.5> 200 87 411 87<254.5 309.5>
VStem: 30 114 353 110<331 376>
LayerCount: 2
Fore
SplineSet
391 113 m 1
 402 28 l 1
 354 3 289 -10 230 -10 c 0
 95 -10 30 72 30 191 c 0
 30 338 138 498 306 498 c 0
 402 498 463 442 463 361 c 0
 463 236 332 196 144 200 c 1
 142 183 146 150 157 131 c 0
 176 98 211 81 257 81 c 0
 312 81 356 95 391 113 c 1
353 360 m 0
 353 392 328 411 291 411 c 0
 218 411 170 346 156 287 c 1
 276 285 353 302 353 360 c 0
EndSplineSet
EndChar

StartChar: f
Encoding: 102 102 71
Width: 308
Flags: MW
HStem: 0 21G<34 150 34 34> 397 90<63 109 46 126 242 326> 624 97<317.5 352.5>
VStem: 34 378
LayerCount: 2
Fore
SplineSet
150 0 m 1
 34 0 l 1
 109 397 l 1
 46 397 l 1
 63 487 l 1
 126 487 l 1
 131 512 l 2
 142 574 166 636 212 676 c 0
 248 707 295 721 340 721 c 0
 374 721 399 715 412 708 c 1
 390 616 l 1
 378 621 362 624 343 624 c 0
 288 624 257 573 246 510 c 2
 242 487 l 1
 343 487 l 1
 326 397 l 1
 225 397 l 1
 150 0 l 1
EndSplineSet
EndChar

StartChar: g
Encoding: 103 103 72
Width: 543
Flags: MW
HStem: -209 93<145 193.5> 2 91<202 214> 407 91<276 340.5>
VStem: 30 123<192 244.5 192 255>
LayerCount: 2
Fore
SplineSet
11 -176 m 1
 39 -87 l 1
 68 -104 122 -116 168 -116 c 0
 244 -116 302 -80 326 33 c 2
 338 88 l 1
 336 88 l 1
 296 30 245 2 183 2 c 0
 86 2 31 82 30 174 c 0
 30 336 147 498 349 498 c 0
 412 498 473 484 518 464 c 1
 444 62 l 2
 426 -33 398 -109 344 -155 c 0
 293 -197 224 -209 163 -209 c 0
 101 -209 43 -196 11 -176 c 1
364 250 m 2
 391 395 l 1
 379 401 354 407 327 407 c 0
 225 407 153 297 153 192 c 0
 152 141 173 93 231 93 c 0
 289 93 347 162 364 250 c 2
EndSplineSet
EndChar

StartChar: h
Encoding: 104 104 73
Width: 550
Flags: MW
HStem: 0 21G<20 136 20 20 323 323 323 439> 403 95<291.5 412.5> 690 20G<154 271 271 271>
VStem: 381 120<354.5 355.5>
LayerCount: 2
Fore
SplineSet
136 0 m 1
 20 0 l 1
 154 710 l 1
 271 710 l 1
 214 414 l 1
 216 414 l 1
 257 465 311 498 379 498 c 0
 446 498 501 456 501 367 c 0
 501 342 498 308 493 281 c 2
 439 0 l 1
 323 0 l 1
 375 273 l 2
 378 292 381 313 381 337 c 0
 381 374 364 403 320 403 c 0
 263 403 199 335 180 232 c 2
 136 0 l 1
EndSplineSet
EndChar

StartChar: i
Encoding: 105 105 74
Width: 249
Flags: MW
HStem: 0 21G<20 136 20 20> 467 20G<112 229 229 229> 557 133<182 210.5>
VStem: 131 132<627 640>
LayerCount: 2
Fore
SplineSet
136 0 m 1
 20 0 l 1
 112 487 l 1
 229 487 l 1
 136 0 l 1
191 557 m 0
 155 557 130 583 131 619 c 0
 131 661 163 690 201 690 c 0
 237 690 263 664 263 627 c 0
 262 584 230 557 191 557 c 0
EndSplineSet
Substitution2: "'locl' Localized Forms in Latin lookup 2 subtable" i.dot
Substitution2: "'aalt' Access All Alternates lookup 0 subtable" i.dot
EndChar

StartChar: j
Encoding: 106 106 75
Width: 254
Flags: MW
HStem: -209 93<-50.5 -35.5 -61.5 -16.5> -202 21G<-103 -103> 467 20G<123 239 239 239> 557 133<187 216>
VStem: 136 132<605.5 640>
LayerCount: 2
Fore
SplineSet
123 487 m 1x78
 239 487 l 1
 149 10 l 2
 133 -72 114 -125 83 -159 c 0
 53 -193 7 -209 -40 -209 c 0xb8
 -61 -209 -83 -207 -103 -202 c 1x78
 -89 -113 l 1
 -80 -115 -69 -116 -54 -116 c 0xb8
 -17 -116 13 -95 30 -2 c 2
 123 487 l 1x78
196 557 m 0
 161 557 136 583 136 619 c 0
 136 661 168 690 206 690 c 0
 243 690 268 664 268 627 c 0
 268 584 236 557 196 557 c 0
EndSplineSet
EndChar

StartChar: k
Encoding: 107 107 76
Width: 496
Flags: MW
HStem: 0 21G<20 136 20 20 325 325 325 454> 467 20G<380 524 524 524> 690 20G<155 270 270 270>
VStem: 20 504<0 487>
LayerCount: 2
Fore
SplineSet
136 0 m 1
 20 0 l 1
 155 710 l 1
 270 710 l 1
 188 276 l 1
 190 276 l 1
 205 294 221 313 234 328 c 2
 380 487 l 1
 524 487 l 1
 314 286 l 1
 454 0 l 1
 325 0 l 1
 225 223 l 1
 168 169 l 1
 136 0 l 1
EndSplineSet
EndChar

StartChar: l
Encoding: 108 108 77
Width: 249
Flags: MW
HStem: 0 21G<20 137 20 20> 690 20G<156 272 272 272>
VStem: 20 252
LayerCount: 2
Fore
SplineSet
137 0 m 1
 20 0 l 1
 156 710 l 1
 272 710 l 1
 137 0 l 1
EndSplineSet
EndChar

StartChar: m
Encoding: 109 109 78
Width: 821
Flags: MW
HStem: 0 21G<20 133 20 20 309 309 309 421 598 598 598 711> 403 84<106 332.5> 403 95<282 405>
VStem: 106 96 367 115 656 117<324 411.5>
LayerCount: 2
Fore
SplineSet
133 0 m 1xbc
 20 0 l 1
 82 336 l 2
 93 394 101 445 106 487 c 1
 207 487 l 1xdc
 197 402 l 1
 198 402 l 1
 244 467 304 498 367 498 c 0
 443 498 478 450 482 398 c 1
 525 465 587 497 654 498 c 0
 721 498 773 455 773 368 c 0
 773 347 769 311 765 285 c 2
 711 0 l 1
 598 0 l 1
 649 272 l 2
 652 292 656 314 656 334 c 0
 656 375 639 403 596 403 c 0
 543 403 484 336 465 233 c 2
 421 0 l 1
 309 0 l 1
 361 276 l 2
 365 296 367 315 367 333 c 0
 367 370 356 403 309 403 c 0
 255 403 193 330 175 231 c 2
 133 0 l 1xbc
EndSplineSet
EndChar

StartChar: n
Encoding: 110 110 79
Width: 550
Flags: MW
HStem: 0 21G<20 136 20 20 323 323 323 439> 403 95<293.5 412.5> 467 20G<108 211 211 211>
VStem: 108 98 381 121<323.5 410>
LayerCount: 2
Fore
SplineSet
136 0 m 1xb8
 20 0 l 1
 83 336 l 2
 95 394 102 445 108 487 c 1
 211 487 l 1xb8
 201 399 l 1
 203 399 l 1
 248 465 310 498 378 498 c 0
 447 498 502 456 502 364 c 0
 502 342 498 308 493 283 c 2
 439 0 l 1
 323 0 l 1
 375 275 l 2
 378 293 381 314 381 333 c 0
 381 373 366 403 320 403 c 0xd8
 267 403 199 339 178 225 c 2
 136 0 l 1xb8
EndSplineSet
EndChar

StartChar: o
Encoding: 111 111 80
Width: 543
Flags: MW
HStem: -11 90<217.5 290.5 217.5 314> 408 90<252.5 334.5>
VStem: 32 120<159.5 238.5 159.5 272.5> 392 121<247.5 321>
LayerCount: 2
Fore
SplineSet
313 498 m 0
 444 498 513 404 513 296 c 0
 513 131 397 -11 231 -11 c 0
 108 -11 32 74 32 190 c 0
 32 355 147 498 313 498 c 0
299 408 m 0
 206 408 152 284 152 193 c 0
 152 126 188 79 247 79 c 0
 334 79 392 199 392 296 c 0
 392 346 370 408 299 408 c 0
EndSplineSet
Substitution2: "'sups' Superscript lookup 13 subtable" o.superior
Substitution2: "'ordn' Ordinals lookup 12 subtable" o.superior
AlternateSubs2: "'aalt' Access All Alternates lookup 1 subtable" ordmasculine o.superior
EndChar

StartChar: p
Encoding: 112 112 81
Width: 545
Flags: MW
HStem: -198 21G<-21 95 -21 -21> -11 90<214 276 214 316> 403 84<102 346.5> 403 95<331.5 346.5>
VStem: 395 122<253.5 330.5>
LayerCount: 2
Fore
SplineSet
95 -198 m 1xd8
 -21 -198 l 1
 74 306 l 2
 85 364 96 437 102 487 c 1
 207 487 l 1xe8
 196 407 l 1
 198 407 l 1
 240 465 300 498 363 498 c 0
 468 498 517 412 517 317 c 0
 517 147 399 -11 233 -11 c 0
 188 -11 154 -1 136 10 c 1
 134 10 l 1
 95 -198 l 1xd8
174 222 m 2
 153 103 l 1
 171 88 197 79 231 79 c 0
 321 79 395 199 395 308 c 0
 395 353 375 403 318 403 c 0xd8
 259 403 195 336 174 222 c 2
EndSplineSet
EndChar

StartChar: q
Encoding: 113 113 82
Width: 545
Flags: MW
HStem: -198 21G<278 395 278 278> -11 94<200 206> 407 91<275 339>
VStem: 29 121<152 240 152 249.5>
LayerCount: 2
Fore
SplineSet
395 -198 m 1
 278 -198 l 1
 337 79 l 1
 335 79 l 1
 297 19 235 -11 177 -11 c 0
 84 -11 29 66 29 170 c 0
 29 329 142 498 351 498 c 0
 419 498 477 482 520 468 c 1
 395 -198 l 1
363 246 m 2
 391 394 l 1
 377 402 354 407 324 407 c 0
 226 407 150 296 150 184 c 0
 150 120 179 83 221 83 c 0
 284 83 345 153 363 246 c 2
EndSplineSet
EndChar

StartChar: r
Encoding: 114 114 83
Width: 347
Flags: MW
HStem: 0 21G<20 136 20 20> 384 103<192 195 195 195 102 332> 384 114<314.5 332>
VStem: 20 353
LayerCount: 2
Fore
SplineSet
136 0 m 1xb0
 20 0 l 1
 77 300 l 2
 90 369 96 443 102 487 c 1
 203 487 l 1xd0
 200 454 197 420 192 384 c 1
 195 384 l 1
 228 450 281 498 348 498 c 0
 356 498 365 497 373 496 c 1
 350 382 l 1
 344 383 336 384 328 384 c 0
 245 384 192 300 173 196 c 2
 136 0 l 1xb0
EndSplineSet
EndChar

StartChar: s
Encoding: 115 115 84
Width: 397
Flags: MW
HStem: -10 86<127 149 127 196.5> 411 87<233 275>
VStem: 64 117<340.5 370.5 340.5 385> 224 121<120 151.5>
LayerCount: 2
Fore
SplineSet
2 25 m 1
 32 109 l 1
 57 95 105 76 149 76 c 0
 196 77 224 104 224 136 c 0
 224 167 208 186 160 211 c 0
 104 240 64 282 64 338 c 0
 64 432 146 498 261 498 c 0
 312 498 354 486 376 473 c 1
 346 389 l 1
 328 399 295 411 255 411 c 0
 211 411 181 387 181 354 c 0
 181 327 203 308 244 287 c 0
 297 258 345 218 345 156 c 0
 345 49 255 -10 138 -10 c 0
 81 -10 28 6 2 25 c 1
EndSplineSet
EndChar

StartChar: t
Encoding: 116 116 85
Width: 333
Flags: MW
HStem: -11 99<136 230> -1 21G<252 252> 397 90<64 113 47 130 244 336>
VStem: 60 120<61 141.5>
LayerCount: 2
Fore
SplineSet
150 592 m 1x70
 269 621 l 1
 244 487 l 1
 354 487 l 1
 336 397 l 1
 227 397 l 1
 188 200 l 2
 184 177 180 152 180 131 c 0
 180 105 192 88 223 88 c 0
 237 88 251 88 263 90 c 1
 252 -1 l 1
 235 -7 204 -11 176 -11 c 0
 96 -11 60 33 60 89 c 0xb0
 60 117 63 144 71 180 c 2
 113 397 l 1
 47 397 l 1
 64 487 l 1
 130 487 l 1
 150 592 l 1x70
EndSplineSet
EndChar

StartChar: u
Encoding: 117 117 86
Width: 545
Flags: MW
HStem: -11 96<136.5 254> 0 85<341 343 204 333> 467 20G<107 223 223 223 408 524 524 524>
VStem: 45 120<134 140> 338 98
LayerCount: 2
Fore
SplineSet
408 487 m 1xb8
 524 487 l 1
 460 151 l 2
 449 93 442 42 436 0 c 1
 333 0 l 1x78
 343 85 l 1
 341 85 l 1
 294 22 233 -11 172 -11 c 0
 101 -11 45 27 45 127 c 0
 45 153 48 181 55 214 c 2
 107 487 l 1
 223 487 l 1
 173 221 l 2
 168 197 165 173 165 154 c 0
 165 114 181 85 227 85 c 0
 281 85 344 149 363 250 c 2
 408 487 l 1xb8
EndSplineSet
EndChar

StartChar: v
Encoding: 118 118 87
Width: 486
Flags: MW
HStem: 0 21G<131 248 131 131> 0 118<213 216 213 248 131 216> 467 20G<48 168 168 168 390 519 519 519>
VStem: 48 471<487 487>
LayerCount: 2
Fore
SplineSet
48 487 m 1xb0
 168 487 l 1
 199 245 l 2
 205 187 211 150 213 118 c 1
 216 118 l 1x70
 228 149 242 184 269 242 c 2
 390 487 l 1
 519 487 l 1
 248 0 l 1
 131 0 l 1
 48 487 l 1xb0
EndSplineSet
EndChar

StartChar: w
Encoding: 119 119 88
Width: 721
Flags: MW
HStem: 0 21G<101 210 101 101 405 514 405 405> 0 106<179 181 179 210 101 181 478 480> 356 131<376 378 376 376> 467 20G<56 172 172 172 356 453 453 453 635 753 753 753>
VStem: 56 697<487 487> 378 100
LayerCount: 2
Fore
SplineSet
56 487 m 1x98
 172 487 l 1
 181 250 l 2
 183 193 182 154 179 106 c 1
 181 106 l 1
 196 149 216 194 238 243 c 2
 356 487 l 1
 453 487 l 1
 473 249 l 2
 477 194 479 149 478 106 c 1
 480 106 l 1x54
 495 153 510 197 530 249 c 2
 635 487 l 1
 753 487 l 1
 514 0 l 1
 405 0 l 1
 383 212 l 2
 379 260 378 304 378 356 c 1
 376 356 l 1
 352 297 340 260 318 217 c 2xa4
 210 0 l 1
 101 0 l 1
 56 487 l 1x98
EndSplineSet
EndChar

StartChar: x
Encoding: 120 120 89
Width: 472
Flags: MW
HStem: 0 21G<-43 91 -43 -43 292 419 292 292> 467 20G<55 182 182 182 377 511 511 511>
VStem: -43 554<0 487>
LayerCount: 2
Fore
SplineSet
55 487 m 1
 182 487 l 1
 220 399 l 2
 234 364 243 339 251 319 c 1
 254 319 l 1
 272 345 285 365 307 395 c 2
 377 487 l 1
 511 487 l 1
 305 250 l 1
 419 0 l 1
 292 0 l 1
 253 92 l 2
 238 128 230 150 220 180 c 1
 217 180 l 1
 203 157 189 133 168 101 c 2
 91 0 l 1
 -43 0 l 1
 169 251 l 1
 55 487 l 1
EndSplineSet
EndChar

StartChar: y
Encoding: 121 121 90
Width: 472
Flags: MW
HStem: -124 21G<-32 -32> 467 20G<45 167 167 167 378 501 501 501>
VStem: -32 533
LayerCount: 2
Fore
SplineSet
45 487 m 1
 167 487 l 1
 205 252 l 2
 214 200 220 164 224 131 c 1
 226 131 l 1
 238 161 250 194 273 247 c 2
 378 487 l 1
 501 487 l 1
 323 128 l 2
 264 9 210 -77 145 -140 c 0
 89 -195 25 -218 -5 -224 c 1
 -32 -124 l 1
 -10 -117 24 -104 54 -82 c 0
 87 -58 118 -24 140 15 c 0
 144 23 144 29 142 38 c 2
 45 487 l 1
EndSplineSet
EndChar

StartChar: z
Encoding: 122 122 91
Width: 434
Flags: MW
HStem: 0 95<138 366> 392 95<86 294 67 452>
VStem: -24 476
LayerCount: 2
Fore
SplineSet
-24 0 m 1
 -11 71 l 1
 182 282 l 2
 223 326 253 353 293 389 c 1
 294 392 l 1
 67 392 l 1
 86 487 l 1
 452 487 l 1
 438 412 l 1
 249 205 l 2
 205 158 176 130 138 97 c 1
 138 95 l 1
 385 95 l 1
 366 0 l 1
 -24 0 l 1
EndSplineSet
EndChar

StartChar: braceleft
Encoding: 123 123 92
Width: 301
Flags: MW
HStem: -112 71<134.5 210 192 197> 616 70<318 335 317 349>
VStem: 47 92<-4 11> 97 88<198 216>
LayerCount: 2
Fore
SplineSet
32 255 m 1xd0
 44 320 l 1
 112 322 127 359 134 391 c 0
 143 443 142 500 152 553 c 0
 169 646 230 686 318 686 c 2
 349 686 l 1
 335 616 l 1
 317 616 l 2
 270 615 247 586 236 537 c 0
 228 496 230 453 222 401 c 0
 211 330 177 300 125 288 c 1
 125 286 l 1
 163 277 185 250 185 213 c 0xd0
 185 183 174 144 162 108 c 0
 150 72 139 37 139 12 c 0
 139 -20 155 -41 192 -41 c 2
 210 -41 l 1
 197 -112 l 1
 172 -112 l 2
 97 -112 47 -81 47 -7 c 0xe0
 47 29 60 69 72 106 c 0
 84 143 97 178 97 204 c 0
 97 228 83 255 32 255 c 1xd0
EndSplineSet
Substitution2: "'case' Case-Sensitive Forms lookup 5 subtable" braceleft.cap
Substitution2: "'aalt' Access All Alternates lookup 0 subtable" braceleft.cap
EndChar

StartChar: bar
Encoding: 124 124 93
Width: 229
Flags: MW
HStem: -250 1000<91 173 91 173>
VStem: 91 82<-250 750 -250 750>
LayerCount: 2
Fore
SplineSet
91 750 m 1
 173 750 l 1
 173 -250 l 1
 91 -250 l 1
 91 750 l 1
EndSplineSet
EndChar

StartChar: braceright
Encoding: 125 125 94
Width: 301
Flags: MW
HStem: -112 71<-22 -4 -35 -3> 616 70<117 121 104 141>
VStem: 129 87<357.5 376> 175 91<563 578>
LayerCount: 2
Fore
SplineSet
282 319 m 1xe0
 270 253 l 1
 201 252 186 215 180 183 c 0
 170 131 172 74 162 21 c 0
 144 -72 84 -112 -4 -112 c 2
 -35 -112 l 1
 -22 -41 l 1
 -3 -41 l 2
 44 -41 67 -12 77 37 c 0
 86 78 83 121 92 173 c 0
 103 243 136 274 189 285 c 1
 189 287 l 1
 150 297 129 325 129 361 c 0xe0
 129 391 141 429 152 465 c 0
 163 502 175 537 175 562 c 0
 175 594 158 615 121 616 c 2
 104 616 l 1
 117 686 l 1
 141 686 l 2
 217 686 266 655 266 582 c 0xd0
 266 544 254 505 242 467 c 0
 229 431 216 396 216 370 c 0
 216 345 231 319 282 319 c 1xe0
EndSplineSet
Substitution2: "'case' Case-Sensitive Forms lookup 5 subtable" braceright.cap
Substitution2: "'aalt' Access All Alternates lookup 0 subtable" braceright.cap
EndChar

StartChar: asciitilde
Encoding: 126 126 95
Width: 596
Flags: MW
HStem: 195 89<412.5 442 412.5 463.5> 283 87<169 200.5>
VStem: 55 79<201 201> 474 79<365 365>
LayerCount: 2
Fore
SplineSet
134 201 m 1x70
 55 201 l 1
 52 319 110 370 184 370 c 0x70
 227 370 264 355 320 325 c 0
 366 300 398 284 427 284 c 0
 457 284 473 308 474 365 c 1
 553 365 l 1
 559 238 499 195 428 195 c 0xb0
 385 195 342 212 285 245 c 0
 255 261 216 283 185 283 c 0
 153 283 136 251 134 201 c 1x70
EndSplineSet
EndChar

StartChar: exclamdown
Encoding: 161 161 96
Width: 254
Flags: MW
HStem: -198 21G<-21 107 -21 -21> 336 156<142 178> 472 20G<142 187>
VStem: 84 151<398 433>
LayerCount: 2
Fore
SplineSet
107 -198 m 1xb0
 -21 -198 l 1
 86 265 l 1
 178 265 l 1
 107 -198 l 1xb0
166 492 m 0
 208 492 235 462 235 421 c 0
 235 375 202 336 154 336 c 0xd0
 112 336 84 367 84 409 c 0
 84 457 118 492 166 492 c 0
EndSplineSet
Substitution2: "'case' Case-Sensitive Forms lookup 5 subtable" exclamdown.cap
Substitution2: "'aalt' Access All Alternates lookup 0 subtable" exclamdown.cap
EndChar

StartChar: cent
Encoding: 162 162 97
Width: 519
Flags: MW
HStem: 85 91<316 316> 488 185<350 394.5>
VStem: 83 124<258.5 349.5 258.5 358.5>
LayerCount: 2
Fore
SplineSet
297 -13 m 1
 218 -13 l 1
 237 87 l 1
 185 96 147 120 121 154 c 0
 96 188 83 232 83 281 c 0
 83 436 195 554 332 575 c 1
 350 673 l 1
 429 673 l 1
 412 579 l 1
 441 578 480 569 500 557 c 1
 464 469 l 1
 442 480 415 488 374 488 c 0
 285 488 207 405 207 294 c 0
 207 223 252 176 323 176 c 0
 361 176 394 186 419 197 c 1
 426 110 l 1
 399 96 356 86 316 85 c 1
 297 -13 l 1
EndSplineSet
Substitution2: "'onum' Oldstyle Figures lookup 15 subtable" cent.taboldstyle
Substitution2: "'subs' Subscript lookup 14 subtable" cent.inferior
Substitution2: "'sups' Superscript lookup 13 subtable" cent.superior
Substitution2: "'dnom' Denominators lookup 7 subtable" cent.denominator
Substitution2: "'numr' Numerators lookup 6 subtable" cent.numerator
AlternateSubs2: "'aalt' Access All Alternates lookup 1 subtable" cent.numerator cent.denominator cent.superior cent.inferior cent.taboldstyle
EndChar

StartChar: sterling
Encoding: 163 163 98
Width: 519
Flags: MW
HStem: 0 99<186 444> 281 85<91 167 91 167 75 167 279 405> 564 97<364 411>
VStem: 167 112<268 366 366 366>
LayerCount: 2
Fore
SplineSet
444 0 m 1
 18 0 l 1
 30 68 l 1
 87 93 139 150 158 209 c 0
 165 231 167 255 167 281 c 1
 75 281 l 1
 91 366 l 1
 167 366 l 1
 168 401 170 441 179 481 c 0
 205 591 283 661 403 661 c 0
 450 661 486 648 503 637 c 1
 471 547 l 1
 452 558 426 564 396 564 c 0
 332 564 297 522 285 461 c 0
 279 428 278 396 279 366 c 1
 420 366 l 1
 405 281 l 1
 275 281 l 1
 273 258 270 237 263 213 c 0
 251 169 225 130 186 101 c 1
 186 99 l 1
 461 99 l 1
 444 0 l 1
EndSplineSet
Substitution2: "'onum' Oldstyle Figures lookup 15 subtable" sterling.taboldstyle
Substitution2: "'aalt' Access All Alternates lookup 0 subtable" sterling.taboldstyle
EndChar

StartChar: fraction
Encoding: 8260 8260 99
Width: 142
Flags: MW
HStem: -11 672<-193 370 -193 370>
VStem: -193 563
LayerCount: 2
Fore
SplineSet
-119 -11 m 1
 -193 -11 l 1
 296 661 l 1
 370 661 l 1
 -119 -11 l 1
EndSplineSet
EndChar

StartChar: yen
Encoding: 165 165 100
Width: 519
Flags: MW
HStem: 0 21G<152 262 152 152> 167 61<47 184 36 195 305 443> 296 61<72 190 72 208 60 190 362 467> 630 20G<86 206 206 206 457 585 585 585>
VStem: 36 549<167 650>
LayerCount: 2
Fore
SplineSet
262 0 m 1
 152 0 l 1
 184 167 l 1
 36 167 l 1
 47 228 l 1
 195 228 l 1
 208 296 l 1
 60 296 l 1
 72 357 l 1
 190 357 l 1
 86 650 l 1
 206 650 l 1
 254 469 l 2
 262 432 270 401 276 368 c 1
 280 368 l 1
 297 399 316 434 339 471 c 2
 457 650 l 1
 585 650 l 1
 362 357 l 1
 479 357 l 1
 467 296 l 1
 317 296 l 1
 305 228 l 1
 455 228 l 1
 443 167 l 1
 293 167 l 1
 262 0 l 1
EndSplineSet
Substitution2: "'onum' Oldstyle Figures lookup 15 subtable" yen.taboldstyle
Substitution2: "'aalt' Access All Alternates lookup 0 subtable" yen.taboldstyle
EndChar

StartChar: florin
Encoding: 402 402 101
Width: 519
Flags: MW
HStem: -88 91<53 85.5 53 128.5> 321 85<121 224 134 204 337 432> 570 91<421 454 378 457>
VStem: -15 543
LayerCount: 2
Fore
SplineSet
121 321 m 1
 134 406 l 1
 224 406 l 1
 234 446 l 2
 256 531 302 661 454 661 c 0
 487 660 512 654 528 644 c 1
 498 559 l 1
 483 566 467 570 447 570 c 0
 395 570 364 521 347 449 c 2
 337 406 l 1
 445 406 l 1
 432 321 l 1
 317 321 l 1
 269 127 l 2
 239 5 190 -88 67 -88 c 0
 29 -88 -1 -78 -15 -69 c 1
 10 14 l 1
 23 7 43 3 63 3 c 0
 108 3 137 45 164 157 c 2
 204 321 l 1
 121 321 l 1
EndSplineSet
Substitution2: "'onum' Oldstyle Figures lookup 15 subtable" florin.taboldstyle
Substitution2: "'aalt' Access All Alternates lookup 0 subtable" florin.taboldstyle
EndChar

StartChar: section
Encoding: 167 167 102
Width: 531
Flags: MW
HStem: -69 77<181.5 209> 608 77<323.5 377.5>
VStem: 67 101<326 343> 148 106<523 560 523 576.5> 313 111<57.5 94.5> 390 102<279 301.5>
LayerCount: 2
Fore
SplineSet
168 343 m 0xe4
 168 309 185 285 246 258 c 0
 283 242 322 224 341 211 c 1
 368 227 390 255 390 286 c 0
 390 317 372 344 326 368 c 0
 293 383 248 402 223 417 c 1
 193 402 168 374 168 343 c 0xe4
505 650 m 1
 474 577 l 1
 446 593 404 608 351 608 c 0
 296 608 254 580 254 540 c 0
 254 506 284 488 351 462 c 0
 431 429 492 389 492 313 c 0xd4
 492 245 448 199 398 168 c 1
 416 149 424 122 424 97 c 0
 424 -20 312 -70 209 -69 c 0
 151 -69 84 -56 40 -24 c 1
 73 50 l 1
 104 30 153 8 210 8 c 0
 271 8 313 36 313 79 c 0
 313 110 291 134 218 165 c 0
 140 198 67 240 67 313 c 0xe8
 67 373 109 426 173 458 c 1
 155 479 148 502 148 524 c 0xd8
 148 629 254 685 362 685 c 0
 418 685 472 671 505 650 c 1
EndSplineSet
EndChar

StartChar: currency
Encoding: 164 164 103
Width: 519
Flags: MW
HStem: 121 81<251 292> 462 81<250.5 296 250.5 305>
VStem: 75 89<304 359> 380 89<307 361 307 368>
LayerCount: 2
Fore
SplineSet
272 543 m 0
 320 543 360 528 387 505 c 1
 462 585 l 1
 518 526 l 1
 435 451 l 1
 453 426 469 387 469 335 c 0
 469 279 451 239 434 214 c 1
 515 137 l 1
 459 80 l 1
 386 162 l 1
 357 135 312 121 272 121 c 0
 230 121 186 136 159 160 c 1
 89 80 l 1
 32 137 l 1
 112 212 l 1
 93 238 75 277 75 331 c 0
 75 387 93 425 112 451 c 1
 29 525 l 1
 87 585 l 1
 160 505 l 1
 188 529 229 543 272 543 c 0
272 462 m 0
 209 462 164 406 164 333 c 0
 164 242 224 202 272 202 c 0
 324 202 380 242 380 333 c 0
 380 403 338 462 272 462 c 0
EndSplineSet
EndChar

StartChar: quotesingle
Encoding: 39 39 104
Width: 184
Flags: MW
HStem: 424 261<121 165 90 233> 665 20G<121 233 233 233>
VStem: 90 143
LayerCount: 2
Fore
SplineSet
121 685 m 1x60
 233 685 l 1
 165 424 l 1
 90 424 l 1xa0
 121 685 l 1x60
EndSplineSet
EndChar

StartChar: quotedblleft
Encoding: 8220 8220 105
Width: 401
Flags: MW
HStem: 426.5 258.5
VStem: 67 398<422 685>
LayerCount: 2
Fore
SplineSet
186 431 m 1
 67 422 l 1
 108 513 165 616 212 678 c 1
 290 685 l 1
 253 612 211 512 186 431 c 1
361 431 m 1
 241 422 l 1
 282 513 340 616 387 678 c 1
 465 685 l 1
 428 612 385 512 361 431 c 1
EndSplineSet
EndChar

StartChar: guillemotleft
Encoding: 171 171 106
Width: 438
Flags: MW
HStem: 64 376<167 212 127 261 167 307 347 392>
VStem: 27 414<252 440>
LayerCount: 2
Fore
SplineSet
261 440 m 1
 114 250 l 1
 212 64 l 1
 127 64 l 1
 27 252 l 1
 167 440 l 1
 261 440 l 1
441 440 m 1
 293 250 l 1
 392 64 l 1
 307 64 l 1
 207 252 l 1
 347 440 l 1
 441 440 l 1
EndSplineSet
Substitution2: "'case' Case-Sensitive Forms lookup 5 subtable" guillemotleft.cap
Substitution2: "'aalt' Access All Alternates lookup 0 subtable" guillemotleft.cap
EndChar

StartChar: guilsinglleft
Encoding: 8249 8249 107
Width: 258
Flags: MW
HStem: 64 376<167 212 127 261>
VStem: 27 234<252 440>
LayerCount: 2
Fore
SplineSet
261 440 m 1
 114 250 l 1
 212 64 l 1
 127 64 l 1
 27 252 l 1
 167 440 l 1
 261 440 l 1
EndSplineSet
Substitution2: "'case' Case-Sensitive Forms lookup 5 subtable" guilsinglleft.cap
Substitution2: "'aalt' Access All Alternates lookup 0 subtable" guilsinglleft.cap
EndChar

StartChar: guilsinglright
Encoding: 8250 8250 108
Width: 257
Flags: MW
HStem: 64 376<55 100 6 140>
VStem: 6 234<64 252>
LayerCount: 2
Fore
SplineSet
154 255 m 1
 55 440 l 1
 140 440 l 1
 240 252 l 1
 100 64 l 1
 6 64 l 1
 154 255 l 1
EndSplineSet
Substitution2: "'case' Case-Sensitive Forms lookup 5 subtable" guilsinglright.cap
Substitution2: "'aalt' Access All Alternates lookup 0 subtable" guilsinglright.cap
EndChar

StartChar: fi
Encoding: 64257 64257 109
Width: 535
Flags: MW
HStem: 0 21G<35 151 35 35 306 306 306 423> 397 90<64 111 47 128 243 381> 626 95<332.5 396.5>
VStem: 35 480
LayerCount: 2
Fore
SplineSet
151 0 m 1
 35 0 l 1
 111 397 l 1
 47 397 l 1
 64 487 l 1
 128 487 l 1
 132 509 l 2
 156 643 250 721 386 721 c 0
 437 721 489 707 510 694 c 1
 477 603 l 1
 455 614 418 626 375 626 c 0
 290 626 257 570 246 508 c 2
 243 487 l 1
 515 487 l 1
 423 0 l 1
 306 0 l 1
 381 397 l 1
 226 397 l 1
 151 0 l 1
EndSplineSet
EndChar

StartChar: fl
Encoding: 64258 64258 110
Width: 535
Flags: MW
HStem: 0 21G<35 151 35 35 306 306 306 423> 397 90<63 110 46 127 243 318> 628 93<362 380>
VStem: 35 517
LayerCount: 2
Fore
SplineSet
151 0 m 1
 35 0 l 1
 110 397 l 1
 46 397 l 1
 63 487 l 1
 127 487 l 1
 131 508 l 2
 142 570 171 630 227 673 c 0
 270 705 329 721 395 721 c 0
 448 721 515 708 552 684 c 1
 423 0 l 1
 306 0 l 1
 423 617 l 1
 412 623 396 628 364 628 c 0
 297 628 259 576 247 509 c 2
 243 487 l 1
 335 487 l 1
 318 397 l 1
 226 397 l 1
 151 0 l 1
EndSplineSet
EndChar

StartChar: endash
Encoding: 8211 8211 111
Width: 500
Flags: MW
HStem: 215 78<41 465 25 480>
VStem: 25 455<215 293>
LayerCount: 2
Fore
SplineSet
41 293 m 1
 480 293 l 1
 465 215 l 1
 25 215 l 1
 41 293 l 1
EndSplineSet
Substitution2: "'case' Case-Sensitive Forms lookup 5 subtable" endash.cap
Substitution2: "'aalt' Access All Alternates lookup 0 subtable" endash.cap
EndChar

StartChar: dagger
Encoding: 8224 8224 112
Width: 503
Flags: MW
HStem: 387.5 86 654 20G<279 389 389 389>
VStem: 66 443<382 478>
LayerCount: 2
Fore
SplineSet
279 674 m 1
 389 674 l 1
 338 469 l 1
 509 478 l 1
 490 382 l 1
 324 393 l 1
 250 -50 l 1
 140 -50 l 1
 236 393 l 1
 66 382 l 1
 84 478 l 1
 250 469 l 1
 279 674 l 1
EndSplineSet
EndChar

StartChar: daggerdbl
Encoding: 8225 8225 113
Width: 503
Flags: MW
HStem: 143.5 86 401 86 654 20G<280 388 388 388>
VStem: 20 490<139 492>
LayerCount: 2
Fore
SplineSet
280 674 m 1
 388 674 l 1
 342 482 l 1
 510 492 l 1
 492 396 l 1
 327 406 l 1
 293 224 l 1
 461 235 l 1
 443 139 l 1
 278 148 l 1
 249 -50 l 1
 141 -50 l 1
 188 148 l 1
 20 139 l 1
 38 235 l 1
 203 224 l 1
 237 406 l 1
 69 396 l 1
 87 492 l 1
 252 482 l 1
 280 674 l 1
EndSplineSet
EndChar

StartChar: periodcentered
Encoding: 183 183 114
Width: 238
Flags: MW
HStem: 181 158<102.5 138.5>
VStem: 45 152<240.5 276.5>
LayerCount: 2
Fore
SplineSet
114 181 m 0
 72 181 45 212 45 253 c 0
 45 300 78 339 127 339 c 0
 169 339 197 308 197 265 c 0
 197 216 163 181 114 181 c 0
EndSplineSet
Substitution2: "'case' Case-Sensitive Forms lookup 5 subtable" periodcentered.cap
Substitution2: "'aalt' Access All Alternates lookup 0 subtable" periodcentered.cap
EndChar

StartChar: paragraph
Encoding: 182 182 115
Width: 518
Flags: MW
HStem: 601 75<357 420 293.5 429 357 357>
VStem: 73 447<383 667>
LayerCount: 2
Fore
SplineSet
232 -49 m 1
 154 -49 l 1
 214 263 l 1
 210 264 206 264 202 265 c 0
 140 280 73 334 73 432 c 0
 73 581 195 676 392 676 c 0
 448 676 495 673 520 667 c 1
 383 -49 l 1
 304 -49 l 1
 429 601 l 1
 357 601 l 1
 232 -49 l 1
EndSplineSet
EndChar

StartChar: bullet
Encoding: 8226 8226 116
Width: 309
Flags: MW
HStem: 145 239<125.5 191 125.5 191.5>
VStem: 40 238<231 264>
LayerCount: 2
Fore
SplineSet
158 145 m 0
 93 145 40 197 40 264 c 0
 38 331 93 384 158 384 c 0
 224 384 278 332 278 264 c 0
 278 198 225 145 158 145 c 0
EndSplineSet
EndChar

StartChar: quotesinglbase
Encoding: 8218 8218 117
Width: 227
Flags: MW
HStem: -118 271<-53 178>
VStem: -53 231
LayerCount: 2
Fore
SplineSet
28 -110 m 1
 -53 -118 l 1
 -15 -42 29 60 53 143 c 1
 178 153 l 1
 136 59 76 -46 28 -110 c 1
EndSplineSet
EndChar

StartChar: quotedblbase
Encoding: 8222 8222 118
Width: 401
Flags: MW
HStem: -118 271<-59 173 127 173>
VStem: -59 418<-118 153>
LayerCount: 2
Fore
SplineSet
23 -110 m 1
 -59 -118 l 1
 -20 -42 24 60 48 143 c 1
 173 153 l 1
 131 59 71 -46 23 -110 c 1
209 -110 m 1
 127 -118 l 1
 166 -42 210 60 234 143 c 1
 359 153 l 1
 317 59 257 -46 209 -110 c 1
EndSplineSet
EndChar

StartChar: quotedblright
Encoding: 8221 8221 119
Width: 401
Flags: MW
HStem: 425.5 259.5 665 20G<284 284 459 459>
VStem: 60 399<422 685>
LayerCount: 2
Fore
SplineSet
164 676 m 1x60
 284 685 l 1
 242 594 185 491 138 429 c 1
 60 422 l 1xa0
 98 495 140 595 164 676 c 1x60
339 676 m 1
 459 685 l 1
 417 594 360 491 313 429 c 1
 235 422 l 1
 272 495 315 595 339 676 c 1
EndSplineSet
EndChar

StartChar: guillemotright
Encoding: 187 187 120
Width: 437
Flags: MW
HStem: 64 376<55 100 6 140 55 186 235 279>
VStem: 6 414<64 252>
LayerCount: 2
Fore
SplineSet
154 255 m 1
 55 440 l 1
 140 440 l 1
 240 252 l 1
 100 64 l 1
 6 64 l 1
 154 255 l 1
333 255 m 1
 235 440 l 1
 320 440 l 1
 420 252 l 1
 279 64 l 1
 186 64 l 1
 333 255 l 1
EndSplineSet
Substitution2: "'case' Case-Sensitive Forms lookup 5 subtable" guillemotright.cap
Substitution2: "'aalt' Access All Alternates lookup 0 subtable" guillemotright.cap
EndChar

StartChar: ellipsis
Encoding: 8230 8230 121
Width: 1000
Flags: MW
HStem: -10 158<114 150.5 448 484 781.5 818>
VStem: 56 153<50 85.5> 390 153<50 85.5> 724 152<50 85.5>
LayerCount: 2
Fore
SplineSet
126 -10 m 0
 84 -10 56 21 56 62 c 0
 56 109 90 148 138 148 c 0
 181 148 209 118 209 74 c 0
 209 26 175 -10 126 -10 c 0
460 -10 m 0
 418 -10 390 21 390 62 c 0
 390 109 424 148 472 148 c 0
 514 148 543 118 543 74 c 0
 543 26 508 -10 460 -10 c 0
794 -10 m 0
 751 -10 724 21 724 62 c 0
 724 109 757 148 806 148 c 0
 848 148 876 118 876 74 c 0
 876 26 842 -10 794 -10 c 0
EndSplineSet
EndChar

StartChar: perthousand
Encoding: 8240 8240 122
Width: 1199
Flags: MW
HStem: -8 69<582 633.5 582 649 956.5 1008.5> 261 69<192 243.5 192 259> 323 69<614.5 666.5 989 1040.5> 591 69<224.5 276.5>
VStem: 66 91<387.5 445.5 387.5 474.5> 309 91<481 534.5> 456 91<118 176 118 205> 699 91<212.5 266> 831 90<118 176 118 205> 1074 90<212.5 266>
LayerCount: 2
Fore
SplineSet
657 392 m 0xbfc0
 745 392 790 328 790 249 c 0
 790 106 706 -8 592 -8 c 0
 511 -8 456 49 456 142 c 0
 456 268 535 392 657 392 c 0xbfc0
646 323 m 0
 583 323 547 213 547 139 c 0
 547 97 562 61 602 61 c 0
 665 61 699 177 699 248 c 0
 699 284 687 323 646 323 c 0
1032 392 m 0
 1119 392 1164 328 1164 249 c 0
 1164 106 1081 -8 967 -8 c 0
 885 -8 831 49 831 142 c 0
 831 268 909 392 1032 392 c 0
1020 323 m 0
 958 323 921 213 921 139 c 0
 921 97 936 61 977 61 c 0
 1040 61 1074 177 1074 248 c 0
 1074 284 1061 323 1020 323 c 0
267 660 m 0
 354 660 400 596 400 518 c 0
 400 375 316 261 202 261 c 0x4c
 121 261 66 319 66 411 c 0
 66 538 145 660 267 660 c 0
256 591 m 0
 193 591 157 482 157 409 c 0
 157 366 172 330 212 330 c 0x4c
 275 330 309 446 309 516 c 0
 309 553 297 591 256 591 c 0
221 -11 m 1
 147 -11 l 1
 632 661 l 1
 706 661 l 1
 221 -11 l 1
EndSplineSet
EndChar

StartChar: questiondown
Encoding: 191 191 123
Width: 413
Flags: MW
HStem: -209 95<180 181> 337 156<244.5 280> 473 20G<244.5 289.5>
VStem: -7 121<-70.5 -38.5> 186 152<399 433.5>
LayerCount: 2
Fore
SplineSet
180 270 m 1xb8
 293 270 l 1
 292 261 291 253 290 244 c 0
 284 190 255 134 196 71 c 0
 154 27 114 -12 114 -55 c 0
 114 -86 129 -113 180 -114 c 0
 221 -114 257 -104 285 -86 c 1
 303 -169 l 1
 266 -191 213 -209 149 -209 c 0
 50 -209 -7 -148 -7 -75 c 0
 -7 -2 41 54 101 115 c 0
 145 159 167 197 175 244 c 2
 180 270 l 1xb8
269 493 m 0
 310 493 338 462 338 422 c 0
 338 376 304 337 256 337 c 0xd8
 214 337 186 367 186 410 c 0
 186 457 220 493 269 493 c 0
EndSplineSet
Substitution2: "'case' Case-Sensitive Forms lookup 5 subtable" questiondown.cap
Substitution2: "'aalt' Access All Alternates lookup 0 subtable" questiondown.cap
EndChar

StartChar: grave
Encoding: 96 96 124
Width: 389
Flags: MW
HStem: 546 148<237 249 130 320 237 237>
VStem: 130 190<546 694>
LayerCount: 2
Fore
SplineSet
130 694 m 1
 249 694 l 1
 320 546 l 1
 237 546 l 1
 130 694 l 1
EndSplineSet
Substitution2: "'case' Case-Sensitive Forms lookup 5 subtable" grave.cap
Substitution2: "'aalt' Access All Alternates lookup 0 subtable" grave.cap
EndChar

StartChar: acute
Encoding: 180 180 125
Width: 389
Flags: MW
HStem: 546 148<189 408 189 408>
VStem: 189 219<546 694>
LayerCount: 2
Fore
SplineSet
285 694 m 1
 408 694 l 1
 277 546 l 1
 189 546 l 1
 285 694 l 1
EndSplineSet
Substitution2: "'case' Case-Sensitive Forms lookup 5 subtable" acute.cap
Substitution2: "'aalt' Access All Alternates lookup 0 subtable" acute.cap
EndChar

StartChar: circumflex
Encoding: 710 710 126
Width: 389
Flags: MW
HStem: 546 148<117 317 117 317 310 317 236 389 310 310>
VStem: 117 272<546 546>
LayerCount: 2
Fore
SplineSet
236 694 m 1
 317 694 l 1
 389 546 l 1
 310 546 l 1
 269 630 l 1
 267 630 l 1
 203 546 l 1
 117 546 l 1
 236 694 l 1
EndSplineSet
Substitution2: "'case' Case-Sensitive Forms lookup 5 subtable" circumflex.cap
Substitution2: "'aalt' Access All Alternates lookup 0 subtable" circumflex.cap
EndChar

StartChar: tilde
Encoding: 732 732 127
Width: 389
Flags: MW
HStem: 570 111<308.5 409> 608 69<212 226.5>
VStem: 131 60<563 563> 350 59<681 681>
LayerCount: 2
Fore
SplineSet
191 563 m 1x60
 131 563 l 1
 140 633 171 677 218 677 c 0x60
 245 677 261 667 280 656 c 0
 294 647 307 638 319 638 c 0
 335 638 343 647 350 681 c 1
 409 681 l 1
 399 605 371 570 321 570 c 0x90
 296 570 275 579 259 590 c 0
 245 600 233 608 220 608 c 0
 204 608 196 589 191 563 c 1x60
EndSplineSet
Substitution2: "'case' Case-Sensitive Forms lookup 5 subtable" tilde.cap
Substitution2: "'aalt' Access All Alternates lookup 0 subtable" tilde.cap
EndChar

StartChar: macron
Encoding: 175 175 128
Width: 389
Flags: MW
HStem: 588 67<158 379 144 392>
VStem: 144 248<588 655>
LayerCount: 2
Fore
SplineSet
158 655 m 1
 392 655 l 1
 379 588 l 1
 144 588 l 1
 158 655 l 1
EndSplineSet
Substitution2: "'case' Case-Sensitive Forms lookup 5 subtable" macron.cap
Substitution2: "'aalt' Access All Alternates lookup 0 subtable" macron.cap
EndChar

StartChar: breve
Encoding: 728 728 129
Width: 389
Flags: MW
HStem: 561 64<249.5 290 249.5 303>
VStem: 155 62<670 687>
LayerCount: 2
Fore
SplineSet
155 687 m 1
 217 687 l 1
 217 653 231 625 268 625 c 0
 312 625 332 657 340 687 c 1
 404 687 l 1
 392 611 342 561 264 561 c 0
 173 561 146 619 155 687 c 1
EndSplineSet
Substitution2: "'case' Case-Sensitive Forms lookup 5 subtable" breve.cap
Substitution2: "'aalt' Access All Alternates lookup 0 subtable" breve.cap
EndChar

StartChar: dotaccent
Encoding: 729 729 130
Width: 389
Flags: MW
HStem: 560 125<252 281.5>
VStem: 205 123<606.5 638.5>
LayerCount: 2
Fore
SplineSet
263 560 m 0
 231 560 205 584 205 619 c 0
 205 658 234 685 270 685 c 0
 306 685 328 660 328 626 c 0
 328 587 300 560 263 560 c 0
EndSplineSet
Substitution2: "'case' Case-Sensitive Forms lookup 5 subtable" dotaccent.cap
Substitution2: "'aalt' Access All Alternates lookup 0 subtable" dotaccent.cap
EndChar

StartChar: dieresis
Encoding: 168 168 131
Width: 389
Flags: MW
HStem: 561 124<156 185 351 381>
VStem: 109 122<607 638.5> 304 122<607 638.5>
LayerCount: 2
Fore
SplineSet
167 561 m 0
 135 561 109 584 109 619 c 0
 109 658 138 685 174 685 c 0
 209 685 231 659 231 626 c 0
 231 588 203 561 167 561 c 0
363 561 m 0
 330 561 304 584 304 619 c 0
 304 658 333 685 369 685 c 0
 404 685 426 659 426 626 c 0
 426 588 399 561 363 561 c 0
EndSplineSet
Substitution2: "'case' Case-Sensitive Forms lookup 5 subtable" dieresis.cap
Substitution2: "'aalt' Access All Alternates lookup 0 subtable" dieresis.cap
EndChar

StartChar: ring
Encoding: 730 730 132
Width: 390
Flags: MW
HStem: 536 45<252.5 281.5 252.5 293.5> 684 44<256 285.5>
VStem: 161 60 317 60<636 648.5>
LayerCount: 2
Fore
SplineSet
275 728 m 0
 332 728 377 695 377 636 c 0
 376 573 324 536 263 536 c 0
 207 536 162 571 161 625 c 0
 160 687 209 728 275 728 c 0
271 684 m 0
 241 684 221 660 221 629 c 0
 221 603 239 581 266 581 c 0
 297 581 317 605 317 635 c 0
 317 662 300 684 271 684 c 0
EndSplineSet
Substitution2: "'case' Case-Sensitive Forms lookup 5 subtable" ring.cap
Substitution2: "'aalt' Access All Alternates lookup 0 subtable" ring.cap
EndChar

StartChar: cedilla
Encoding: 184 184 133
Width: 389
Flags: MW
HStem: -204 55<90.5 110 90.5 125> -47 50<158 158>
VStem: 139 77<-128.5 -108>
LayerCount: 2
Fore
SplineSet
127 3 m 1
 194 3 l 1
 158 -47 l 1
 191 -55 216 -79 216 -111 c 0
 216 -177 153 -204 97 -204 c 0
 66 -204 39 -196 25 -185 c 1
 47 -134 l 1
 62 -144 81 -149 100 -149 c 0
 120 -149 139 -139 139 -118 c 0
 139 -98 119 -85 70 -81 c 1
 127 3 l 1
EndSplineSet
Substitution2: "'case' Case-Sensitive Forms lookup 5 subtable" cedilla.cap
Substitution2: "'aalt' Access All Alternates lookup 0 subtable" cedilla.cap
EndChar

StartChar: hungarumlaut
Encoding: 733 733 134
Width: 389
Flags: MW
HStem: 545 148<124 320 124 320 286 286 286 320 213 358>
VStem: 124 357<545 693>
LayerCount: 2
Fore
SplineSet
213 693 m 1
 320 693 l 1
 197 545 l 1
 124 545 l 1
 213 693 l 1
374 693 m 1
 481 693 l 1
 358 545 l 1
 286 545 l 1
 374 693 l 1
EndSplineSet
Substitution2: "'case' Case-Sensitive Forms lookup 5 subtable" hungarumlaut.cap
Substitution2: "'aalt' Access All Alternates lookup 0 subtable" hungarumlaut.cap
EndChar

StartChar: ogonek
Encoding: 731 731 135
Width: 389
Flags: MW
HStem: -213 79<119 195.5>
VStem: 58 89<-108 -105>
LayerCount: 2
Fore
SplineSet
131 2 m 1
 205 2 l 1
 176 -25 147 -65 147 -96 c 0
 147 -120 161 -134 187 -134 c 0
 204 -134 221 -130 233 -125 c 1
 242 -184 l 1
 214 -204 179 -213 147 -213 c 0
 91 -213 58 -182 58 -133 c 0
 58 -77 105 -24 131 2 c 1
EndSplineSet
Substitution2: "'case' Case-Sensitive Forms lookup 5 subtable" ogonek.cap
Substitution2: "'aalt' Access All Alternates lookup 0 subtable" ogonek.cap
EndChar

StartChar: caron
Encoding: 711 711 136
Width: 389
Flags: MW
HStem: 546 148<217 223 144 298 217 217>
VStem: 144 273<694 694>
LayerCount: 2
Fore
SplineSet
298 546 m 1
 217 546 l 1
 144 694 l 1
 223 694 l 1
 265 609 l 1
 267 609 l 1
 332 694 l 1
 417 694 l 1
 298 546 l 1
EndSplineSet
Substitution2: "'case' Case-Sensitive Forms lookup 5 subtable" caron.cap
Substitution2: "'aalt' Access All Alternates lookup 0 subtable" caron.cap
EndChar

StartChar: emdash
Encoding: 8212 8212 137
Width: 1000
Flags: MW
HStem: 215 78<41 965 25 980>
VStem: 25 955<215 293>
LayerCount: 2
Fore
SplineSet
41 293 m 1
 980 293 l 1
 965 215 l 1
 25 215 l 1
 41 293 l 1
EndSplineSet
Substitution2: "'case' Case-Sensitive Forms lookup 5 subtable" emdash.cap
Substitution2: "'aalt' Access All Alternates lookup 0 subtable" emdash.cap
EndChar

StartChar: AE
Encoding: 198 198 138
Width: 812
Flags: MW
HStem: 0 99<504 740> 209 97<262 403 205 409> 297 98<526 749 522 768> 575 99<544 798 544 544> 587 87<432 436 432 432>
VStem: -50 866<0 674>
LayerCount: 2
Fore
SplineSet
75 0 m 1xb4
 -50 0 l 1
 379 674 l 1
 816 674 l 1
 798 575 l 1
 544 575 l 1
 526 395 l 1
 768 395 l 1
 749 297 l 1
 522 297 l 1xb4
 504 99 l 1
 759 99 l 1
 740 0 l 1
 385 0 l 1
 403 209 l 1
 205 209 l 1xd4
 75 0 l 1xb4
262 306 m 1xcc
 409 306 l 1
 426 484 l 2
 429 515 432 554 436 587 c 1
 432 587 l 1
 414 554 393 516 374 484 c 2
 262 306 l 1xcc
EndSplineSet
Position2: "'cpsp' Capital Spacing lookup 0 subtable" dx=10 dy=0 dh=20 dv=0
EndChar

StartChar: ordfeminine
Encoding: 170 170 139
Width: 378
Flags: MW
HStem: 261 68<129.5 216> 527 64<228 267.5>
VStem: 60 88<376 394 376 431.5> 270 80<266 274.5>
LayerCount: 2
Fore
SplineSet
350 266 m 1
 270 266 l 1
 270 283 271 304 272 324 c 1
 271 324 l 1
 242 282 202 261 158 261 c 0
 101 261 60 305 60 378 c 0
 60 485 132 591 281 591 c 0
 323 591 369 580 393 571 c 1
 357 368 l 2
 351 330 350 290 350 266 c 1
281 413 m 2
 299 521 l 1
 288 525 275 527 260 527 c 0
 196 527 149 462 148 394 c 0
 148 358 163 329 198 329 c 0
 234 329 270 368 281 413 c 2
EndSplineSet
EndChar

StartChar: Lslash
Encoding: 321 321 140
Width: 476
Flags: MW
HStem: 0 102<169 415> 654 20G<161 278 278 278>
VStem: -9 443<102 195>
LayerCount: 2
Fore
SplineSet
415 0 m 1
 33 0 l 1
 81 251 l 1
 -9 195 l 1
 9 283 l 1
 98 339 l 1
 161 674 l 1
 278 674 l 1
 229 421 l 1
 369 509 l 1
 353 420 l 1
 212 332 l 1
 169 102 l 1
 434 102 l 1
 415 0 l 1
EndSplineSet
Position2: "'cpsp' Capital Spacing lookup 0 subtable" dx=10 dy=0 dh=20 dv=0
EndChar

StartChar: Oslash
Encoding: 216 216 141
Width: 686
Flags: MW
HStem: -11 97<307.5 362> -3 21G<28 28> 588 97<361.5 421.5> 655 20G<703 703>
VStem: 47 119 554 120
LayerCount: 2
Fore
SplineSet
84 -56 m 1xac
 28 -3 l 1
 102 85 l 1
 67 133 47 191 47 273 c 0
 47 393 92 508 168 585 c 0
 232 648 317 685 406 685 c 0
 475 685 526 669 567 636 c 1
 642 723 l 1x6c
 703 675 l 1
 624 582 l 1x9c
 657 538 674 478 674 404 c 0
 675 284 629 164 555 88 c 0
 494 26 406 -11 318 -11 c 0
 253 -11 203 4 163 36 c 1
 84 -56 l 1xac
186 183 m 1
 498 552 l 1
 475 575 445 588 398 588 c 0
 298 588 216 503 183 397 c 0
 162 329 159 252 183 183 c 1
 186 183 l 1
538 480 m 1
 232 119 l 1
 255 97 285 86 330 86 c 0xac
 422 86 500 162 535 267 c 0
 556 330 563 407 541 480 c 1
 538 480 l 1
EndSplineSet
Position2: "'cpsp' Capital Spacing lookup 0 subtable" dx=10 dy=0 dh=20 dv=0
EndChar

StartChar: OE
Encoding: 338 338 142
Width: 890
Flags: MW
HStem: -9 98<294.5 347> 0 99<457 825 549 807> 299 99<605 834 586 852> 575 99<638 901 638 638> 585 98<358.5 464>
VStem: 44 124<228 362.5 228 383>
LayerCount: 2
Fore
SplineSet
825 99 m 1x74
 807 0 l 1
 466 0 l 2x74
 448 0 431 -2 408 -4 c 0
 386 -8 362 -9 332 -9 c 0
 142 -9 44 117 44 275 c 0
 44 491 191 683 454 683 c 0xac
 492 683 514 680 537 678 c 0
 565 676 583 674 605 674 c 2
 920 674 l 1
 901 575 l 1
 638 575 l 1
 605 398 l 1
 852 398 l 1
 834 299 l 1
 586 299 l 1
 549 99 l 1
 825 99 l 1x74
432 97 m 1xac
 522 576 l 1
 504 582 483 585 445 585 c 0
 272 585 168 442 168 283 c 0
 168 173 229 89 360 89 c 0
 387 89 409 92 432 97 c 1xac
EndSplineSet
Position2: "'cpsp' Capital Spacing lookup 0 subtable" dx=10 dy=0 dh=20 dv=0
EndChar

StartChar: ordmasculine
Encoding: 186 186 143
Width: 366
Flags: MW
HStem: 261 63<185 228.5 185 248.5> 528 63<206 256.5>
VStem: 53 89<373.5 427.5 373.5 453.5> 293 90<422.5 475>
LayerCount: 2
Fore
SplineSet
239 591 m 0
 330 591 383 532 383 454 c 0
 383 341 303 261 194 261 c 0
 108 261 53 322 53 396 c 0
 53 511 135 591 239 591 c 0
233 528 m 0
 179 528 142 459 142 396 c 0
 142 351 167 324 203 324 c 0
 254 324 293 387 293 458 c 0
 293 492 280 528 233 528 c 0
EndSplineSet
EndChar

StartChar: ae
Encoding: 230 230 144
Width: 743
Flags: MW
HStem: -11 92<495.5 523.5> 217 82 236 78<307 319> 413 85<221 273.5>
VStem: 5 117<119 179.5 119 188> 614 113<330 374>
LayerCount: 2
Fore
SplineSet
656 113 m 1xdc
 663 30 l 1
 617 3 554 -11 493 -11 c 0
 419 -11 357 24 333 85 c 1
 330 85 l 1
 290 26 225 -11 147 -11 c 0
 59 -11 5 47 5 119 c 0
 5 257 158 318 319 314 c 1xbc
 322 329 l 2
 328 362 310 413 237 413 c 0
 183 413 140 395 105 372 c 1
 85 448 l 1
 130 477 191 498 251 498 c 0
 326 498 376 466 393 408 c 1
 396 408 l 1
 435 466 502 498 573 498 c 0
 679 498 727 433 727 372 c 0
 727 233 581 210 407 217 c 1
 403 188 403 159 414 134 c 0
 433 100 471 81 520 81 c 0
 582 81 618 96 656 113 c 1xdc
298 187 m 2
 307 236 l 1
 238 238 122 222 122 137 c 0
 122 101 146 79 184 79 c 0
 234 79 285 117 298 187 c 2
614 361 m 0xdc
 614 387 593 412 552 412 c 0
 478 412 432 344 421 299 c 1
 522 295 614 299 614 361 c 0xdc
EndSplineSet
EndChar

StartChar: dotlessi
Encoding: 305 305 145
Width: 249
Flags: MW
HStem: 0 21G<20 136 20 20> 467 20G<112 229 229 229>
VStem: 20 209
LayerCount: 2
Fore
SplineSet
136 0 m 1
 20 0 l 1
 112 487 l 1
 229 487 l 1
 136 0 l 1
EndSplineSet
EndChar

StartChar: lslash
Encoding: 322 322 146
Width: 260
Flags: MW
HStem: 0 21G<26 142 26 26> 470 20G<305 305> 690 20G<162 278 278 278>
VStem: 0 305<201 490>
LayerCount: 2
Fore
SplineSet
142 0 m 1
 26 0 l 1
 74 253 l 1
 0 201 l 1
 17 291 l 1
 91 343 l 1
 162 710 l 1
 278 710 l 1
 225 435 l 1
 305 490 l 1
 288 400 l 1
 208 344 l 1
 142 0 l 1
EndSplineSet
EndChar

StartChar: oslash
Encoding: 248 248 147
Width: 543
Flags: MW
HStem: -11 86<235 290 235 313> 412 86<251 311>
VStem: 32 119 394 119<275 285.5>
LayerCount: 2
Fore
SplineSet
55 -48 m 1
 19 -12 l 1
 78 57 l 1
 47 92 32 139 32 194 c 0
 32 356 148 498 311 498 c 0
 359 498 397 486 426 466 c 1
 484 533 l 1
 523 499 l 1
 466 432 l 1
 499 393 513 342 513 297 c 0
 513 118 387 -11 239 -11 c 0
 185 -11 147 1 116 23 c 1
 55 -48 l 1
163 151 m 1
 359 388 l 1
 345 403 325 412 297 412 c 0
 205 412 152 291 151 212 c 0
 150 188 153 169 161 152 c 1
 163 151 l 1
382 335 m 1
 184 101 l 1
 200 84 221 75 249 75 c 0
 331 75 393 183 394 275 c 0
 394 296 391 316 385 335 c 1
 382 335 l 1
EndSplineSet
EndChar

StartChar: oe
Encoding: 339 339 148
Width: 814
Flags: MW
HStem: -11 91<215 258> 204 86 409 89<251.5 332>
VStem: 31 120<162.5 244.5 162.5 278> 387 96 689 109<328 373.5>
LayerCount: 2
Fore
SplineSet
727 113 m 1
 737 30 l 1
 691 3 627 -11 571 -11 c 0
 499 -11 436 19 407 88 c 1
 405 88 l 1
 361 20 293 -11 223 -11 c 0
 108 -11 31 73 31 194 c 0
 31 362 146 498 296 498 c 0
 375 498 432 460 456 397 c 1
 458 397 l 1
 501 461 572 498 645 498 c 0
 753 498 798 429 798 368 c 0
 798 227 637 202 483 204 c 1
 479 180 483 152 494 131 c 0
 513 101 548 82 597 82 c 0
 653 82 693 96 727 113 c 1
243 80 m 0
 335 80 387 208 387 295 c 0
 387 353 366 409 298 409 c 0
 205 409 151 292 151 197 c 0
 151 128 187 80 243 80 c 0
689 359 m 0
 689 388 667 411 623 411 c 0
 555 411 510 345 495 290 c 1
 591 289 689 297 689 359 c 0
EndSplineSet
EndChar

StartChar: germandbls
Encoding: 223 223 149
Width: 561
Flags: MW
HStem: -11 91<288 326 288 358.5> 0 21G<20 136 20 20> 627 94<326 383>
VStem: 309 120<363.5 387.5> 389 118<134.5 170> 432 115<547.5 574.5>
LayerCount: 2
Fore
SplineSet
136 0 m 1x64
 20 0 l 1
 106 454 l 2
 135 609 212 721 373 721 c 0
 476 721 547 659 547 568 c 0x64
 547 527 529 487 505 464 c 1
 465 446 429 420 429 378 c 0xb0
 429 349 441 327 460 300 c 0
 485 264 507 219 507 172 c 0
 507 49 415 -11 302 -11 c 0
 257 -11 218 -1 196 12 c 1
 225 98 l 1
 246 86 276 80 300 80 c 0
 352 80 389 110 389 159 c 0xa8
 389 181 382 204 357 240 c 0
 326 283 309 316 309 355 c 0xb0
 309 420 357 469 413 496 c 1
 423 507 432 526 432 556 c 0
 432 593 409 627 357 627 c 0
 295 627 245 575 224 463 c 2
 136 0 l 1x64
EndSplineSet
EndChar

StartChar: onesuperior
Encoding: 185 185 150
Width: 253
Flags: MW
HStem: 406 390<221 230 135 304> 716 80<192 304 192 304>
VStem: 109 195<750 796>
LayerCount: 2
Fore
SplineSet
230 406 m 1xa0
 135 406 l 1
 194 716 l 1
 192 716 l 1
 117 684 l 1
 109 750 l 1
 221 796 l 1
 304 796 l 1x60
 230 406 l 1xa0
EndSplineSet
EndChar

StartChar: logicalnot
Encoding: 172 172 151
Width: 596
Flags: MW
HStem: 334 78<41 466 41 547>
VStem: 466 81<112 334 334 334>
LayerCount: 2
Fore
SplineSet
41 412 m 1
 547 412 l 1
 547 112 l 1
 466 112 l 1
 466 334 l 1
 41 334 l 1
 41 412 l 1
EndSplineSet
EndChar

StartChar: mu
Encoding: 181 181 152
Width: 543
Flags: MW
HStem: -198 21G<-5 100 -5 -5> -11 21G<404.5 437.5> -8 92<206 244.5> 467 20G<107 223 223 223 407 524 524 524>
VStem: -5 105<-198 -198> 351 106
LayerCount: 2
Fore
SplineSet
223 487 m 1xbc
 170 207 l 2
 155 126 176 84 236 84 c 0
 279 84 319 131 339 173 c 0xbc
 347 187 353 203 356 220 c 2
 407 487 l 1
 524 487 l 1
 461 151 l 2
 450 98 461 83 490 81 c 1
 466 -5 l 1
 456 -8 447 -11 428 -11 c 0xdc
 381 -11 352 15 351 84 c 1
 347 84 l 1
 319 34 275 -8 214 -8 c 0
 178 -8 146 6 131 35 c 1
 121 -19 l 2
 111 -71 98 -158 100 -198 c 1
 -5 -198 l 1
 -10 -173 -3 -97 12 -18 c 2
 107 487 l 1
 223 487 l 1xbc
EndSplineSet
EndChar

StartChar: trademark
Encoding: 8482 8482 153
Width: 685
Flags: MW
HStem: 617 57<104 185 104 337 255 337 255 255> 632 42<432 436 432 432 619 623 619 619>
VStem: 185 70<401 617 401 617> 364.5 67.5 627.5 63.5
LayerCount: 2
Fore
SplineSet
104 674 m 1xb8
 337 674 l 1
 337 617 l 1
 255 617 l 1
 255 401 l 1
 185 401 l 1
 185 617 l 1
 104 617 l 1
 104 674 l 1xb8
700 401 m 1
 631 401 l 1
 624 539 l 2
 623 565 624 596 623 632 c 1
 619 632 l 1
 611 601 603 565 596 537 c 2
 558 406 l 1
 490 406 l 1
 454 539 l 2
 449 563 442 601 436 632 c 1
 432 632 l 1
 431 600 431 568 429 539 c 2x78
 422 401 l 1
 355 401 l 1
 374 674 l 1
 481 674 l 1
 512 577 l 2
 517 557 522 536 529 498 c 1
 530 498 l 1
 537 527 543 553 549 577 c 2
 581 674 l 1
 682 674 l 1
 700 401 l 1
EndSplineSet
EndChar

StartChar: Eth
Encoding: 208 208 154
Width: 676
Flags: MW
HStem: -4 95<232 279> 301 96<12 110 31 92 228 355> 585 94<324.5 392 308 409>
VStem: 537 126<354 446.5 337.5 453>
LayerCount: 2
Fore
SplineSet
12 301 m 1
 31 397 l 1
 110 397 l 1
 161 664 l 1
 218 674 277 679 339 679 c 0
 445 679 532 653 584 601 c 1
 632 559 663 492 663 401 c 0
 663 274 609 158 523 88 c 0
 447 26 347 -4 211 -4 c 0
 137 -4 74 1 36 7 c 1
 92 301 l 1
 12 301 l 1
374 397 m 1
 355 301 l 1
 209 301 l 1
 170 96 l 1
 192 92 218 91 246 91 c 0
 329 91 405 121 455 175 c 0
 508 231 537 312 537 396 c 0
 537 510 479 585 339 585 c 0
 310 585 284 583 262 580 c 1
 228 397 l 1
 374 397 l 1
EndSplineSet
Position2: "'cpsp' Capital Spacing lookup 0 subtable" dx=10 dy=0 dh=20 dv=0
EndChar

StartChar: onehalf
Encoding: 189 189 155
Width: 793
Flags: MW
HStem: 0 72<565 703> 321 74<599 614> 576 80<182 293 182 293>
VStem: 649 101<251.5 287>
LayerCount: 2
Fore
SplineSet
219 266 m 1
 124 266 l 1
 184 576 l 1
 182 576 l 1
 107 544 l 1
 99 610 l 1
 211 656 l 1
 293 656 l 1
 219 266 l 1
166 -11 m 1
 91 -11 l 1
 580 661 l 1
 655 661 l 1
 166 -11 l 1
703 0 m 1
 418 0 l 1
 427 49 l 1
 501 107 l 2
 589 174 649 224 649 275 c 0
 649 299 634 321 594 321 c 0
 562 321 529 306 507 292 c 1
 491 352 l 1
 525 377 573 395 625 395 c 0
 698 395 750 356 750 291 c 0
 750 212 673 154 596 98 c 2
 565 74 l 1
 565 72 l 1
 717 72 l 1
 703 0 l 1
EndSplineSet
Ligature2: "'frac' Diagonal Fractions lookup 10 subtable" one.numerator slash.frac two.numerator
Ligature2: "'frac' Diagonal Fractions lookup 10 subtable" one.numerator uni2215 two.numerator
Ligature2: "'frac' Diagonal Fractions lookup 10 subtable" one.numerator fraction two.numerator
EndChar

StartChar: plusminus
Encoding: 177 177 156
Width: 596
Flags: MW
HStem: 0 78<45 551 45 551> 315 78<45 257 45 257 339 551>
VStem: 257 82<128 315 128 315 393 576>
LayerCount: 2
Fore
SplineSet
257 576 m 1
 339 576 l 1
 339 393 l 1
 551 393 l 1
 551 315 l 1
 339 315 l 1
 339 128 l 1
 257 128 l 1
 257 315 l 1
 45 315 l 1
 45 393 l 1
 257 393 l 1
 257 576 l 1
45 78 m 1
 551 78 l 1
 551 0 l 1
 45 0 l 1
 45 78 l 1
EndSplineSet
EndChar

StartChar: Thorn
Encoding: 222 222 157
Width: 535
Flags: MW
HStem: 0 21G<24 24 24 138> 138 95<235.5 290.5 235.5 312> 460 94<300 324.5> 460 214<152 324.5> 654 20G<152 266 266 266>
VStem: 407 117<326 398.5>
LayerCount: 2
Fore
SplineSet
24 0 m 1xec
 152 674 l 1
 266 674 l 1
 242 548 l 1
 261 551 285 554 315 554 c 0
 380 554 434 539 472 504 c 0
 507 473 524 431 524 382 c 0
 524 216 387 138 237 138 c 0
 208 138 184 140 166 143 c 1
 138 0 l 1
 24 0 l 1xec
224 454 m 1xd4
 184 238 l 1
 202 235 224 233 247 233 c 0
 334 233 407 286 407 366 c 0
 407 431 360 460 289 460 c 0
 263 460 237 457 224 454 c 1xd4
EndSplineSet
Position2: "'cpsp' Capital Spacing lookup 0 subtable" dx=10 dy=0 dh=20 dv=0
EndChar

StartChar: onequarter
Encoding: 188 188 158
Width: 793
Flags: MW
HStem: 97 63<505 587 687 727> 321 72<631 633 631 631> 576 80<188 300 188 300>
VStem: 105 634<160 610>
LayerCount: 2
Fore
SplineSet
225 266 m 1
 131 266 l 1
 190 576 l 1
 188 576 l 1
 113 544 l 1
 105 610 l 1
 217 656 l 1
 300 656 l 1
 225 266 l 1
184 -11 m 1
 110 -11 l 1
 599 661 l 1
 673 661 l 1
 184 -11 l 1
656 0 m 1
 568 0 l 1
 587 97 l 1
 403 97 l 1
 413 150 l 1
 623 393 l 1
 731 393 l 1
 687 160 l 1
 739 160 l 1
 727 97 l 1
 674 97 l 1
 656 0 l 1
599 160 m 1
 616 251 l 2
 621 275 628 300 633 321 c 1
 631 321 l 1
 614 297 599 274 584 255 c 2
 505 162 l 1
 505 160 l 1
 599 160 l 1
EndSplineSet
Ligature2: "'frac' Diagonal Fractions lookup 10 subtable" one.numerator slash.frac four.numerator
Ligature2: "'frac' Diagonal Fractions lookup 10 subtable" one.numerator uni2215 four.numerator
Ligature2: "'frac' Diagonal Fractions lookup 10 subtable" one.numerator fraction four.numerator
EndChar

StartChar: divide
Encoding: 247 247 159
Width: 596
Flags: MW
HStem: 26 131<283 321.5> 228 78<49 555 49 555> 377 131<283 321.5>
VStem: 238 128<72 91 72 111 423 442>
LayerCount: 2
Fore
SplineSet
302 377 m 0
 264 377 238 404 238 442 c 0
 238 482 264 508 302 508 c 0
 341 508 365 482 366 442 c 0
 366 404 341 377 302 377 c 0
555 228 m 1
 49 228 l 1
 49 306 l 1
 555 306 l 1
 555 228 l 1
302 26 m 0
 264 26 238 53 238 91 c 0
 238 131 264 157 302 157 c 0
 341 157 365 131 366 91 c 0
 366 53 341 26 302 26 c 0
EndSplineSet
EndChar

StartChar: brokenbar
Encoding: 166 166 160
Width: 229
Flags: MW
HStem: -176 850<91 173 91 173>
VStem: 91 82<-176 174 -176 174 324 674>
LayerCount: 2
Fore
SplineSet
91 174 m 1
 173 174 l 1
 173 -176 l 1
 91 -176 l 1
 91 174 l 1
91 674 m 1
 173 674 l 1
 173 324 l 1
 91 324 l 1
 91 674 l 1
EndSplineSet
EndChar

StartChar: degree
Encoding: 176 176 161
Width: 339
Flags: MW
HStem: 407 59<206.5 248.5 206.5 262> 626 59<207.5 255>
VStem: 86 69<521 563 521 581> 301 69<526 567.5>
LayerCount: 2
Fore
SplineSet
231 685 m 0
 316 685 370 623 370 551 c 0
 370 467 299 407 225 407 c 0
 143 407 86 467 86 542 c 0
 86 620 152 685 231 685 c 0
230 626 m 0
 185 626 155 583 155 543 c 0
 155 499 186 466 227 466 c 0
 270 466 301 503 301 549 c 0
 301 586 280 626 230 626 c 0
EndSplineSet
EndChar

StartChar: thorn
Encoding: 254 254 162
Width: 547
Flags: MW
HStem: -198 21G<-21 -21 -21 95> -11 89<216 276 214.5 314> 403 95<330.5 347> 690 20G<150 267 267 267>
VStem: 395 122<251.5 317 228 330>
LayerCount: 2
Fore
SplineSet
-21 -198 m 1
 150 710 l 1
 267 710 l 1
 210 415 l 1
 212 415 l 1
 244 463 298 498 363 498 c 0
 467 498 518 416 517 317 c 0
 517 139 394 -11 234 -11 c 0
 198 -11 159 -3 137 10 c 1
 134 10 l 1
 95 -198 l 1
 -21 -198 l 1
173 218 m 2
 152 102 l 1
 169 88 199 78 230 78 c 0
 322 78 395 196 395 307 c 0
 395 353 375 403 319 403 c 0
 261 403 196 339 173 218 c 2
EndSplineSet
EndChar

StartChar: threequarters
Encoding: 190 190 163
Width: 793
Flags: MW
HStem: 97 63<516 598 698 738> 261 67<137.5 181 137.5 209> 321 72<642 645 642 642> 444 57<143 151 132 161> 594 67<207 222.5>
VStem: 238 98<372 388 348 407.5> 256 99<548 567.5>
LayerCount: 2
Fore
SplineSet
117 566 m 1xdc
 107 626 l 1
 135 646 181 661 233 661 c 0
 304 661 355 623 355 572 c 0xba
 355 524 313 491 260 476 c 1
 260 474 l 1
 301 466 337 434 336 388 c 0
 336 308 258 261 160 261 c 0
 109 261 61 274 35 292 c 1
 65 355 l 1
 83 342 119 328 156 328 c 0
 206 328 238 355 238 389 c 0
 238 426 199 444 151 444 c 2xdc
 132 444 l 1
 143 501 l 1
 161 501 l 2
 205 501 256 521 256 557 c 0
 256 578 241 594 204 594 c 0xda
 173 594 137 580 117 566 c 1xdc
217 -11 m 1
 143 -11 l 1
 632 661 l 1
 706 661 l 1
 217 -11 l 1
667 0 m 1
 579 0 l 1
 598 97 l 1
 414 97 l 1
 424 150 l 1
 634 393 l 1
 742 393 l 1
 698 160 l 1
 751 160 l 1
 738 97 l 1
 686 97 l 1
 667 0 l 1
610 160 m 1
 628 251 l 2
 632 275 639 300 645 321 c 1
 642 321 l 1
 626 297 610 274 596 255 c 2
 516 162 l 1
 516 160 l 1
 610 160 l 1
EndSplineSet
Ligature2: "'frac' Diagonal Fractions lookup 10 subtable" three.numerator slash.frac four.numerator
Ligature2: "'frac' Diagonal Fractions lookup 10 subtable" three.numerator uni2215 four.numerator
Ligature2: "'frac' Diagonal Fractions lookup 10 subtable" three.numerator fraction four.numerator
EndChar

StartChar: twosuperior
Encoding: 178 178 164
Width: 322
Flags: MW
HStem: 406 72<193 331> 727 74<227 242>
VStem: 277 101<657.5 693>
LayerCount: 2
Fore
SplineSet
331 406 m 1
 45 406 l 1
 55 455 l 1
 129 513 l 2
 217 580 277 630 277 681 c 0
 277 705 262 727 222 727 c 0
 190 727 157 712 135 698 c 1
 118 758 l 1
 153 783 201 801 253 801 c 0
 325 801 378 762 378 697 c 0
 378 618 301 560 224 504 c 2
 193 480 l 1
 193 478 l 1
 345 478 l 1
 331 406 l 1
EndSplineSet
EndChar

StartChar: registered
Encoding: 174 174 165
Width: 403
Flags: MW
HStem: 346 39<220.5 293 220.5 305.5> 493 31<233 250 234 250 234 250> 567 32<249 263> 646 38<220 292.5>
VStem: 83 48<479 551 479 562.5> 189 44<432 493 432 593> 284 49<542.5 552> 382 48<479 551>
LayerCount: 2
Fore
SplineSet
233 493 m 1
 233 432 l 1
 189 432 l 1
 189 593 l 1
 201 595 226 599 256 599 c 0
 290 599 305 594 316 586 c 0
 326 579 333 567 333 551 c 0
 333 534 319 520 298 514 c 1
 298 512 l 1
 315 506 324 494 329 471 c 0
 334 448 338 438 340 432 c 1
 292 432 l 1
 287 438 284 452 280 469 c 0
 277 486 268 493 250 493 c 2
 233 493 l 1
234 566 m 1
 234 524 l 1
 250 524 l 2
 270 524 284 531 284 545 c 0
 284 559 273 567 253 567 c 0
 245 567 239 566 234 566 c 1
257 684 m 0
 354 684 430 609 430 516 c 0
 430 421 354 346 257 346 c 0
 160 346 83 421 83 516 c 0
 83 609 160 684 257 684 c 0
256 646 m 0
 184 646 131 587 131 515 c 0
 131 443 184 385 257 385 c 0
 329 385 382 443 382 515 c 0
 382 587 329 646 256 646 c 0
EndSplineSet
EndChar

StartChar: minus
Encoding: 8722 8722 166
Width: 596
Flags: MW
HStem: 228 78<51 557 51 557>
VStem: 51 506<228 306 228 306>
LayerCount: 2
Fore
SplineSet
51 306 m 1
 557 306 l 1
 557 228 l 1
 51 228 l 1
 51 306 l 1
EndSplineSet
EndChar

StartChar: eth
Encoding: 240 240 167
Width: 539
Flags: MW
HStem: -11 90<210 284 210 309.5> 393 85 698 20G<230 230>
VStem: 29 121<159 189 159 267> 385 124
LayerCount: 2
Fore
SplineSet
240 79 m 0
 328 79 382 181 385 283 c 0
 386 313 385 332 373 352 c 0
 361 374 338 393 296 393 c 0
 208 393 149 284 150 189 c 0
 150 129 180 79 240 79 c 0
157 491 m 1
 138 543 l 1
 262 597 l 1
 239 618 207 638 176 652 c 1
 230 718 l 1
 282 697 323 671 363 639 c 1
 499 697 l 1
 519 646 l 1
 408 598 l 1
 469 534 509 443 509 332 c 0
 509 128 388 -11 231 -11 c 0
 98 -11 29 81 29 190 c 0
 29 344 142 475 287 478 c 0
 316 479 352 472 377 444 c 1
 380 446 l 1
 364 490 341 527 308 558 c 1
 157 491 l 1
EndSplineSet
EndChar

StartChar: multiply
Encoding: 215 215 168
Width: 596
Flags: MW
HStem: 0 526<102 103 103 498>
VStem: 48 505<56 470>
LayerCount: 2
Fore
SplineSet
48 470 m 1
 103 526 l 1
 301 316 l 1
 498 526 l 1
 553 470 l 1
 354 263 l 1
 553 56 l 1
 498 0 l 1
 300 209 l 1
 102 0 l 1
 49 57 l 1
 246 263 l 1
 48 470 l 1
EndSplineSet
EndChar

StartChar: threesuperior
Encoding: 179 179 169
Width: 315
Flags: MW
HStem: 401 67<154 197 154 226> 584 57<160 167 148 178> 734 67<223.5 239.5>
VStem: 254 99<528 547.5> 272 99<688 707.5>
LayerCount: 2
Fore
SplineSet
133 706 m 1xf0
 123 766 l 1
 152 786 198 801 249 801 c 0
 321 801 371 763 371 712 c 0xe8
 371 664 330 631 277 616 c 1
 277 614 l 1
 317 606 353 574 353 528 c 0
 352 448 275 401 177 401 c 0
 126 401 77 414 51 432 c 1
 81 495 l 1
 100 482 136 468 172 468 c 0
 222 468 254 495 254 529 c 0
 254 566 215 584 167 584 c 2xf0
 148 584 l 1
 160 641 l 1
 178 641 l 2
 221 641 272 661 272 697 c 0
 272 718 258 734 221 734 c 0xe8
 189 734 153 720 133 706 c 1xf0
EndSplineSet
EndChar

StartChar: copyright
Encoding: 169 169 170
Width: 674
Flags: MW
HStem: 30 50<292.5 430 292.5 446.5> 153 52<345 398> 468 52<344 409> 598 50<292.5 430>
VStem: 57 58<265.5 411 265.5 425> 194 62<300 376.5 300 391> 606 58<266 411.5>
LayerCount: 2
Fore
SplineSet
362 648 m 0
 531 648 664 510 664 340 c 0
 664 168 531 30 362 30 c 0
 192 30 57 168 57 340 c 0
 57 510 192 648 362 648 c 0
362 598 m 0
 223 598 115 484 115 338 c 0
 115 193 223 80 362 80 c 0
 498 80 606 193 606 339 c 0
 606 484 498 598 362 598 c 0
496 492 m 1
 483 444 l 1
 470 452 432 468 386 468 c 0
 302 468 256 416 256 337 c 0
 256 263 304 205 386 205 c 0
 427 205 465 216 488 231 c 1
 501 185 l 1
 466 161 419 153 377 153 c 0
 261 153 194 232 194 334 c 0
 194 448 286 520 386 520 c 0
 436 520 483 505 496 492 c 1
EndSplineSet
EndChar

StartChar: Aacute
Encoding: 193 193 171
Width: 596
Flags: MW
HStem: 0 21G<-28 96 -28 -28 419 419 419 541> 192 90<225 393 225 400 188 393> 578 96<362 364 362 362> 710 122<420 423 323 557>
VStem: -28 585
LayerCount: 2
Fore
SplineSet
400 192 m 1
 188 192 l 1
 96 0 l 1
 -28 0 l 1
 310 674 l 1
 456 674 l 1
 541 0 l 1
 419 0 l 1
 400 192 l 1
225 282 m 1
 393 282 l 1
 374 450 l 2
 371 486 367 538 364 578 c 1
 362 578 l 1
 344 538 326 490 307 450 c 2
 225 282 l 1
420 832 m 1
 557 832 l 1
 423 710 l 1
 323 710 l 1
 420 832 l 1
EndSplineSet
Position2: "'cpsp' Capital Spacing lookup 0 subtable" dx=10 dy=0 dh=20 dv=0
EndChar

StartChar: Acircumflex
Encoding: 194 194 172
Width: 596
Flags: MW
HStem: 0 21G<-28 96 -28 -28 419 419 419 541> 192 90<225 393 225 400 188 393> 578 96<362 364 362 362> 710 122<239 450 444 450 361 530 444 444>
VStem: -28 569<0 0>
LayerCount: 2
Fore
SplineSet
400 192 m 1
 188 192 l 1
 96 0 l 1
 -28 0 l 1
 310 674 l 1
 456 674 l 1
 541 0 l 1
 419 0 l 1
 400 192 l 1
225 282 m 1
 393 282 l 1
 374 450 l 2
 371 486 367 538 364 578 c 1
 362 578 l 1
 344 538 326 490 307 450 c 2
 225 282 l 1
361 832 m 1
 450 832 l 1
 530 710 l 1
 444 710 l 1
 399 776 l 1
 397 776 l 1
 333 710 l 1
 239 710 l 1
 361 832 l 1
EndSplineSet
Position2: "'cpsp' Capital Spacing lookup 0 subtable" dx=10 dy=0 dh=20 dv=0
EndChar

StartChar: Adieresis
Encoding: 196 196 173
Width: 596
Flags: MW
HStem: 0 21G<-28 96 -28 -28 419 419 419 541> 192 90<225 393 225 400 188 393> 578 96<362 364 362 362> 716 120<278.5 306 475.5 503>
VStem: 232 120<760.5 790.5> 429 120<760.5 790.5>
LayerCount: 2
Fore
SplineSet
400 192 m 1
 188 192 l 1
 96 0 l 1
 -28 0 l 1
 310 674 l 1
 456 674 l 1
 541 0 l 1
 419 0 l 1
 400 192 l 1
225 282 m 1
 393 282 l 1
 374 450 l 2
 371 486 367 538 364 578 c 1
 362 578 l 1
 344 538 326 490 307 450 c 2
 225 282 l 1
289 716 m 0
 258 716 232 739 232 772 c 0
 232 809 261 836 296 836 c 0
 330 836 352 810 352 779 c 0
 352 742 323 716 289 716 c 0
486 716 m 0
 455 716 429 739 429 772 c 0
 429 809 458 836 493 836 c 0
 527 836 549 810 549 779 c 0
 549 742 520 716 486 716 c 0
EndSplineSet
Position2: "'cpsp' Capital Spacing lookup 0 subtable" dx=10 dy=0 dh=20 dv=0
EndChar

StartChar: Agrave
Encoding: 192 192 174
Width: 596
Flags: MW
HStem: 0 21G<-28 96 -28 -28 419 419 419 541> 192 90<225 393 225 400 188 393> 578 96<362 364 362 362> 711 121<341 361 228 438 341 341>
VStem: -28 569<0 0>
LayerCount: 2
Fore
SplineSet
400 192 m 1
 188 192 l 1
 96 0 l 1
 -28 0 l 1
 310 674 l 1
 456 674 l 1
 541 0 l 1
 419 0 l 1
 400 192 l 1
225 282 m 1
 393 282 l 1
 374 450 l 2
 371 486 367 538 364 578 c 1
 362 578 l 1
 344 538 326 490 307 450 c 2
 225 282 l 1
228 832 m 1
 361 832 l 1
 438 711 l 1
 341 711 l 1
 228 832 l 1
EndSplineSet
Position2: "'cpsp' Capital Spacing lookup 0 subtable" dx=10 dy=0 dh=20 dv=0
EndChar

StartChar: Aring
Encoding: 197 197 175
Width: 596
Flags: MW
HStem: 0 21G<-28 96 -28 -28 419 419 419 541> 192 90<225 393 225 400 188 393> 578 96<362 364 362 362> 696 44<380.5 408.5 380.5 421.5> 839 43<384 412>
VStem: 289 62 442 63<792 804>
LayerCount: 2
Fore
SplineSet
400 192 m 1
 188 192 l 1
 96 0 l 1
 -28 0 l 1
 310 674 l 1
 456 674 l 1
 541 0 l 1
 419 0 l 1
 400 192 l 1
225 282 m 1
 393 282 l 1
 374 450 l 2
 371 486 367 538 364 578 c 1
 362 578 l 1
 344 538 326 490 307 450 c 2
 225 282 l 1
402 882 m 0
 461 882 505 849 505 792 c 0
 503 733 453 696 390 696 c 0xfe
 334 696 290 730 289 782 c 0
 288 841 336 882 402 882 c 0
398 839 m 0
 370 839 351 815 351 785 c 0
 351 760 367 740 394 740 c 0xfe
 423 740 442 762 442 790 c 0
 442 818 426 839 398 839 c 0
EndSplineSet
Position2: "'cpsp' Capital Spacing lookup 0 subtable" dx=10 dy=0 dh=20 dv=0
EndChar

StartChar: Atilde
Encoding: 195 195 176
Width: 596
Flags: MW
HStem: 0 21G<-28 96 -28 -28 419 419 419 541> 192 90<225 393 225 400 188 393> 578 96<362 364 362 362> 714 114<248 353 248 353> 720 69<436 451 436 467.5>
VStem: -28 569<0 0>
LayerCount: 2
Fore
SplineSet
400 192 m 1xec
 188 192 l 1
 96 0 l 1
 -28 0 l 1
 310 674 l 1
 456 674 l 1
 541 0 l 1
 419 0 l 1
 400 192 l 1xec
225 282 m 1
 393 282 l 1
 374 450 l 2
 371 486 367 538 364 578 c 1
 362 578 l 1
 344 538 326 490 307 450 c 2
 225 282 l 1
308 714 m 1xf4
 248 714 l 1
 260 787 295 828 339 828 c 0xf4
 367 828 383 819 401 808 c 0
 416 798 429 789 443 789 c 0
 459 789 469 801 477 831 c 1
 536 831 l 1
 524 755 492 720 443 720 c 0xec
 416 720 399 728 382 739 c 0
 366 749 356 758 341 757 c 0
 327 757 315 742 308 714 c 1xf4
EndSplineSet
Position2: "'cpsp' Capital Spacing lookup 0 subtable" dx=10 dy=0 dh=20 dv=0
EndChar

StartChar: Ccedilla
Encoding: 199 199 177
Width: 571
Flags: MW
HStem: -204 55<264 283 264 299> -8 21G<293 293> 584 101<412 473.5>
VStem: 49 126<230.5 336 230.5 343> 313 77<-128.5 -108.5>
LayerCount: 2
Fore
SplineSet
605 654 m 1
 571 560 l 1
 549 572 503 584 444 584 c 0
 380 584 318 562 272 522 c 0
 213 470 175 385 175 287 c 0
 175 174 233 89 366 89 c 0
 415 89 465 98 501 115 c 1
 512 20 l 1
 479 6 427 -7 358 -10 c 1
 332 -47 l 1
 366 -55 390 -79 390 -113 c 0
 390 -178 326 -204 272 -204 c 0
 241 -204 215 -196 199 -184 c 1
 221 -133 l 1
 236 -143 255 -149 273 -149 c 0
 293 -149 313 -139 313 -118 c 0
 313 -99 293 -85 244 -81 c 1
 293 -8 l 1
 143 9 49 113 49 273 c 0
 49 413 109 532 207 605 c 0
 277 658 361 685 458 685 c 0
 532 685 586 667 605 654 c 1
EndSplineSet
Position2: "'cpsp' Capital Spacing lookup 0 subtable" dx=10 dy=0 dh=20 dv=0
EndChar

StartChar: Eacute
Encoding: 201 201 178
Width: 496
Flags: MW
HStem: 0 99<160 413> 300 98<216 440 198 459> 575 99<250 507 250 250> 710 122<378 381 281 515>
VStem: 24 502
LayerCount: 2
Fore
SplineSet
459 398 m 1
 440 300 l 1
 198 300 l 1
 160 99 l 1
 432 99 l 1
 413 0 l 1
 24 0 l 1
 152 674 l 1
 526 674 l 1
 507 575 l 1
 250 575 l 1
 216 398 l 1
 459 398 l 1
378 832 m 1
 515 832 l 1
 381 710 l 1
 281 710 l 1
 378 832 l 1
EndSplineSet
Position2: "'cpsp' Capital Spacing lookup 0 subtable" dx=10 dy=0 dh=20 dv=0
EndChar

StartChar: Ecircumflex
Encoding: 202 202 179
Width: 496
Flags: MW
HStem: 0 99<160 413> 300 98<216 440 198 459> 575 99<250 507 250 250> 710 122<199 410 404 410 321 490 404 404>
VStem: 24 502
LayerCount: 2
Fore
SplineSet
459 398 m 1
 440 300 l 1
 198 300 l 1
 160 99 l 1
 432 99 l 1
 413 0 l 1
 24 0 l 1
 152 674 l 1
 526 674 l 1
 507 575 l 1
 250 575 l 1
 216 398 l 1
 459 398 l 1
321 832 m 1
 410 832 l 1
 490 710 l 1
 404 710 l 1
 359 776 l 1
 357 776 l 1
 293 710 l 1
 199 710 l 1
 321 832 l 1
EndSplineSet
Position2: "'cpsp' Capital Spacing lookup 0 subtable" dx=10 dy=0 dh=20 dv=0
EndChar

StartChar: Edieresis
Encoding: 203 203 180
Width: 496
Flags: MW
HStem: 0 99<160 413> 300 98<216 440 198 459> 575 99<250 507 250 250> 716 120<244 272 441 469>
VStem: 198 120<760.5 790.5> 395 120<760.5 790.5>
LayerCount: 2
Fore
SplineSet
459 398 m 1
 440 300 l 1
 198 300 l 1
 160 99 l 1
 432 99 l 1
 413 0 l 1
 24 0 l 1
 152 674 l 1
 526 674 l 1
 507 575 l 1
 250 575 l 1
 216 398 l 1
 459 398 l 1
255 716 m 0
 224 716 198 739 198 772 c 0
 198 809 226 836 262 836 c 0
 296 836 318 810 318 779 c 0
 318 742 289 716 255 716 c 0
452 716 m 0
 421 716 395 739 395 772 c 0
 395 809 423 836 459 836 c 0
 492 836 515 810 515 779 c 0
 515 742 486 716 452 716 c 0
EndSplineSet
Position2: "'cpsp' Capital Spacing lookup 0 subtable" dx=10 dy=0 dh=20 dv=0
EndChar

StartChar: Egrave
Encoding: 200 200 181
Width: 496
Flags: MW
HStem: 0 99<160 413> 300 98<216 440 198 459> 575 99<250 507 250 250> 711 121<316 336 203 412 316 316>
VStem: 24 502
LayerCount: 2
Fore
SplineSet
459 398 m 1
 440 300 l 1
 198 300 l 1
 160 99 l 1
 432 99 l 1
 413 0 l 1
 24 0 l 1
 152 674 l 1
 526 674 l 1
 507 575 l 1
 250 575 l 1
 216 398 l 1
 459 398 l 1
203 832 m 1
 336 832 l 1
 412 711 l 1
 316 711 l 1
 203 832 l 1
EndSplineSet
Position2: "'cpsp' Capital Spacing lookup 0 subtable" dx=10 dy=0 dh=20 dv=0
EndChar

StartChar: Iacute
Encoding: 205 205 182
Width: 256
Flags: MW
HStem: 0 21G<22 139 22 22> 654 20G<150 267 267 267> 710 122<248 251 150 385>
VStem: 22 363
LayerCount: 2
Fore
SplineSet
150 674 m 1
 267 674 l 1
 139 0 l 1
 22 0 l 1
 150 674 l 1
248 832 m 1
 385 832 l 1
 251 710 l 1
 150 710 l 1
 248 832 l 1
EndSplineSet
Position2: "'cpsp' Capital Spacing lookup 0 subtable" dx=10 dy=0 dh=20 dv=0
EndChar

StartChar: Icircumflex
Encoding: 206 206 183
Width: 256
Flags: MW
HStem: 0 21G<22 139 22 22> 654 20G<150 267 267 267> 710 122<63 274 268 274 185 354 268 268>
VStem: 22 332
LayerCount: 2
Fore
SplineSet
150 674 m 1
 267 674 l 1
 139 0 l 1
 22 0 l 1
 150 674 l 1
185 832 m 1
 274 832 l 1
 354 710 l 1
 268 710 l 1
 224 776 l 1
 222 776 l 1
 157 710 l 1
 63 710 l 1
 185 832 l 1
EndSplineSet
Position2: "'cpsp' Capital Spacing lookup 0 subtable" dx=10 dy=0 dh=20 dv=0
EndChar

StartChar: Idieresis
Encoding: 207 207 184
Width: 256
Flags: MW
HStem: 0 21G<22 139 22 22> 654 20G<150 267 267 267> 716 120<110.5 139 307.5 336>
VStem: 65 120<760.5 790.5> 262 120<760.5 790.5>
LayerCount: 2
Fore
SplineSet
150 674 m 1
 267 674 l 1
 139 0 l 1
 22 0 l 1
 150 674 l 1
122 716 m 0
 91 716 65 739 65 772 c 0
 65 809 93 836 128 836 c 0
 162 836 185 810 185 779 c 0
 185 742 156 716 122 716 c 0
319 716 m 0
 288 716 262 739 262 772 c 0
 262 809 290 836 325 836 c 0
 359 836 382 810 382 779 c 0
 382 742 353 716 319 716 c 0
EndSplineSet
Position2: "'cpsp' Capital Spacing lookup 0 subtable" dx=10 dy=0 dh=20 dv=0
EndChar

StartChar: Igrave
Encoding: 204 204 185
Width: 256
Flags: MW
HStem: 0 21G<22 139 22 22> 654 20G<150 267 267 267> 711 121<182 202 69 278 182 182>
VStem: 22 256
LayerCount: 2
Fore
SplineSet
150 674 m 1
 267 674 l 1
 139 0 l 1
 22 0 l 1
 150 674 l 1
69 832 m 1
 202 832 l 1
 278 711 l 1
 182 711 l 1
 69 832 l 1
EndSplineSet
Position2: "'cpsp' Capital Spacing lookup 0 subtable" dx=10 dy=0 dh=20 dv=0
EndChar

StartChar: Ntilde
Encoding: 209 209 186
Width: 651
Flags: MW
HStem: 0 21G<24 133 24 24 416 416 416 535> 0 150<416 467 465 467 465 535> 536 138<231 231> 654 20G<152 286 286 286 553 663 663 663> 715 115<284 389 284 389> 722 69<472 487 472 503.5>
VStem: 24 639
LayerCount: 2
Fore
SplineSet
133 0 m 1x96
 24 0 l 1
 152 674 l 1
 286 674 l 1
 404 361 l 2
 433 279 450 217 465 150 c 1
 467 150 l 1x5a
 471 216 479 281 497 378 c 2
 553 674 l 1
 663 674 l 1
 535 0 l 1
 416 0 l 1
 295 319 l 2
 264 407 247 462 231 536 c 1
 227 535 l 1xa6
 220 471 206 388 188 288 c 2
 133 0 l 1x96
344 715 m 1
 284 715 l 1
 295 789 330 830 375 830 c 0x9a
 403 830 419 821 436 810 c 0
 451 799 465 791 479 791 c 0
 495 791 504 803 513 833 c 1
 572 833 l 1
 560 756 528 722 479 722 c 0x96
 452 722 435 730 418 740 c 0
 401 750 391 759 376 759 c 0
 362 758 350 744 344 715 c 1
EndSplineSet
Position2: "'cpsp' Capital Spacing lookup 0 subtable" dx=10 dy=0 dh=20 dv=0
EndChar

StartChar: Oacute
Encoding: 211 211 187
Width: 688
Flags: MW
HStem: -11 98<273.5 354.5 273.5 362> 587 98<371 459> 712 123<461 463 363 598>
VStem: 48 123<222 316.5 222 327> 552 124<359.5 446.5>
LayerCount: 2
Fore
SplineSet
411 685 m 0
 591 685 676 560 676 406 c 0
 676 286 633 162 554 84 c 0
 493 24 411 -11 313 -11 c 0
 139 -11 48 116 48 267 c 0
 48 387 93 513 174 591 c 0
 235 650 320 685 411 685 c 0
397 587 m 0
 345 587 300 565 264 529 c 0
 205 470 171 360 171 273 c 0
 171 171 217 87 330 87 c 0
 379 87 426 108 461 144 c 0
 519 202 552 317 552 402 c 0
 552 491 521 587 397 587 c 0
461 835 m 1xf8
 598 835 l 1
 463 712 l 1
 363 712 l 1
 461 835 l 1xf8
EndSplineSet
Position2: "'cpsp' Capital Spacing lookup 0 subtable" dx=10 dy=0 dh=20 dv=0
EndChar

StartChar: Ocircumflex
Encoding: 212 212 188
Width: 688
Flags: MW
HStem: -11 98<273.5 354.5 273.5 362> 587 98<371 459> 710 122<276 487 481 487 398 567 481 481>
VStem: 48 123<222 316.5 222 327> 552 124<359.5 446.5>
LayerCount: 2
Fore
SplineSet
411 685 m 0
 591 685 676 560 676 406 c 0
 676 286 633 162 554 84 c 0
 493 24 411 -11 313 -11 c 0
 139 -11 48 116 48 267 c 0
 48 387 93 513 174 591 c 0
 235 650 320 685 411 685 c 0
397 587 m 0
 345 587 300 565 264 529 c 0
 205 470 171 360 171 273 c 0
 171 171 217 87 330 87 c 0
 379 87 426 108 461 144 c 0
 519 202 552 317 552 402 c 0
 552 491 521 587 397 587 c 0
398 832 m 1xf8
 487 832 l 1
 567 710 l 1
 481 710 l 1
 437 776 l 1
 435 776 l 1
 370 710 l 1
 276 710 l 1
 398 832 l 1xf8
EndSplineSet
Position2: "'cpsp' Capital Spacing lookup 0 subtable" dx=10 dy=0 dh=20 dv=0
EndChar

StartChar: Odieresis
Encoding: 214 214 189
Width: 688
Flags: MW
HStem: -11 98<273.5 354.5 273.5 362> 587 98<371 459> 716 120<325.5 353 522 550>
VStem: 48 123<222 316.5 222 327> 279 120<760.5 790.5> 476 120<760.5 790.5> 552 124<359.5 446.5>
LayerCount: 2
Fore
SplineSet
411 685 m 0xfa
 591 685 676 560 676 406 c 0
 676 286 633 162 554 84 c 0
 493 24 411 -11 313 -11 c 0
 139 -11 48 116 48 267 c 0
 48 387 93 513 174 591 c 0
 235 650 320 685 411 685 c 0xfa
397 587 m 0
 345 587 300 565 264 529 c 0
 205 470 171 360 171 273 c 0
 171 171 217 87 330 87 c 0
 379 87 426 108 461 144 c 0
 519 202 552 317 552 402 c 0
 552 491 521 587 397 587 c 0
336 716 m 0
 305 716 279 739 279 772 c 0
 279 809 308 836 343 836 c 0
 377 836 399 810 399 779 c 0
 399 742 370 716 336 716 c 0
533 716 m 0xfc
 502 716 476 739 476 772 c 0
 476 809 504 836 540 836 c 0
 574 836 596 810 596 779 c 0
 596 742 567 716 533 716 c 0xfc
EndSplineSet
Position2: "'cpsp' Capital Spacing lookup 0 subtable" dx=10 dy=0 dh=20 dv=0
EndChar

StartChar: Ograve
Encoding: 210 210 190
Width: 688
Flags: MW
HStem: -11 98<273.5 354.5 273.5 362> 587 98<371 459> 711 121<388 408 275 484 388 388>
VStem: 48 123<222 316.5 222 327> 552 124<359.5 446.5>
LayerCount: 2
Fore
SplineSet
411 685 m 0
 591 685 676 560 676 406 c 0
 676 286 633 162 554 84 c 0
 493 24 411 -11 313 -11 c 0
 139 -11 48 116 48 267 c 0
 48 387 93 513 174 591 c 0
 235 650 320 685 411 685 c 0
397 587 m 0
 345 587 300 565 264 529 c 0
 205 470 171 360 171 273 c 0
 171 171 217 87 330 87 c 0
 379 87 426 108 461 144 c 0
 519 202 552 317 552 402 c 0
 552 491 521 587 397 587 c 0
275 832 m 1xf8
 408 832 l 1
 484 711 l 1
 388 711 l 1
 275 832 l 1xf8
EndSplineSet
Position2: "'cpsp' Capital Spacing lookup 0 subtable" dx=10 dy=0 dh=20 dv=0
EndChar

StartChar: Otilde
Encoding: 213 213 191
Width: 688
Flags: MW
HStem: -11 98<273.5 354.5 273.5 362> 587 98<371 459> 715 115<293 398 293 398> 722 69<481 496 481 512.5>
VStem: 48 123<222 316.5 222 327> 552 124<359.5 446.5>
LayerCount: 2
Fore
SplineSet
411 685 m 0xdc
 591 685 676 560 676 406 c 0
 676 286 633 162 554 84 c 0
 493 24 411 -11 313 -11 c 0
 139 -11 48 116 48 267 c 0
 48 387 93 513 174 591 c 0
 235 650 320 685 411 685 c 0xdc
397 587 m 0
 345 587 300 565 264 529 c 0
 205 470 171 360 171 273 c 0
 171 171 217 87 330 87 c 0
 379 87 426 108 461 144 c 0
 519 202 552 317 552 402 c 0
 552 491 521 587 397 587 c 0
353 715 m 1xec
 293 715 l 1
 304 789 339 830 384 830 c 0xec
 412 830 428 821 445 810 c 0
 460 799 474 791 488 791 c 0
 504 791 513 803 522 833 c 1
 581 833 l 1
 569 756 537 722 488 722 c 0xdc
 461 722 444 730 426 740 c 0
 410 750 400 759 385 759 c 0
 371 758 359 744 353 715 c 1xec
EndSplineSet
Position2: "'cpsp' Capital Spacing lookup 0 subtable" dx=10 dy=0 dh=20 dv=0
EndChar

StartChar: Scaron
Encoding: 352 352 192
Width: 490
Flags: MW
HStem: -10 100<167.5 229.5 167.5 259.5> 584 101<291 328> 710 122<284 291 204 373 284 284>
VStem: 90 122<473 518.5 473 539.5> 322 122<157.5 212>
LayerCount: 2
Fore
SplineSet
5 37 m 1
 45 133 l 1
 83 108 138 90 197 90 c 0
 262 90 322 125 322 190 c 0
 322 234 293 264 227 299 c 0
 149 341 90 395 90 475 c 0
 90 604 202 685 338 685 c 0
 413 685 462 666 488 651 c 1
 450 554 l 1
 428 566 383 585 328 584 c 0
 254 584 212 541 212 496 c 0
 212 450 250 423 313 387 c 0
 395 344 444 290 444 208 c 0
 444 73 335 -10 184 -10 c 0
 102 -10 35 13 5 37 c 1
373 710 m 1xf8
 284 710 l 1
 204 832 l 1
 291 832 l 1
 334 765 l 1
 336 765 l 1
 401 832 l 1
 495 832 l 1
 373 710 l 1xf8
EndSplineSet
Position2: "'cpsp' Capital Spacing lookup 0 subtable" dx=10 dy=0 dh=20 dv=0
EndChar

StartChar: Uacute
Encoding: 218 218 193
Width: 639
Flags: MW
HStem: -11 98<260.5 336.5 260.5 362.5> 654 20G<150 267 267 267 536 653 653 653> 710 122<435 438 338 572>
VStem: 68 116<199 211.5>
LayerCount: 2
Fore
SplineSet
150 674 m 1
 267 674 l 1
 192 281 l 2
 187 256 184 228 184 199 c 0
 185 130 226 87 295 87 c 0
 378 87 435 143 461 280 c 2
 536 674 l 1
 653 674 l 1
 578 282 l 2
 539 79 445 -11 280 -11 c 0
 153 -11 68 55 68 197 c 0
 68 226 72 259 77 290 c 2
 150 674 l 1
435 832 m 1
 572 832 l 1
 438 710 l 1
 338 710 l 1
 435 832 l 1
EndSplineSet
Position2: "'cpsp' Capital Spacing lookup 0 subtable" dx=10 dy=0 dh=20 dv=0
EndChar

StartChar: Ucircumflex
Encoding: 219 219 194
Width: 639
Flags: MW
HStem: -11 98<260.5 336.5 260.5 362.5> 654 20G<150 267 267 267 536 653 653 653> 710 122<264 475 469 475 386 555 469 469>
VStem: 68 116<199 211.5>
LayerCount: 2
Fore
SplineSet
150 674 m 1
 267 674 l 1
 192 281 l 2
 187 256 184 228 184 199 c 0
 185 130 226 87 295 87 c 0
 378 87 435 143 461 280 c 2
 536 674 l 1
 653 674 l 1
 578 282 l 2
 539 79 445 -11 280 -11 c 0
 153 -11 68 55 68 197 c 0
 68 226 72 259 77 290 c 2
 150 674 l 1
386 832 m 1
 475 832 l 1
 555 710 l 1
 469 710 l 1
 425 776 l 1
 423 776 l 1
 358 710 l 1
 264 710 l 1
 386 832 l 1
EndSplineSet
Position2: "'cpsp' Capital Spacing lookup 0 subtable" dx=10 dy=0 dh=20 dv=0
EndChar

StartChar: Udieresis
Encoding: 220 220 195
Width: 639
Flags: MW
HStem: -11 98<260.5 336.5 260.5 362.5> 654 20G<150 267 267 267 536 653 653 653> 716 120<304.5 332.5 501.5 529>
VStem: 68 116<199 211.5> 258 120<760.5 790.5> 455 120<760.5 790.5>
LayerCount: 2
Fore
SplineSet
150 674 m 1
 267 674 l 1
 192 281 l 2
 187 256 184 228 184 199 c 0
 185 130 226 87 295 87 c 0
 378 87 435 143 461 280 c 2
 536 674 l 1
 653 674 l 1
 578 282 l 2
 539 79 445 -11 280 -11 c 0
 153 -11 68 55 68 197 c 0
 68 226 72 259 77 290 c 2
 150 674 l 1
315 716 m 0
 285 716 258 739 258 772 c 0
 258 809 287 836 322 836 c 0
 356 836 378 810 378 779 c 0
 378 742 350 716 315 716 c 0
512 716 m 0
 481 716 455 739 455 772 c 0
 455 809 484 836 519 836 c 0
 553 836 575 810 575 779 c 0
 575 742 546 716 512 716 c 0
EndSplineSet
Position2: "'cpsp' Capital Spacing lookup 0 subtable" dx=10 dy=0 dh=20 dv=0
EndChar

StartChar: Ugrave
Encoding: 217 217 196
Width: 639
Flags: MW
HStem: -11 98<260.5 336.5 260.5 362.5> 654 20G<150 267 267 267 536 653 653 653> 711 121<376 396 263 472 376 376>
VStem: 68 116<199 211.5>
LayerCount: 2
Fore
SplineSet
150 674 m 1
 267 674 l 1
 192 281 l 2
 187 256 184 228 184 199 c 0
 185 130 226 87 295 87 c 0
 378 87 435 143 461 280 c 2
 536 674 l 1
 653 674 l 1
 578 282 l 2
 539 79 445 -11 280 -11 c 0
 153 -11 68 55 68 197 c 0
 68 226 72 259 77 290 c 2
 150 674 l 1
263 832 m 1
 396 832 l 1
 472 711 l 1
 376 711 l 1
 263 832 l 1
EndSplineSet
Position2: "'cpsp' Capital Spacing lookup 0 subtable" dx=10 dy=0 dh=20 dv=0
EndChar

StartChar: Yacute
Encoding: 221 221 197
Width: 546
Flags: MW
HStem: 0 21G<155 271 155 155> 654 20G<77 201 201 201 475 613 613 613> 710 122<382 384 284 519>
VStem: 77 536<674 674>
LayerCount: 2
Fore
SplineSet
271 0 m 1
 155 0 l 1
 208 277 l 1
 77 674 l 1
 201 674 l 1
 254 482 l 2
 269 424 276 394 282 364 c 1
 284 364 l 1
 302 396 324 434 354 484 c 2
 475 674 l 1
 613 674 l 1
 324 279 l 1
 271 0 l 1
382 832 m 1
 519 832 l 1
 384 710 l 1
 284 710 l 1
 382 832 l 1
EndSplineSet
Position2: "'cpsp' Capital Spacing lookup 0 subtable" dx=10 dy=0 dh=20 dv=0
EndChar

StartChar: Ydieresis
Encoding: 376 376 198
Width: 546
Flags: MW
HStem: 0 21G<155 271 155 155> 654 20G<77 201 201 201 475 613 613 613> 716 120<244 272 440.5 469>
VStem: 198 120<760.5 790.5> 395 120<760.5 790.5>
LayerCount: 2
Fore
SplineSet
271 0 m 1
 155 0 l 1
 208 277 l 1
 77 674 l 1
 201 674 l 1
 254 482 l 2
 269 424 276 394 282 364 c 1
 284 364 l 1
 302 396 324 434 354 484 c 2
 475 674 l 1
 613 674 l 1
 324 279 l 1
 271 0 l 1
255 716 m 0
 224 716 198 739 198 772 c 0
 198 809 226 836 262 836 c 0
 296 836 318 810 318 779 c 0
 318 742 289 716 255 716 c 0
452 716 m 0
 421 716 395 739 395 772 c 0
 395 809 423 836 458 836 c 0
 492 836 515 810 515 779 c 0
 515 742 486 716 452 716 c 0
EndSplineSet
Position2: "'cpsp' Capital Spacing lookup 0 subtable" dx=10 dy=0 dh=20 dv=0
EndChar

StartChar: Zcaron
Encoding: 381 381 199
Width: 540
Flags: MW
HStem: 0 100<158 464> 574 100<135 411 116 587> 710 122<317 324 237 406 317 317>
VStem: -23 610
LayerCount: 2
Fore
SplineSet
-23 0 m 1
 -10 69 l 1
 411 570 l 1
 411 574 l 1
 116 574 l 1
 135 674 l 1
 587 674 l 1
 573 601 l 1
 157 104 l 1
 158 100 l 1
 483 100 l 1
 464 0 l 1
 -23 0 l 1
406 710 m 1
 317 710 l 1
 237 832 l 1
 324 832 l 1
 367 765 l 1
 369 765 l 1
 434 832 l 1
 528 832 l 1
 406 710 l 1
EndSplineSet
Position2: "'cpsp' Capital Spacing lookup 0 subtable" dx=10 dy=0 dh=20 dv=0
EndChar

StartChar: aacute
Encoding: 225 225 200
Width: 540
Flags: MW
HStem: -11 94<193.5 203> 0 21G<340 448 340 340> 408 90<286 350.5> 478 20G<257.5 397.5> 546 148<297 516 297 516>
VStem: 28 121<150.5 231.5 150.5 238> 349 99
LayerCount: 2
Fore
SplineSet
448 0 m 1x5e
 340 0 l 1x6e
 341 29 345 68 349 110 c 1
 346 110 l 1
 298 20 234 -11 172 -11 c 0
 85 -11 28 57 28 155 c 0
 28 321 144 498 371 498 c 0xae
 424 498 481 488 518 476 c 1
 468 222 l 2
 454 149 446 58 448 0 c 1x5e
362 275 m 2
 388 403 l 1
 376 406 361 408 340 408 c 0
 232 408 149 287 149 176 c 0
 149 125 168 83 219 83 c 0xae
 273 83 339 151 362 275 c 2
393 694 m 1
 516 694 l 1
 385 546 l 1
 297 546 l 1
 393 694 l 1
EndSplineSet
EndChar

StartChar: acircumflex
Encoding: 226 226 201
Width: 540
Flags: MW
HStem: -11 94<193.5 203> 0 21G<340 448 340 340> 408 90<286 350.5> 478 20G<257.5 397.5> 546 148<211 411 211 411 404 411 330 483 404 404>
VStem: 28 121<150.5 231.5 150.5 238> 349 99
LayerCount: 2
Fore
SplineSet
448 0 m 1x5e
 340 0 l 1x6e
 341 29 345 68 349 110 c 1
 346 110 l 1
 298 20 234 -11 172 -11 c 0
 85 -11 28 57 28 155 c 0
 28 321 144 498 371 498 c 0xae
 424 498 481 488 518 476 c 1
 468 222 l 2
 454 149 446 58 448 0 c 1x5e
362 275 m 2
 388 403 l 1
 376 406 361 408 340 408 c 0
 232 408 149 287 149 176 c 0
 149 125 168 83 219 83 c 0xae
 273 83 339 151 362 275 c 2
330 694 m 1
 411 694 l 1
 483 546 l 1
 404 546 l 1
 363 630 l 1
 361 630 l 1
 297 546 l 1
 211 546 l 1
 330 694 l 1
EndSplineSet
EndChar

StartChar: adieresis
Encoding: 228 228 202
Width: 540
Flags: MW
HStem: -11 94<193.5 203> 0 21G<340 448 340 340> 408 90<286 350.5> 478 20G<257.5 397.5> 561 124<234 263 429 459>
VStem: 28 121<150.5 231.5 150.5 238> 187 122<607 638.5> 349 99 382 122<607 638.5>
LayerCount: 2
Fore
SplineSet
448 0 m 1x5f
 340 0 l 1x6f
 341 29 345 68 349 110 c 1
 346 110 l 1
 298 20 234 -11 172 -11 c 0
 85 -11 28 57 28 155 c 0
 28 321 144 498 371 498 c 0xaf
 424 498 481 488 518 476 c 1
 468 222 l 2
 454 149 446 58 448 0 c 1x5f
362 275 m 2
 388 403 l 1
 376 406 361 408 340 408 c 0
 232 408 149 287 149 176 c 0
 149 125 168 83 219 83 c 0xaf
 273 83 339 151 362 275 c 2
245 561 m 0
 213 561 187 584 187 619 c 0
 187 658 216 685 252 685 c 0
 287 685 309 659 309 626 c 0
 309 588 281 561 245 561 c 0
441 561 m 0xae80
 408 561 382 584 382 619 c 0
 382 658 411 685 447 685 c 0
 482 685 504 659 504 626 c 0
 504 588 477 561 441 561 c 0xae80
EndSplineSet
EndChar

StartChar: agrave
Encoding: 224 224 203
Width: 540
Flags: MW
HStem: -11 94<193.5 203> 0 21G<340 448 340 340> 408 90<286 350.5> 478 20G<257.5 397.5> 546 148<319 331 212 402 319 319>
VStem: 28 121<150.5 231.5 150.5 238> 349 99
LayerCount: 2
Fore
SplineSet
448 0 m 1x5e
 340 0 l 1x6e
 341 29 345 68 349 110 c 1
 346 110 l 1
 298 20 234 -11 172 -11 c 0
 85 -11 28 57 28 155 c 0
 28 321 144 498 371 498 c 0xae
 424 498 481 488 518 476 c 1
 468 222 l 2
 454 149 446 58 448 0 c 1x5e
362 275 m 2
 388 403 l 1
 376 406 361 408 340 408 c 0
 232 408 149 287 149 176 c 0
 149 125 168 83 219 83 c 0xae
 273 83 339 151 362 275 c 2
212 694 m 1
 331 694 l 1
 402 546 l 1
 319 546 l 1
 212 694 l 1
EndSplineSet
EndChar

StartChar: aring
Encoding: 229 229 204
Width: 540
Flags: MW
HStem: -11 94<193.5 203> 0 21G<340 448 340 340> 408 90<286 350.5> 478 20G<257.5 397.5> 536 45<330.5 359.5 330.5 371.5> 684 44<334 363.5>
VStem: 28 121<150.5 231.5 150.5 238> 239 60 349 99 395 60<636 648.5>
LayerCount: 2
Fore
SplineSet
448 0 m 1x5f80
 340 0 l 1x6f80
 341 29 345 68 349 110 c 1
 346 110 l 1
 298 20 234 -11 172 -11 c 0
 85 -11 28 57 28 155 c 0
 28 321 144 498 371 498 c 0xaf80
 424 498 481 488 518 476 c 1
 468 222 l 2
 454 149 446 58 448 0 c 1x5f80
362 275 m 2
 388 403 l 1
 376 406 361 408 340 408 c 0
 232 408 149 287 149 176 c 0
 149 125 168 83 219 83 c 0xaf80
 273 83 339 151 362 275 c 2
353 728 m 0xaf40
 410 728 455 695 455 636 c 0
 454 573 402 536 341 536 c 0
 285 536 240 571 239 625 c 0
 238 687 287 728 353 728 c 0xaf40
349 684 m 0
 319 684 299 660 299 629 c 0
 299 603 317 581 344 581 c 0
 375 581 395 605 395 635 c 0
 395 662 378 684 349 684 c 0
EndSplineSet
EndChar

StartChar: atilde
Encoding: 227 227 205
Width: 540
Flags: MW
HStem: -11 94<193.5 203> 0 21G<340 448 340 340> 408 90<286 350.5> 478 20G<257.5 397.5> 570 111<385.5 486> 608 69<288.5 303>
VStem: 28 121<150.5 231.5 150.5 238> 349 99 427 59<681 681>
LayerCount: 2
Fore
SplineSet
448 0 m 1x5b
 340 0 l 1x6b
 341 29 345 68 349 110 c 1
 346 110 l 1
 298 20 234 -11 172 -11 c 0
 85 -11 28 57 28 155 c 0
 28 321 144 498 371 498 c 0xab
 424 498 481 488 518 476 c 1
 468 222 l 2
 454 149 446 58 448 0 c 1x5b
362 275 m 2
 388 403 l 1
 376 406 361 408 340 408 c 0
 232 408 149 287 149 176 c 0
 149 125 168 83 219 83 c 0xa7
 273 83 339 151 362 275 c 2
268 563 m 1
 208 563 l 1
 217 633 248 677 295 677 c 0xa7
 322 677 338 667 357 656 c 0
 371 647 384 638 396 638 c 0
 412 638 420 647 427 681 c 1
 486 681 l 1
 476 605 448 570 398 570 c 0xaa80
 373 570 352 579 336 590 c 0
 322 600 310 608 296 608 c 0
 281 608 273 589 268 563 c 1
EndSplineSet
EndChar

StartChar: ccedilla
Encoding: 231 231 206
Width: 430
Flags: MW
HStem: -204 21G<161.5 205> -204 55<170.5 190 170.5 205> -8 21G<199 199 266 266> 403 95<280.5 353> 478 20G<250.5 362.5>
VStem: 31 122<161.5 248.5 161.5 269> 219 77<-128.5 -108>
LayerCount: 2
Fore
SplineSet
440 479 m 1x6e
 410 388 l 1
 392 396 369 403 337 403 c 0
 224 403 153 299 153 198 c 0
 153 125 195 84 260 84 c 0
 305 84 339 96 364 107 c 1
 368 17 l 1
 346 6 310 -4 266 -8 c 1
 238 -47 l 1
 271 -55 296 -79 296 -111 c 0
 296 -177 233 -204 177 -204 c 0x76
 146 -204 119 -196 105 -185 c 1xb6
 127 -134 l 1
 142 -144 161 -149 180 -149 c 0
 200 -149 219 -139 219 -118 c 0
 219 -98 199 -85 150 -81 c 1
 199 -8 l 1
 94 3 31 77 31 184 c 0
 31 354 160 498 341 498 c 0x76
 384 498 422 487 440 479 c 1x6e
EndSplineSet
EndChar

StartChar: eacute
Encoding: 233 233 207
Width: 479
Flags: MW
HStem: -10 91<234 259.5> 200 87 411 87<254.5 309.5> 546 148<255 474 255 474>
VStem: 30 114 353 110<331 376>
LayerCount: 2
Fore
SplineSet
391 113 m 1
 402 28 l 1
 354 3 289 -10 230 -10 c 0
 95 -10 30 72 30 191 c 0
 30 338 138 498 306 498 c 0
 402 498 463 442 463 361 c 0
 463 236 332 196 144 200 c 1
 142 183 146 150 157 131 c 0
 176 98 211 81 257 81 c 0
 312 81 356 95 391 113 c 1
353 360 m 0
 353 392 328 411 291 411 c 0
 218 411 170 346 156 287 c 1
 276 285 353 302 353 360 c 0
351 694 m 1
 474 694 l 1
 343 546 l 1
 255 546 l 1
 351 694 l 1
EndSplineSet
EndChar

StartChar: ecircumflex
Encoding: 234 234 208
Width: 479
Flags: MW
HStem: -10 91<234 259.5> 200 87 411 87<254.5 309.5> 546 148<173 373 173 373 366 373 292 445 366 366>
VStem: 30 114 353 110<331 376>
LayerCount: 2
Fore
SplineSet
391 113 m 1
 402 28 l 1
 354 3 289 -10 230 -10 c 0
 95 -10 30 72 30 191 c 0
 30 338 138 498 306 498 c 0
 402 498 463 442 463 361 c 0
 463 236 332 196 144 200 c 1
 142 183 146 150 157 131 c 0
 176 98 211 81 257 81 c 0
 312 81 356 95 391 113 c 1
353 360 m 0
 353 392 328 411 291 411 c 0
 218 411 170 346 156 287 c 1
 276 285 353 302 353 360 c 0
292 694 m 1
 373 694 l 1
 445 546 l 1
 366 546 l 1
 325 630 l 1
 323 630 l 1
 260 546 l 1
 173 546 l 1
 292 694 l 1
EndSplineSet
EndChar

StartChar: edieresis
Encoding: 235 235 209
Width: 479
Flags: MW
HStem: -10 91<234 259.5> 200 87 411 87<254.5 309.5> 561 124<212 241 407 437>
VStem: 30 114 165 122<607 638.5> 353 110<331 376> 360 122<607 638.5>
LayerCount: 2
Fore
SplineSet
391 113 m 1xfa
 402 28 l 1
 354 3 289 -10 230 -10 c 0
 95 -10 30 72 30 191 c 0
 30 338 138 498 306 498 c 0
 402 498 463 442 463 361 c 0
 463 236 332 196 144 200 c 1
 142 183 146 150 157 131 c 0
 176 98 211 81 257 81 c 0
 312 81 356 95 391 113 c 1xfa
353 360 m 0
 353 392 328 411 291 411 c 0
 218 411 170 346 156 287 c 1
 276 285 353 302 353 360 c 0
223 561 m 0xfd
 191 561 165 584 165 619 c 0
 165 658 194 685 230 685 c 0
 265 685 287 659 287 626 c 0
 287 588 259 561 223 561 c 0xfd
419 561 m 0
 386 561 360 584 360 619 c 0
 360 658 389 685 425 685 c 0
 460 685 482 659 482 626 c 0
 482 588 455 561 419 561 c 0
EndSplineSet
EndChar

StartChar: egrave
Encoding: 232 232 210
Width: 479
Flags: MW
HStem: -10 91<234 259.5> 200 87 411 87<254.5 309.5> 546 148<284 297 178 368 284 284>
VStem: 30 114 353 110<331 376>
LayerCount: 2
Fore
SplineSet
391 113 m 1
 402 28 l 1
 354 3 289 -10 230 -10 c 0
 95 -10 30 72 30 191 c 0
 30 338 138 498 306 498 c 0
 402 498 463 442 463 361 c 0
 463 236 332 196 144 200 c 1
 142 183 146 150 157 131 c 0
 176 98 211 81 257 81 c 0
 312 81 356 95 391 113 c 1
353 360 m 0
 353 392 328 411 291 411 c 0
 218 411 170 346 156 287 c 1
 276 285 353 302 353 360 c 0
178 694 m 1
 297 694 l 1
 368 546 l 1
 284 546 l 1
 178 694 l 1
EndSplineSet
EndChar

StartChar: iacute
Encoding: 237 237 211
Width: 249
Flags: MW
HStem: 0 21G<20 136 20 20> 467 20G<112 229 229 229> 546 148<125 344 125 344>
VStem: 20 324
LayerCount: 2
Fore
SplineSet
136 0 m 1
 20 0 l 1
 112 487 l 1
 229 487 l 1
 136 0 l 1
221 694 m 1
 344 694 l 1
 213 546 l 1
 125 546 l 1
 221 694 l 1
EndSplineSet
EndChar

StartChar: icircumflex
Encoding: 238 238 212
Width: 249
Flags: MW
HStem: 0 21G<20 136 20 20> 467 20G<112 229 229 229> 546 148<43 243 43 243 236 243 162 315 236 236>
VStem: 20 295
LayerCount: 2
Fore
SplineSet
136 0 m 1
 20 0 l 1
 112 487 l 1
 229 487 l 1
 136 0 l 1
162 694 m 1
 243 694 l 1
 315 546 l 1
 236 546 l 1
 195 630 l 1
 193 630 l 1
 129 546 l 1
 43 546 l 1
 162 694 l 1
EndSplineSet
EndChar

StartChar: idieresis
Encoding: 239 239 213
Width: 249
Flags: MW
HStem: 0 21G<20 136 20 20> 467 20G<112 229 229 229> 561 124<82 111 277 307>
VStem: 35 122<607 638.5> 230 122<607 638.5>
LayerCount: 2
Fore
SplineSet
136 0 m 1
 20 0 l 1
 112 487 l 1
 229 487 l 1
 136 0 l 1
93 561 m 0
 61 561 35 584 35 619 c 0
 35 658 64 685 100 685 c 0
 135 685 157 659 157 626 c 0
 157 588 129 561 93 561 c 0
289 561 m 0
 256 561 230 584 230 619 c 0
 230 658 259 685 295 685 c 0
 330 685 352 659 352 626 c 0
 352 588 325 561 289 561 c 0
EndSplineSet
EndChar

StartChar: igrave
Encoding: 236 236 214
Width: 249
Flags: MW
HStem: 0 21G<20 136 20 20> 467 20G<112 229 229 229> 546 148<147 159 41 230 147 147>
VStem: 20 210
LayerCount: 2
Fore
SplineSet
136 0 m 1
 20 0 l 1
 112 487 l 1
 229 487 l 1
 136 0 l 1
41 694 m 1
 159 694 l 1
 230 546 l 1
 147 546 l 1
 41 694 l 1
EndSplineSet
EndChar

StartChar: ntilde
Encoding: 241 241 215
Width: 550
Flags: MW
HStem: 0 21G<20 136 20 20 323 323 323 439> 403 95<293.5 412.5> 467 20G<108 211 211 211> 570 111<379.5 480> 608 69<283 297.5>
VStem: 108 98 381 121<323.5 410> 421 59<681 681>
LayerCount: 2
Fore
SplineSet
136 0 m 1xb6
 20 0 l 1
 83 336 l 2
 95 394 102 445 108 487 c 1
 211 487 l 1xae
 201 399 l 1
 203 399 l 1
 248 465 310 498 378 498 c 0
 447 498 502 456 502 364 c 0
 502 342 498 308 493 283 c 2
 439 0 l 1
 323 0 l 1
 375 275 l 2
 378 293 381 314 381 333 c 0
 381 373 366 403 320 403 c 0xd6
 267 403 199 339 178 225 c 2
 136 0 l 1xb6
262 563 m 1
 202 563 l 1
 211 633 242 677 289 677 c 0xae
 316 677 332 667 351 656 c 0
 365 647 378 638 390 638 c 0
 406 638 414 647 421 681 c 1
 480 681 l 1
 470 605 442 570 392 570 c 0xb5
 367 570 346 579 330 590 c 0
 316 600 304 608 291 608 c 0
 275 608 267 589 262 563 c 1
EndSplineSet
EndChar

StartChar: oacute
Encoding: 243 243 216
Width: 543
Flags: MW
HStem: -11 90<217.5 290.5 217.5 314> 408 90<252.5 334.5> 546 148<266 485 266 485>
VStem: 32 120<159.5 238.5 159.5 272.5> 392 121<247.5 321>
LayerCount: 2
Fore
SplineSet
313 498 m 0
 444 498 513 404 513 296 c 0
 513 131 397 -11 231 -11 c 0
 108 -11 32 74 32 190 c 0
 32 355 147 498 313 498 c 0
299 408 m 0
 206 408 152 284 152 193 c 0
 152 126 188 79 247 79 c 0
 334 79 392 199 392 296 c 0
 392 346 370 408 299 408 c 0
362 694 m 1
 485 694 l 1
 354 546 l 1
 266 546 l 1
 362 694 l 1
EndSplineSet
EndChar

StartChar: ocircumflex
Encoding: 244 244 217
Width: 543
Flags: MW
HStem: -11 90<217.5 290.5 217.5 314> 408 90<252.5 334.5> 546 148<190 390 190 390 383 390 309 462 383 383>
VStem: 32 120<159.5 238.5 159.5 272.5> 392 121<247.5 321>
LayerCount: 2
Fore
SplineSet
313 498 m 0
 444 498 513 404 513 296 c 0
 513 131 397 -11 231 -11 c 0
 108 -11 32 74 32 190 c 0
 32 355 147 498 313 498 c 0
299 408 m 0
 206 408 152 284 152 193 c 0
 152 126 188 79 247 79 c 0
 334 79 392 199 392 296 c 0
 392 346 370 408 299 408 c 0
309 694 m 1
 390 694 l 1
 462 546 l 1
 383 546 l 1
 342 630 l 1
 340 630 l 1
 276 546 l 1
 190 546 l 1
 309 694 l 1
EndSplineSet
EndChar

StartChar: odieresis
Encoding: 246 246 218
Width: 543
Flags: MW
HStem: -11 90<217.5 290.5 217.5 314> 408 90<252.5 334.5> 561 124<227 256 422 452>
VStem: 32 120<159.5 238.5 159.5 272.5> 180 122<607 638.5> 375 122<607 638.5> 392 121<247.5 321>
LayerCount: 2
Fore
SplineSet
313 498 m 0xf2
 444 498 513 404 513 296 c 0
 513 131 397 -11 231 -11 c 0
 108 -11 32 74 32 190 c 0
 32 355 147 498 313 498 c 0xf2
299 408 m 0
 206 408 152 284 152 193 c 0
 152 126 188 79 247 79 c 0
 334 79 392 199 392 296 c 0
 392 346 370 408 299 408 c 0
238 561 m 0xfc
 206 561 180 584 180 619 c 0
 180 658 209 685 245 685 c 0
 280 685 302 659 302 626 c 0
 302 588 274 561 238 561 c 0xfc
434 561 m 0
 401 561 375 584 375 619 c 0
 375 658 404 685 440 685 c 0
 475 685 497 659 497 626 c 0
 497 588 470 561 434 561 c 0
EndSplineSet
EndChar

StartChar: ograve
Encoding: 242 242 219
Width: 543
Flags: MW
HStem: -11 90<217.5 290.5 217.5 314> 408 90<252.5 334.5> 546 148<292 304 185 375 292 292>
VStem: 32 120<159.5 238.5 159.5 272.5> 392 121<247.5 321>
LayerCount: 2
Fore
SplineSet
313 498 m 0
 444 498 513 404 513 296 c 0
 513 131 397 -11 231 -11 c 0
 108 -11 32 74 32 190 c 0
 32 355 147 498 313 498 c 0
299 408 m 0
 206 408 152 284 152 193 c 0
 152 126 188 79 247 79 c 0
 334 79 392 199 392 296 c 0
 392 346 370 408 299 408 c 0
185 694 m 1
 304 694 l 1
 375 546 l 1
 292 546 l 1
 185 694 l 1
EndSplineSet
EndChar

StartChar: otilde
Encoding: 245 245 220
Width: 543
Flags: MW
HStem: -11 90<217.5 290.5 217.5 314> 408 90<252.5 334.5> 570 111<365.5 466> 608 69<269 283.5>
VStem: 32 120<159.5 238.5 159.5 272.5> 392 121<247.5 321> 407 59<681 681>
LayerCount: 2
Fore
SplineSet
313 498 m 0xdc
 444 498 513 404 513 296 c 0
 513 131 397 -11 231 -11 c 0
 108 -11 32 74 32 190 c 0
 32 355 147 498 313 498 c 0xdc
299 408 m 0
 206 408 152 284 152 193 c 0
 152 126 188 79 247 79 c 0
 334 79 392 199 392 296 c 0
 392 346 370 408 299 408 c 0
248 563 m 1
 188 563 l 1
 197 633 228 677 275 677 c 0xdc
 302 677 318 667 337 656 c 0
 351 647 364 638 376 638 c 0
 392 638 400 647 407 681 c 1
 466 681 l 1
 456 605 428 570 378 570 c 0xea
 353 570 332 579 316 590 c 0
 302 600 290 608 277 608 c 0
 261 608 253 589 248 563 c 1
EndSplineSet
EndChar

StartChar: scaron
Encoding: 353 353 221
Width: 397
Flags: MW
HStem: -10 86<127 149 127 196.5> 411 87<233 275> 546 148<215 221 142 296 215 215>
VStem: 64 117<340.5 370.5 340.5 385> 224 121<120 151.5>
LayerCount: 2
Fore
SplineSet
2 25 m 1
 32 109 l 1
 57 95 105 76 149 76 c 0
 196 77 224 104 224 136 c 0
 224 167 208 186 160 211 c 0
 104 240 64 282 64 338 c 0
 64 432 146 498 261 498 c 0
 312 498 354 486 376 473 c 1
 346 389 l 1
 328 399 295 411 255 411 c 0
 211 411 181 387 181 354 c 0
 181 327 203 308 244 287 c 0
 297 258 345 218 345 156 c 0
 345 49 255 -10 138 -10 c 0
 81 -10 28 6 2 25 c 1
296 546 m 1
 215 546 l 1
 142 694 l 1
 221 694 l 1
 263 609 l 1
 265 609 l 1
 330 694 l 1
 415 694 l 1
 296 546 l 1
EndSplineSet
EndChar

StartChar: uacute
Encoding: 250 250 222
Width: 545
Flags: MW
HStem: -11 96<136.5 254> 0 85<341 343 204 333> 467 20G<107 223 223 223 408 524 524 524> 546 148<265 484 265 484>
VStem: 45 120<134 140> 338 98
LayerCount: 2
Fore
SplineSet
408 487 m 1xbc
 524 487 l 1
 460 151 l 2
 449 93 442 42 436 0 c 1
 333 0 l 1x7c
 343 85 l 1
 341 85 l 1
 294 22 233 -11 172 -11 c 0
 101 -11 45 27 45 127 c 0
 45 153 48 181 55 214 c 2
 107 487 l 1
 223 487 l 1
 173 221 l 2
 168 197 165 173 165 154 c 0
 165 114 181 85 227 85 c 0
 281 85 344 149 363 250 c 2
 408 487 l 1xbc
361 694 m 1
 484 694 l 1
 353 546 l 1
 265 546 l 1
 361 694 l 1
EndSplineSet
EndChar

StartChar: ucircumflex
Encoding: 251 251 223
Width: 545
Flags: MW
HStem: -11 96<136.5 254> 0 85<341 343 204 333> 467 20G<107 223 223 223 408 524 524 524> 546 148<195 395 195 395 387 395 313 467 387 387>
VStem: 45 120<134 140> 338 98
LayerCount: 2
Fore
SplineSet
408 487 m 1xbc
 524 487 l 1
 460 151 l 2
 449 93 442 42 436 0 c 1
 333 0 l 1x7c
 343 85 l 1
 341 85 l 1
 294 22 233 -11 172 -11 c 0
 101 -11 45 27 45 127 c 0
 45 153 48 181 55 214 c 2
 107 487 l 1
 223 487 l 1
 173 221 l 2
 168 197 165 173 165 154 c 0
 165 114 181 85 227 85 c 0
 281 85 344 149 363 250 c 2
 408 487 l 1xbc
313 694 m 1
 395 694 l 1
 467 546 l 1
 387 546 l 1
 346 630 l 1
 344 630 l 1
 281 546 l 1
 195 546 l 1
 313 694 l 1
EndSplineSet
EndChar

StartChar: udieresis
Encoding: 252 252 224
Width: 545
Flags: MW
HStem: -11 96<136.5 254> 0 85<341 343 204 333> 467 20G<107 223 223 223 408 524 524 524> 561 124<226 255 421 451>
VStem: 45 120<134 140> 179 122<607 638.5> 338 98 374 122<607 638.5>
LayerCount: 2
Fore
SplineSet
408 487 m 1xb9
 524 487 l 1
 460 151 l 2
 449 93 442 42 436 0 c 1
 333 0 l 1x7e
 343 85 l 1
 341 85 l 1xba
 294 22 233 -11 172 -11 c 0
 101 -11 45 27 45 127 c 0
 45 153 48 181 55 214 c 2
 107 487 l 1
 223 487 l 1
 173 221 l 2
 168 197 165 173 165 154 c 0
 165 114 181 85 227 85 c 0
 281 85 344 149 363 250 c 2
 408 487 l 1xb9
237 561 m 0
 205 561 179 584 179 619 c 0
 179 658 208 685 244 685 c 0
 279 685 301 659 301 626 c 0
 301 588 273 561 237 561 c 0
433 561 m 0xb9
 400 561 374 584 374 619 c 0
 374 658 403 685 439 685 c 0
 474 685 496 659 496 626 c 0
 496 588 469 561 433 561 c 0xb9
EndSplineSet
EndChar

StartChar: ugrave
Encoding: 249 249 225
Width: 545
Flags: MW
HStem: -11 96<136.5 254> 0 85<341 343 204 333> 467 20G<107 223 223 223 408 524 524 524> 546 148<293 305 186 376 293 293>
VStem: 45 120<134 140> 338 98
LayerCount: 2
Fore
SplineSet
408 487 m 1xbc
 524 487 l 1
 460 151 l 2
 449 93 442 42 436 0 c 1
 333 0 l 1x7c
 343 85 l 1
 341 85 l 1
 294 22 233 -11 172 -11 c 0
 101 -11 45 27 45 127 c 0
 45 153 48 181 55 214 c 2
 107 487 l 1
 223 487 l 1
 173 221 l 2
 168 197 165 173 165 154 c 0
 165 114 181 85 227 85 c 0
 281 85 344 149 363 250 c 2
 408 487 l 1xbc
186 694 m 1
 305 694 l 1
 376 546 l 1
 293 546 l 1
 186 694 l 1
EndSplineSet
EndChar

StartChar: yacute
Encoding: 253 253 226
Width: 472
Flags: MW
HStem: -124 21G<-32 -32> 467 20G<45 167 167 167 378 501 501 501> 546 148<229 448 229 448>
VStem: -32 533
LayerCount: 2
Fore
SplineSet
45 487 m 1
 167 487 l 1
 205 252 l 2
 214 200 220 164 224 131 c 1
 226 131 l 1
 238 161 250 194 273 247 c 2
 378 487 l 1
 501 487 l 1
 323 128 l 2
 264 9 210 -77 145 -140 c 0
 89 -195 25 -218 -5 -224 c 1
 -32 -124 l 1
 -10 -117 24 -104 54 -82 c 0
 87 -58 118 -24 140 15 c 0
 144 23 144 29 142 38 c 2
 45 487 l 1
325 694 m 1
 448 694 l 1
 317 546 l 1
 229 546 l 1
 325 694 l 1
EndSplineSet
EndChar

StartChar: ydieresis
Encoding: 255 255 227
Width: 472
Flags: MW
HStem: -124 21G<-32 -32> 467 20G<45 167 167 167 378 501 501 501> 561 124<183 212.5 378.5 408>
VStem: 136 122<607 638.5> 332 122<607 638.5>
LayerCount: 2
Fore
SplineSet
45 487 m 1
 167 487 l 1
 205 252 l 2
 214 200 220 164 224 131 c 1
 226 131 l 1
 238 161 250 194 273 247 c 2
 378 487 l 1
 501 487 l 1
 323 128 l 2
 264 9 210 -77 145 -140 c 0
 89 -195 25 -218 -5 -224 c 1
 -32 -124 l 1
 -10 -117 24 -104 54 -82 c 0
 87 -58 118 -24 140 15 c 0
 144 23 144 29 142 38 c 2
 45 487 l 1
195 561 m 0
 162 561 136 584 136 619 c 0
 136 658 165 685 201 685 c 0
 236 685 258 659 258 626 c 0
 258 588 230 561 195 561 c 0
390 561 m 0
 357 561 332 584 332 619 c 0
 332 658 360 685 397 685 c 0
 431 685 454 659 454 626 c 0
 454 588 426 561 390 561 c 0
EndSplineSet
EndChar

StartChar: zcaron
Encoding: 382 382 228
Width: 434
Flags: MW
HStem: 0 95<138 366> 392 95<86 294 67 452> 546 148<236 242 163 317 236 236>
VStem: -24 476
LayerCount: 2
Fore
SplineSet
-24 0 m 1
 -11 71 l 1
 182 282 l 2
 223 326 253 353 293 389 c 1
 294 392 l 1
 67 392 l 1
 86 487 l 1
 452 487 l 1
 438 412 l 1
 249 205 l 2
 205 158 176 130 138 97 c 1
 138 95 l 1
 385 95 l 1
 366 0 l 1
 -24 0 l 1
317 546 m 1
 236 546 l 1
 163 694 l 1
 242 694 l 1
 284 609 l 1
 286 609 l 1
 351 694 l 1
 436 694 l 1
 317 546 l 1
EndSplineSet
EndChar

StartChar: Dcroat
Encoding: 272 272 229
Width: 676
Flags: MW
HStem: -4 95<232 279> 301 96<12 110 31 92 228 355> 585 94<324.5 392 308 409>
VStem: 537 126<354 446.5 337.5 453>
LayerCount: 2
Fore
SplineSet
12 301 m 1
 31 397 l 1
 110 397 l 1
 161 664 l 1
 218 674 277 679 339 679 c 0
 445 679 532 653 584 601 c 1
 632 559 663 492 663 401 c 0
 663 274 609 158 523 88 c 0
 447 26 347 -4 211 -4 c 0
 137 -4 74 1 36 7 c 1
 92 301 l 1
 12 301 l 1
374 397 m 1
 355 301 l 1
 209 301 l 1
 170 96 l 1
 192 92 218 91 246 91 c 0
 329 91 405 121 455 175 c 0
 508 231 537 312 537 396 c 0
 537 510 479 585 339 585 c 0
 310 585 284 583 262 580 c 1
 228 397 l 1
 374 397 l 1
EndSplineSet
Position2: "'cpsp' Capital Spacing lookup 0 subtable" dx=10 dy=0 dh=20 dv=0
EndChar

StartChar: Eng
Encoding: 330 330 230
Width: 651
Flags: MW
HStem: -205 94<280 290> 0 21G<24 133 24 24> 536 138<231 231> 654 20G<152 286 286 286 553 663 663 663>
VStem: 24 639
LayerCount: 2
Fore
SplineSet
290 -205 m 1xd8
 280 -111 l 1
 348 -104 398 -73 416 -5 c 1
 295 319 l 2
 263 407 247 462 231 536 c 1
 227 535 l 1xe8
 220 471 206 388 188 288 c 2
 133 0 l 1
 24 0 l 1
 152 674 l 1
 286 674 l 1
 404 361 l 2
 433 279 450 217 465 150 c 1
 467 150 l 1
 471 216 479 281 497 378 c 2
 553 674 l 1
 663 674 l 1
 542 37 l 2
 507 -148 409 -200 290 -205 c 1xd8
EndSplineSet
Position2: "'cpsp' Capital Spacing lookup 0 subtable" dx=10 dy=0 dh=20 dv=0
EndChar

StartChar: Hbar
Encoding: 294 294 231
Width: 648
Flags: MW
HStem: 0 21G<25 141 25 25 415 532 415 415> 279 104<214 468 194 487> 475 75<53 115 38 129 246 505 636 691> 475 199<38 269 38 269 231 269 153 505 231 231 622 622 622 660>
VStem: 25 680<0 550>
LayerCount: 2
Fore
SplineSet
505 475 m 1xd8
 231 475 l 1
 214 383 l 1
 487 383 l 1
 505 475 l 1xd8
53 550 m 1xe8
 129 550 l 1xe8
 153 674 l 1
 269 674 l 1xd8
 246 550 l 1
 520 550 l 1xe8
 543 674 l 1
 660 674 l 1xd8
 636 550 l 1
 705 550 l 1xe8
 691 475 l 1
 622 475 l 1
 532 0 l 1
 415 0 l 1
 468 279 l 1
 194 279 l 1
 141 0 l 1
 25 0 l 1
 115 475 l 1
 38 475 l 1xd8
 53 550 l 1xe8
EndSplineSet
Position2: "'cpsp' Capital Spacing lookup 0 subtable" dx=10 dy=0 dh=20 dv=0
EndChar

StartChar: Tbar
Encoding: 358 358 232
Width: 503
Flags: MW
HStem: 0 21G<144 261 144 144> 304 75<96 202 81 216 333 445> 572 102<86 253 66 577 369 557 369 369>
VStem: 66 511<572 674>
LayerCount: 2
Fore
SplineSet
557 572 m 1
 369 572 l 1
 333 379 l 1
 460 379 l 1
 445 304 l 1
 318 304 l 1
 261 0 l 1
 144 0 l 1
 202 304 l 1
 81 304 l 1
 96 379 l 1
 216 379 l 1
 253 572 l 1
 66 572 l 1
 86 674 l 1
 577 674 l 1
 557 572 l 1
EndSplineSet
Position2: "'cpsp' Capital Spacing lookup 0 subtable" dx=10 dy=0 dh=20 dv=0
EndChar

StartChar: uni021C
Encoding: 540 540 233
Width: 492
Flags: MW
HStem: 590 95<247 260.5>
VStem: 323 128<130.5 214.5> 326 127<505 542>
LayerCount: 2
Fore
SplineSet
-1 -120 m 1xc0
 -10 -27 l 1
 175 -10 323 70 323 191 c 0xc0
 323 238 293 289 206 289 c 0
 176 289 147 283 117 274 c 1
 104 354 l 1
 210 376 326 432 326 519 c 0
 326 565 285 590 236 590 c 0
 187 590 151 572 121 558 c 1
 100 635 l 1
 143 660 212 685 282 685 c 0
 391 685 453 622 453 547 c 0xa0
 453 463 390 405 309 367 c 1
 309 365 l 1
 387 350 451 290 451 204 c 0
 451 26 260 -98 -1 -120 c 1xc0
EndSplineSet
Position2: "'cpsp' Capital Spacing lookup 0 subtable" dx=10 dy=0 dh=20 dv=0
EndChar

StartChar: dcroat
Encoding: 273 273 234
Width: 544
Flags: MW
HStem: -11 94<200.5 208.5> 0 83<200.5 443 200.5 336> 408 90<274 338.5> 549 67<243 420 230 433 549 614> 549 161<230 567 536 567 451 614 536 536>
VStem: 29 121<158.5 242.5 158.5 255.5> 341 102
LayerCount: 2
Fore
SplineSet
362 241 m 2xac
 391 389 l 1
 377 399 353 408 324 408 c 0
 224 408 150 297 150 188 c 0
 150 129 173 83 228 83 c 0
 280 83 341 141 362 241 c 2xac
243 616 m 1xb4
 433 616 l 1xb4
 451 710 l 1
 567 710 l 1xac
 549 616 l 1
 627 616 l 1xb4
 614 549 l 1
 536 549 l 1
 465 173 l 2
 454 117 446 53 443 0 c 1
 336 0 l 1x6e
 346 87 l 1
 344 87 l 1
 300 20 240 -11 177 -11 c 0
 90 -11 29 60 29 170 c 0
 29 341 154 498 333 498 c 0
 358 498 387 493 408 484 c 1
 420 549 l 1
 230 549 l 1xae
 243 616 l 1xb4
EndSplineSet
EndChar

StartChar: eng
Encoding: 331 331 235
Width: 550
Flags: MW
HStem: 0 21G<20 136 20 20> 403 95<293.5 412> 467 20G<108 211 211 211>
VStem: 108 98 381 121<352.5 353>
LayerCount: 2
Fore
SplineSet
215 -184 m 1xb8
 204 -88 l 1
 270 -80 313 -51 332 48 c 2
 375 275 l 2
 378 293 381 314 381 333 c 0
 381 373 366 403 320 403 c 0xd8
 267 403 199 339 178 225 c 2
 136 0 l 1
 20 0 l 1
 83 336 l 2
 94 394 102 445 108 487 c 1
 211 487 l 1xb8
 201 399 l 1
 203 399 l 1
 248 465 310 498 377 498 c 0xd8
 447 498 502 456 502 363 c 0
 502 342 498 308 493 283 c 2
 449 52 l 2
 416 -124 330 -177 215 -184 c 1xb8
EndSplineSet
EndChar

StartChar: hbar
Encoding: 295 295 236
Width: 550
Flags: MW
HStem: 0 21G<20 136 20 20 323 439 323 323> 403 95<291.5 412.5> 548 67<253 414> 548 162<240 271 154 414 240 240>
VStem: 381 120<354.5 355.5>
LayerCount: 2
Fore
SplineSet
49 615 m 1xe8
 137 615 l 1xe8
 154 710 l 1
 271 710 l 1xd8
 253 615 l 1
 427 615 l 1xe8
 414 548 l 1
 240 548 l 1xd8
 214 414 l 1
 216 414 l 1
 257 465 311 498 379 498 c 0
 446 498 501 456 501 367 c 0
 501 342 498 308 493 281 c 2
 439 0 l 1
 323 0 l 1
 375 273 l 2
 378 292 381 313 381 337 c 0
 381 374 364 403 320 403 c 0
 263 403 199 335 180 232 c 2
 136 0 l 1
 20 0 l 1
 124 547 l 1
 36 547 l 1
 49 615 l 1xe8
EndSplineSet
EndChar

StartChar: kgreenlandic
Encoding: 312 312 237
Width: 496
Flags: MW
HStem: 0 21G<20 136 20 20 325 325 325 454> 467 20G<112 228 228 228 380 524 524 524>
VStem: 20 504<0 487>
LayerCount: 2
Fore
SplineSet
136 0 m 1
 20 0 l 1
 112 487 l 1
 228 487 l 1
 188 276 l 1
 190 276 l 1
 205 294 221 313 234 328 c 2
 380 487 l 1
 524 487 l 1
 314 286 l 1
 454 0 l 1
 325 0 l 1
 225 223 l 1
 168 169 l 1
 136 0 l 1
EndSplineSet
EndChar

StartChar: napostrophe
Encoding: 329 329 238
Width: 550
Flags: MW
HStem: 0 21G<20 136 20 20 323 323 323 439> 403 95<293.5 412.5> 467 20G<108 211 211 211> 698 20G<91 91>
VStem: 108 98 112 89<650 678> 381 121<323.5 410>
LayerCount: 2
Fore
SplineSet
75 543 m 1xb6
 61 598 l 1
 85 606 112 632 112 668 c 0
 112 688 103 707 91 718 c 1
 175 733 l 1
 187 723 201 699 201 671 c 0
 201 586 126 548 75 543 c 1xb6
136 0 m 1
 20 0 l 1
 83 336 l 2
 95 394 102 445 108 487 c 1
 211 487 l 1xba
 201 399 l 1
 203 399 l 1xda
 248 465 310 498 378 498 c 0
 447 498 502 456 502 364 c 0
 502 342 498 308 493 283 c 2
 439 0 l 1
 323 0 l 1
 375 275 l 2
 378 293 381 314 381 333 c 0
 381 373 366 403 320 403 c 0xd6
 267 403 199 339 178 225 c 2
 136 0 l 1
EndSplineSet
EndChar

StartChar: tbar
Encoding: 359 359 239
Width: 333
Flags: MW
HStem: -11 99<136 230> -1 21G<252 252> 240 67<40 83 27 96 209 288> 397 90<64 113 47 130 244 336>
VStem: 60 120<61 141.5>
LayerCount: 2
Fore
SplineSet
336 397 m 1x78
 227 397 l 1
 209 307 l 1
 301 307 l 1
 288 240 l 1
 196 240 l 1
 188 200 l 2
 184 177 180 152 180 131 c 0
 180 105 192 88 223 88 c 0
 237 88 251 88 263 90 c 1
 252 -1 l 1
 235 -7 204 -11 176 -11 c 0
 96 -11 60 33 60 89 c 0xb8
 60 117 63 144 71 180 c 2
 83 240 l 1
 27 240 l 1
 40 307 l 1
 96 307 l 1
 113 397 l 1
 47 397 l 1
 64 487 l 1
 130 487 l 1
 150 592 l 1
 269 621 l 1
 244 487 l 1
 354 487 l 1
 336 397 l 1x78
EndSplineSet
EndChar

StartChar: uni021D
Encoding: 541 541 240
Width: 418
Flags: MW
HStem: -208 21G<-51 -51> -208 92<-58 -51> 403 95<184.5 199.5>
VStem: 253 121<340 347> 253 124<-7 87>
LayerCount: 2
Fore
SplineSet
-51 -208 m 1xa8
 -58 -116 l 1
 8 -110 253 -79 253 65 c 0x68
 253 109 215 145 144 144 c 0
 123 144 92 139 61 130 c 1
 49 210 l 1
 154 234 253 273 253 347 c 0
 252 380 225 403 174 403 c 0
 126 403 93 387 63 373 c 1
 42 447 l 1
 84 472 149 498 220 498 c 0
 315 498 374 440 374 378 c 0xb0
 374 302 328 256 249 223 c 1
 248 221 l 1
 323 207 377 151 377 80 c 0
 377 -97 162 -198 -51 -208 c 1xa8
EndSplineSet
EndChar

StartChar: IJ
Encoding: 306 306 241
Width: 639
Flags: MW
HStem: -11 103<311 361 311 398.5> 0 21G<22 139 22 22> 654 20G<150 267 267 267 540 657 657 657>
VStem: 22 635
LayerCount: 2
Fore
SplineSet
150 674 m 1xb0
 267 674 l 1
 139 0 l 1
 22 0 l 1x70
 150 674 l 1xb0
222 6 m 1xb0
 246 105 l 1
 267 97 294 92 328 92 c 0
 394 92 437 126 457 234 c 2
 540 674 l 1
 657 674 l 1
 570 221 l 2
 539 56 469 -11 328 -11 c 0
 287 -11 242 -3 222 6 c 1xb0
EndSplineSet
Position2: "'cpsp' Capital Spacing lookup 0 subtable" dx=10 dy=0 dh=20 dv=0
EndChar

StartChar: f_f
Encoding: 64256 64256 242
Width: 600
Flags: MW
HStem: 0 21G<34 151 34 34 326 442 326 326> 397 90<63 109 46 127 242 401 534 618> 615 95<306 341> 624 97<609.5 644.5>
VStem: 34 670
LayerCount: 2
Fore
SplineSet
704 708 m 1xd8
 682 616 l 1
 669 621 654 624 635 624 c 0xd8
 580 624 550 573 538 510 c 2
 534 487 l 1
 635 487 l 1
 618 397 l 1
 517 397 l 1
 442 0 l 1
 326 0 l 1
 401 397 l 1
 225 397 l 1
 151 0 l 1
 34 0 l 1
 109 397 l 1
 46 397 l 1
 63 487 l 1
 127 487 l 1
 130 507 l 2
 142 562 163 619 202 659 c 0
 233 690 276 710 335 710 c 0
 363 710 386 704 403 696 c 1
 370 607 l 1
 360 612 348 615 334 615 c 0xe8
 278 615 256 560 245 506 c 2
 242 487 l 1
 418 487 l 1
 423 512 l 2
 434 574 458 636 504 676 c 0
 539 707 587 721 632 721 c 0
 666 721 691 715 704 708 c 1xd8
EndSplineSet
Ligature2: "'liga' Standard Ligatures lookup 19 subtable" f f
EndChar

StartChar: f_f_i
Encoding: 64259 64259 243
Width: 826
Flags: MW
HStem: 0 21G<34 150 34 34 326 443 326 326 597 714 597 597> 397 90<62 109 45 126 242 401 534 672> 615 95<326 345> 626 95<623.5 687.5> 690 20G<309.5 357>
VStem: 34 772<0 487>
LayerCount: 2
Fore
SplineSet
801 694 m 1xd4
 768 603 l 1
 746 614 709 626 666 626 c 0xd4
 581 626 548 570 537 508 c 2
 534 487 l 1
 806 487 l 1
 714 0 l 1
 597 0 l 1
 672 397 l 1
 517 397 l 1
 443 0 l 1
 326 0 l 1
 401 397 l 1
 225 397 l 1
 150 0 l 1
 34 0 l 1
 109 397 l 1
 45 397 l 1
 62 487 l 1
 126 487 l 1
 131 509 l 2
 142 564 164 618 202 656 c 0
 234 689 279 710 340 710 c 0xe4
 374 710 406 698 421 689 c 1xcc
 381 603 l 1
 369 610 353 615 337 615 c 0
 315 615 298 608 284 595 c 0xe4
 264 575 252 542 245 505 c 2
 242 487 l 1
 419 487 l 1
 423 509 l 2
 448 643 541 721 677 721 c 0
 728 721 780 707 801 694 c 1xd4
EndSplineSet
Ligature2: "'liga' Standard Ligatures lookup 19 subtable" f f i
EndChar

StartChar: f_f_j
Encoding: 57347 57347 244
Width: 813
Flags: MW
HStem: -209 93<517 532 506 551> -202 21G<465 465> 0 21G<34 150 34 34 326 442 326 326> 397 90<62 109 45 126 242 401 534 674> 615 95<326 345> 626 95<623.5 687.5> 690 20G<309.5 357>
VStem: 34 772<0 487>
LayerCount: 2
Fore
SplineSet
801 694 m 1x75
 768 603 l 1
 746 614 709 626 666 626 c 0
 581 626 548 570 537 508 c 2
 534 487 l 1
 806 487 l 1
 716 10 l 2
 701 -72 682 -125 651 -159 c 0
 621 -193 574 -209 528 -209 c 0xb5
 506 -209 485 -207 465 -202 c 1x75
 478 -113 l 1
 488 -115 499 -116 513 -116 c 0
 551 -116 580 -95 598 -2 c 2
 674 397 l 1
 517 397 l 1
 442 0 l 1
 326 0 l 1
 401 397 l 1
 225 397 l 1
 150 0 l 1
 34 0 l 1
 109 397 l 1
 45 397 l 1
 62 487 l 1
 126 487 l 1
 131 509 l 2
 142 564 164 618 202 656 c 0
 234 689 279 710 340 710 c 0xb9
 374 710 405 698 420 689 c 1x73
 381 603 l 1
 369 610 353 615 337 615 c 0
 315 615 298 608 284 595 c 0x79
 264 575 252 542 245 505 c 2
 242 487 l 1
 419 487 l 1
 423 509 l 2
 448 643 541 721 677 721 c 0
 728 721 780 707 801 694 c 1x75
EndSplineSet
Ligature2: "'liga' Standard Ligatures lookup 19 subtable" f f j
EndChar

StartChar: f_f_l
Encoding: 64260 64260 245
Width: 826
Flags: MW
HStem: 0 21G<34 150 34 34 326 442 326 326 597 714 597 597> 397 90<62 109 45 126 242 401 534 609> 615 95<326.5 346.5> 628 93<653 671> 690 20G<309.5 357>
VStem: 34 809<0 684>
LayerCount: 2
Fore
SplineSet
421 691 m 1xcc
 384 604 l 1
 370 611 355 615 338 615 c 0
 315 615 298 606 284 593 c 0xe4
 262 571 251 536 245 506 c 2
 242 487 l 1
 418 487 l 1
 422 508 l 2
 433 570 462 630 518 673 c 0
 561 705 620 721 686 721 c 0
 739 721 806 708 843 684 c 1
 714 0 l 1
 597 0 l 1
 714 617 l 1
 703 623 687 628 655 628 c 0xd4
 588 628 550 576 538 509 c 2
 534 487 l 1
 626 487 l 1
 609 397 l 1
 517 397 l 1
 442 0 l 1
 326 0 l 1
 401 397 l 1
 225 397 l 1
 150 0 l 1
 34 0 l 1
 109 397 l 1
 45 397 l 1
 62 487 l 1
 126 487 l 1
 130 507 l 2
 140 564 163 619 202 656 c 0
 235 690 280 710 339 710 c 0xe4
 375 710 405 699 421 691 c 1xcc
EndSplineSet
Ligature2: "'liga' Standard Ligatures lookup 19 subtable" f f l
EndChar

StartChar: f_i
Encoding: 65537 -1 246
Width: 535
Flags: MW
HStem: 0 21G<35 151 35 35 306 306 306 423> 397 90<64 111 47 128 243 381> 626 95<332.5 396.5>
VStem: 35 480
LayerCount: 2
Fore
SplineSet
151 0 m 1
 35 0 l 1
 111 397 l 1
 47 397 l 1
 64 487 l 1
 128 487 l 1
 132 509 l 2
 156 643 250 721 386 721 c 0
 437 721 489 707 510 694 c 1
 477 603 l 1
 455 614 418 626 375 626 c 0
 290 626 257 570 246 508 c 2
 243 487 l 1
 515 487 l 1
 423 0 l 1
 306 0 l 1
 381 397 l 1
 226 397 l 1
 151 0 l 1
EndSplineSet
Ligature2: "'liga' Standard Ligatures lookup 19 subtable" f i
EndChar

StartChar: f_j
Encoding: 57348 57348 247
Width: 522
Flags: MW
HStem: -209 93<226 240.5 215 260> -202 21G<174 174> 0 21G<35 152 35 35> 397 90<64 110 47 128 243 382> 626 95<332.5 396.5>
VStem: 35 480
LayerCount: 2
Fore
SplineSet
510 694 m 1x7c
 477 603 l 1
 455 614 418 626 375 626 c 0
 290 626 257 570 246 508 c 2
 243 487 l 1
 515 487 l 1
 425 10 l 2
 410 -72 391 -125 360 -159 c 0
 330 -193 283 -209 237 -209 c 0xbc
 215 -209 194 -207 174 -202 c 1x7c
 188 -113 l 1
 197 -115 208 -116 222 -116 c 0xbc
 259 -116 289 -95 307 -2 c 2
 382 397 l 1
 226 397 l 1
 152 0 l 1
 35 0 l 1
 110 397 l 1
 47 397 l 1
 64 487 l 1
 128 487 l 1
 132 509 l 2
 157 643 249 721 386 721 c 0
 437 721 489 707 510 694 c 1x7c
EndSplineSet
Ligature2: "'liga' Standard Ligatures lookup 19 subtable" f j
EndChar

StartChar: f_l
Encoding: 65538 -1 248
Width: 535
Flags: MW
HStem: 0 21G<35 151 35 35 306 306 306 423> 397 90<63 110 46 127 243 318> 628 93<362 380>
VStem: 35 517
LayerCount: 2
Fore
SplineSet
151 0 m 1
 35 0 l 1
 110 397 l 1
 46 397 l 1
 63 487 l 1
 127 487 l 1
 131 508 l 2
 142 570 171 630 227 673 c 0
 270 705 329 721 395 721 c 0
 448 721 515 708 552 684 c 1
 423 0 l 1
 306 0 l 1
 423 617 l 1
 412 623 396 628 364 628 c 0
 297 628 259 576 247 509 c 2
 243 487 l 1
 335 487 l 1
 318 397 l 1
 226 397 l 1
 151 0 l 1
EndSplineSet
Ligature2: "'liga' Standard Ligatures lookup 19 subtable" f l
EndChar

StartChar: ij
Encoding: 307 307 249
Width: 502
Flags: MW
HStem: -209 93<197.5 212.5 187 231.5> -202 21G<146 146> 0 21G<20 136 20 20> 467 20G<112 229 229 229 371 487 487 487> 557 133<182 210.5 436 464.5>
VStem: 131 132<627 640> 385 132<627 640>
LayerCount: 2
Fore
SplineSet
136 0 m 1x7e
 20 0 l 1
 112 487 l 1
 229 487 l 1
 136 0 l 1x7e
191 557 m 0
 155 557 130 583 131 619 c 0
 131 661 163 690 201 690 c 0
 237 690 263 664 263 627 c 0
 262 584 230 557 191 557 c 0
371 487 m 1
 487 487 l 1
 397 10 l 2
 382 -72 363 -125 332 -159 c 0
 302 -193 255 -209 208 -209 c 0xbe
 187 -209 165 -207 146 -202 c 1x7e
 159 -113 l 1
 169 -115 180 -116 194 -116 c 0xbe
 231 -116 261 -95 279 -2 c 2
 371 487 l 1
445 557 m 0
 409 557 384 583 385 619 c 0
 385 661 417 690 455 690 c 0
 491 690 517 664 517 627 c 0
 516 584 484 557 445 557 c 0
EndSplineSet
EndChar

StartChar: zero.slash
Encoding: 63032 63032 250
Width: 519
Flags: MW
HStem: -11 93<214.5 283 214.5 315> 568 93<274 340>
VStem: 41 114<235 241 235 323> 398 114<410 414.5>
LayerCount: 2
Fore
SplineSet
158 201 m 1
 386 523 l 1
 377 547 357 568 323 568 c 0
 225 568 161 384 155 241 c 0
 155 229 155 215 158 201 c 1
396 442 m 1
 170 124 l 1
 179 101 199 82 230 82 c 0
 336 82 390 283 398 410 c 0
 398 419 398 431 396 442 c 1
337 661 m 0
 469 661 512 555 512 447 c 0
 512 239 412 -11 218 -11 c 0
 90 -11 41 90 41 218 c 0
 41 428 149 661 337 661 c 0
EndSplineSet
AlternateSubs2: "'aalt' Access All Alternates lookup 1 subtable" zero.fitted zero.oldstyle zero.taboldstyle zero.superior zero.inferior zero.numerator zero.denominator
EndChar

StartChar: Euro
Encoding: 8364 8364 251
Width: 519
Flags: MW
HStem: -11 97<299 356.5> 242 62<21 78 8 82 200 442> 356 62<43 92 30 110 233 465> 564 97<385 456.5>
VStem: 78 121<242 242>
LayerCount: 2
Fore
SplineSet
462 111 m 1
 476 23 l 1
 445 5 388 -11 325 -11 c 0
 168 -11 81 95 78 242 c 1
 8 242 l 1
 21 304 l 1
 82 304 l 1
 84 321 87 339 92 356 c 1
 30 356 l 1
 43 418 l 1
 110 418 l 1
 159 554 287 661 438 661 c 0
 501 661 546 646 575 631 c 1
 539 542 l 1
 518 552 482 564 431 564 c 0
 339 564 263 494 233 418 c 1
 479 418 l 1
 465 356 l 1
 210 356 l 1
 206 340 202 323 200 304 c 1
 455 304 l 1
 442 242 l 1
 199 242 l 1
 204 155 252 86 346 86 c 0
 392 86 439 100 462 111 c 1
EndSplineSet
Substitution2: "'onum' Oldstyle Figures lookup 15 subtable" Euro.taboldstyle
Substitution2: "'aalt' Access All Alternates lookup 0 subtable" Euro.taboldstyle
EndChar

StartChar: Aringacute
Encoding: 506 506 252
Width: 596
Flags: MW
HStem: 0 21G<-28 96 -28 -28 419 419 419 541> 192 90<225 393 225 400 188 393> 578 96<362 364 362 362> 692 45<385.5 412.5 385.5 426> 818 43<387.5 414.5> 878 86<360 602>
VStem: 300 57<764 786.5 764 797> 444 55<766.5 788.5>
LayerCount: 2
Fore
SplineSet
395 692 m 0
 336 692 300 726 300 772 c 0
 300 822 345 861 407 861 c 0
 464 861 499 829 499 781 c 0
 499 730 457 692 395 692 c 0
398 737 m 0
 427 737 444 755 444 778 c 0
 444 799 428 818 401 818 c 0
 374 818 357 798 357 775 c 0
 357 753 373 737 398 737 c 0
465 964 m 1xe7
 602 964 l 1
 462 878 l 1
 360 878 l 1
 465 964 l 1xe7
400 192 m 1
 188 192 l 1
 96 0 l 1
 -28 0 l 1
 310 674 l 1
 456 674 l 1
 541 0 l 1
 419 0 l 1
 400 192 l 1
225 282 m 1
 393 282 l 1
 374 450 l 2
 371 486 367 538 364 578 c 1
 362 578 l 1
 344 538 326 490 307 450 c 2
 225 282 l 1
EndSplineSet
Position2: "'cpsp' Capital Spacing lookup 0 subtable" dx=10 dy=0 dh=20 dv=0
EndChar

StartChar: estimated
Encoding: 8494 8494 253
Width: 817
Flags: MW
HStem: -11 20<365 458 365 469> 316 19<175.5 641 177 641 641 642.5 177 782> 641 20<365 454>
VStem: 35 137<232 312 338.5 340 340 418> 646 136<316 524>
LayerCount: 2
Fore
SplineSet
782 316 m 2
 177 316 l 2
 174 316 172 315 172 312 c 2
 172 129 l 2
 172 121 176 114 181 108 c 0
 238 47 320 9 410 9 c 0
 506 9 592 52 650 120 c 1
 705 120 l 1
 637 41 529 -11 409 -11 c 0
 203 -11 35 139 35 325 c 0
 35 511 203 661 409 661 c 0
 615 661 782 511 782 325 c 0
 782 322 782 319 782 316 c 2
646 340 m 2
 646 524 l 2
 646 533 642 540 636 546 c 0
 578 604 498 641 410 641 c 0
 320 641 240 603 182 543 c 0
 176 537 172 529 172 520 c 2
 172 340 l 2
 172 337 174 335 177 335 c 2
 641 335 l 2
 644 335 646 337 646 340 c 2
EndSplineSet
EndChar

StartChar: zero.oldstyle
Encoding: 63280 63280 254
Width: 534
Flags: MW
HStem: -11 93<210.5 288 210.5 312.5> 405 93<246 323>
VStem: 32 118<161.5 239 161.5 266.5> 384 117<247 323.5>
LayerCount: 2
Fore
SplineSet
227 -11 m 0
 108 -11 32 75 32 191 c 0
 32 342 138 498 306 498 c 0
 424 498 501 408 501 297 c 0
 501 141 398 -11 227 -11 c 0
241 82 m 0
 335 82 384 202 384 292 c 0
 384 355 353 405 293 405 c 0
 199 405 150 283 150 195 c 0
 150 128 180 82 241 82 c 0
EndSplineSet
Substitution2: "'tnum' Tabular Numbers lookup 18 subtable" zero.taboldstyle
AlternateSubs2: "'aalt' Access All Alternates lookup 1 subtable" zero.taboldstyle
EndChar

StartChar: one.oldstyle
Encoding: 63281 63281 255
Width: 377
Flags: MW
HStem: 0 21G<125 238 125 125> 468 20G<233 330 330 330>
VStem: 54 276<408 488>
LayerCount: 2
Fore
SplineSet
330 488 m 1
 238 0 l 1
 125 0 l 1
 197 377 l 1
 195 377 l 1
 58 315 l 1
 54 408 l 1
 233 488 l 1
 330 488 l 1
EndSplineSet
Substitution2: "'tnum' Tabular Numbers lookup 18 subtable" one.taboldstyle
AlternateSubs2: "'aalt' Access All Alternates lookup 1 subtable" one.taboldstyle
EndChar

StartChar: two.oldstyle
Encoding: 63282 63282 256
Width: 466
Flags: MW
HStem: 0 96<269 395> 402 96<212.5 232>
VStem: 289 123<307.5 352.5>
LayerCount: 2
Fore
SplineSet
413 96 m 1
 395 0 l 1
 -16 0 l 1
 -4 66 l 1
 89 125 l 2
 216 207 289 267 289 327 c 0
 289 378 257 402 207 402 c 0
 163 402 116 377 90 361 c 1
 63 434 l 1
 107 466 172 498 253 498 c 0
 340 498 412 446 412 350 c 0
 412 265 349 202 233 126 c 2
 183 92 l 1
 183 89 l 1
 212 94 244 96 269 96 c 2
 413 96 l 1
EndSplineSet
Substitution2: "'tnum' Tabular Numbers lookup 18 subtable" two.taboldstyle
AlternateSubs2: "'aalt' Access All Alternates lookup 1 subtable" two.taboldstyle
EndChar

StartChar: three.oldstyle
Encoding: 63283 63283 257
Width: 446
Flags: MW
HStem: -121 94<85.5 147.5 85.5 178> 159 86<121.5 169.5> 403 95<207 229>
VStem: 259 122<44 104.5> 283 118<345 408>
LayerCount: 2
Fore
SplineSet
-29 -98 m 1xf0
 -2 -9 l 1
 21 -18 66 -27 105 -27 c 0
 190 -27 259 12 259 76 c 0xf0
 259 133 200 159 139 159 c 0
 119 159 101 159 85 158 c 1
 102 243 l 1
 110 244 118 245 125 245 c 0
 182 249 282 279 283 345 c 0
 283 383 253 403 205 403 c 0
 160 403 118 387 89 371 c 1
 69 448 l 1
 111 476 174 498 240 498 c 0
 336 498 401 448 401 368 c 0xe8
 400 285 329 236 261 216 c 1
 260 214 l 1
 327 201 381 156 381 79 c 0
 381 -52 246 -121 110 -121 c 0
 53 -121 1 -111 -29 -98 c 1xf0
EndSplineSet
Substitution2: "'tnum' Tabular Numbers lookup 18 subtable" three.taboldstyle
AlternateSubs2: "'aalt' Access All Alternates lookup 1 subtable" three.taboldstyle
EndChar

StartChar: four.oldstyle
Encoding: 63284 63284 258
Width: 523
Flags: MW
HStem: -119 21G<240 348 240 240> 42 89<129 271 396 460> 398 94<338 341 338 338>
VStem: -7 484<42 131>
LayerCount: 2
Fore
SplineSet
378 42 m 1
 348 -119 l 1
 240 -119 l 1
 271 42 l 1
 -7 42 l 1
 8 120 l 1
 326 492 l 1
 463 492 l 1
 396 131 l 1
 477 131 l 1
 460 42 l 1
 378 42 l 1
287 131 m 1
 317 288 l 2
 324 323 332 365 341 398 c 1
 338 398 l 1
 319 367 293 331 272 304 c 2
 128 136 l 1
 129 131 l 1
 287 131 l 1
EndSplineSet
Substitution2: "'tnum' Tabular Numbers lookup 18 subtable" four.taboldstyle
AlternateSubs2: "'aalt' Access All Alternates lookup 1 subtable" four.taboldstyle
EndChar

StartChar: five.oldstyle
Encoding: 63285 63285 259
Width: 439
Flags: MW
HStem: -121 94<91.5 154.5 91.5 193> 187 81 388 99<211 405 211 211>
VStem: 265 122<51.5 98.5>
LayerCount: 2
Fore
SplineSet
-19 -98 m 1
 7 -10 l 1
 32 -19 72 -27 111 -27 c 0
 198 -27 265 16 265 87 c 0
 265 110 257 132 241 147 c 0
 203 184 114 190 46 187 c 1
 145 487 l 1
 436 487 l 1
 405 388 l 1
 211 388 l 1
 170 268 l 1
 237 267 301 249 342 209 c 0
 370 181 387 144 387 100 c 0
 387 -38 270 -121 116 -121 c 0
 59 -121 7 -110 -19 -98 c 1
EndSplineSet
Substitution2: "'tnum' Tabular Numbers lookup 18 subtable" five.taboldstyle
AlternateSubs2: "'aalt' Access All Alternates lookup 1 subtable" five.taboldstyle
EndChar

StartChar: six.oldstyle
Encoding: 63286 63286 260
Width: 524
Flags: MW
HStem: -11 92<214 273 214 303> 320 80<249.5 371.5> 524 87<485 492>
VStem: 38 114<155.5 204 155.5 238> 362 120<186 255.5>
LayerCount: 2
Fore
SplineSet
240 81 m 0
 306 81 362 147 362 225 c 0
 362 286 322 320 274 320 c 0
 225 320 193 294 175 265 c 0
 160 246 152 219 152 189 c 0
 152 122 188 81 240 81 c 0
485 611 m 1
 492 524 l 1
 389 515 298 482 245 428 c 0
 218 401 201 374 189 345 c 1
 191 344 l 1
 220 373 268 400 330 400 c 0
 413 400 482 338 482 236 c 0
 482 101 374 -11 232 -11 c 0
 121 -11 38 62 38 200 c 0
 38 276 70 390 156 475 c 0
 229 548 338 606 485 611 c 1
EndSplineSet
Substitution2: "'tnum' Tabular Numbers lookup 18 subtable" six.taboldstyle
AlternateSubs2: "'aalt' Access All Alternates lookup 1 subtable" six.taboldstyle
EndChar

StartChar: seven.oldstyle
Encoding: 63287 63287 261
Width: 462
Flags: MW
HStem: -121 21G<96 96> 386 101<68 321 50 465>
VStem: -13 478
LayerCount: 2
Fore
SplineSet
465 487 m 1
 452 411 l 1
 399 299 225 38 96 -121 c 1
 -13 -95 l 1
 93 30 246 245 321 384 c 1
 321 386 l 1
 50 386 l 1
 68 487 l 1
 465 487 l 1
EndSplineSet
Substitution2: "'tnum' Tabular Numbers lookup 18 subtable" seven.taboldstyle
AlternateSubs2: "'aalt' Access All Alternates lookup 1 subtable" seven.taboldstyle
EndChar

StartChar: eight.oldstyle
Encoding: 63288 63288 262
Width: 540
Flags: MW
HStem: -11 86<224.5 283 224.5 302.5> 529 84<281.5 336.5>
VStem: 31 123<136 191 136 192.5> 101 110<427.5 473 427.5 491> 364 122<144 195> 393 113<431.5 474.5>
LayerCount: 2
Fore
SplineSet
318 613 m 0xd4
 429 613 506 550 506 463 c 0xe4
 506 394 454 354 387 321 c 1
 387 319 l 1
 443 288 486 240 486 180 c 0
 486 60 363 -11 242 -11 c 0
 113 -11 31 56 31 152 c 0xe8
 31 233 99 284 177 318 c 1
 177 321 l 1
 131 347 101 389 101 439 c 0
 101 543 204 613 318 613 c 0xd4
309 529 m 0
 254 529 211 496 211 450 c 0
 211 405 253 377 305 357 c 1
 353 376 393 408 393 455 c 0
 393 494 364 529 309 529 c 0
252 75 m 0xe8
 314 75 364 117 364 171 c 0
 364 219 322 251 262 277 c 1
 208 257 154 219 154 163 c 0
 154 109 197 75 252 75 c 0xe8
EndSplineSet
Substitution2: "'tnum' Tabular Numbers lookup 18 subtable" eight.taboldstyle
AlternateSubs2: "'aalt' Access All Alternates lookup 1 subtable" eight.taboldstyle
EndChar

StartChar: nine.oldstyle
Encoding: 63289 63289 263
Width: 526
Flags: MW
HStem: -120 21G<45 45> -120 98 87 81<221.5 232.5> 405 93<250 308>
VStem: 44 119<233 302.5 233 319> 372 115<283.5 332.5>
LayerCount: 2
Fore
SplineSet
245 168 m 0xbc
 284 168 322 190 346 220 c 0
 361 236 372 268 372 299 c 0
 372 366 335 405 281 405 c 0
 219 405 163 342 163 263 c 0
 163 203 198 168 245 168 c 0xbc
45 -120 m 1
 40 -31 l 1
 64 -30 93 -28 123 -22 c 0x7c
 242 -1 312 71 340 143 c 1
 337 144 l 1
 312 115 261 87 204 87 c 0
 105 87 44 158 44 251 c 0
 44 387 157 498 296 498 c 0
 412 498 487 407 487 285 c 0
 487 89 352 -85 115 -116 c 0
 88 -119 63 -121 45 -120 c 1
EndSplineSet
Substitution2: "'tnum' Tabular Numbers lookup 18 subtable" nine.taboldstyle
AlternateSubs2: "'aalt' Access All Alternates lookup 1 subtable" nine.taboldstyle
EndChar

StartChar: percent.oldstyle
Encoding: 63042 63042 264
Width: 831
Flags: MW
HStem: -8 69<588 639.5 588 655> 213 70<161 212.5 161 228> 323 69<620 671.5> 544 69<193 245>
VStem: 35 91<340 397.5 340 426.5> 278 91<434 487.5> 462 91<118 176 118 205> 705 91<212.5 266>
LayerCount: 2
Fore
SplineSet
236 613 m 0
 323 613 369 549 369 471 c 0
 369 328 285 213 171 213 c 0
 90 213 35 271 35 363 c 0
 35 490 114 613 236 613 c 0
224 544 m 0
 162 544 126 434 126 361 c 0
 126 319 141 283 181 283 c 0
 244 283 278 399 278 469 c 0
 278 506 266 544 224 544 c 0
225 -12 m 1
 151 -12 l 1
 602 613 l 1
 676 613 l 1
 225 -12 l 1
663 392 m 0
 750 392 796 328 796 249 c 0
 796 106 712 -8 598 -8 c 0
 516 -8 462 49 462 142 c 0
 462 268 540 392 663 392 c 0
651 323 m 0
 589 323 553 213 553 139 c 0
 553 97 568 61 608 61 c 0
 671 61 705 177 705 248 c 0
 705 284 692 323 651 323 c 0
EndSplineSet
Substitution2: "'lnum' Lining Figures lookup 16 subtable" percent
Substitution2: "'aalt' Access All Alternates lookup 0 subtable" percent
EndChar

StartChar: zero.fitted
Encoding: 63033 63033 265
Width: 519
Flags: MW
HStem: -11 93<200 287.5 200 315> 568 93<271.5 356>
VStem: 41 115<185 275.5 185 323> 396 116<390.5 467>
LayerCount: 2
Fore
SplineSet
337 661 m 0
 469 661 512 555 512 447 c 0
 512 239 412 -11 218 -11 c 0
 90 -11 41 90 41 218 c 0
 41 428 149 661 337 661 c 0
323 568 m 0
 220 568 156 337 156 214 c 0
 156 156 167 82 233 82 c 0
 342 82 396 338 396 443 c 0
 396 491 389 568 323 568 c 0
EndSplineSet
Substitution2: "'zero' Slashed Zero lookup 20 subtable" zero.slashfitted
Substitution2: "'tnum' Tabular Numbers lookup 18 subtable" zero
AlternateSubs2: "'aalt' Access All Alternates lookup 1 subtable" zero zero.slashfitted
EndChar

StartChar: one.fitted
Encoding: 63196 63196 266
Width: 373
Flags: MW
HStem: 0 21G<148 148 148 261> 630 20G<287 384 384 384>
VStem: 121 263<573 650>
LayerCount: 2
Fore
SplineSet
148 0 m 1
 250 538 l 1
 248 538 l 1
 128 482 l 1
 121 573 l 1
 287 650 l 1
 384 650 l 1
 261 0 l 1
 148 0 l 1
EndSplineSet
Substitution2: "'tnum' Tabular Numbers lookup 18 subtable" one
AlternateSubs2: "'aalt' Access All Alternates lookup 1 subtable" one
EndChar

StartChar: two.fitted
Encoding: 63034 63034 267
Width: 473
Flags: MW
HStem: 0 99<172 405> 563 98<258 298>
VStem: 360 120<429 498>
LayerCount: 2
Fore
SplineSet
405 0 m 1
 -17 0 l 1
 -2 76 l 1
 118 172 l 2
 268 296 360 383 360 475 c 0
 360 521 331 563 265 563 c 0
 207 563 161 542 129 520 c 1
 103 604 l 1
 153 637 224 661 292 661 c 0
 420 661 480 582 480 492 c 0
 480 357 365 252 232 146 c 1
 172 101 l 1
 172 99 l 1
 423 99 l 1
 405 0 l 1
EndSplineSet
Substitution2: "'tnum' Tabular Numbers lookup 18 subtable" two
AlternateSubs2: "'aalt' Access All Alternates lookup 1 subtable" two
EndChar

StartChar: three.fitted
Encoding: 63035 63035 268
Width: 456
Flags: MW
HStem: -11 99<134 212 134 233> 302 90<162 173 144 189> 563 98<247 285>
VStem: 309 122<173.5 237> 341 124<472.5 515.5>
LayerCount: 2
Fore
SplineSet
-6 32 m 1xf0
 30 123 l 1
 56 109 103 88 165 88 c 0
 259 88 309 144 309 203 c 0xf0
 309 271 254 302 173 302 c 2
 144 302 l 1
 162 392 l 1
 189 392 l 2
 254 392 341 425 341 495 c 0
 341 536 314 563 256 563 c 0
 203 563 157 548 127 529 c 1
 108 617 l 1
 152 643 216 661 278 661 c 0
 387 661 465 604 465 514 c 0xe8
 465 431 398 371 320 350 c 1
 319 348 l 1
 389 333 431 275 431 204 c 0
 431 73 304 -11 162 -11 c 0
 85 -11 20 10 -6 32 c 1xf0
EndSplineSet
Substitution2: "'tnum' Tabular Numbers lookup 18 subtable" three
AlternateSubs2: "'aalt' Access All Alternates lookup 1 subtable" three
EndChar

StartChar: four.fitted
Encoding: 63036 63036 269
Width: 519
Flags: MW
HStem: 0 21G<257 367 257 257> 167 91<145 289 416 480> 549 101<366 370 366 366>
VStem: 11 486<167 258>
LayerCount: 2
Fore
SplineSet
367 0 m 1
 257 0 l 1
 289 167 l 1
 11 167 l 1
 26 245 l 1
 352 650 l 1
 490 650 l 1
 416 258 l 1
 497 258 l 1
 480 167 l 1
 399 167 l 1
 367 0 l 1
145 258 m 1
 306 258 l 1
 342 433 l 2
 350 471 361 512 370 549 c 1
 366 549 l 1
 338 507 316 471 286 431 c 2
 146 260 l 1
 145 258 l 1
EndSplineSet
Substitution2: "'tnum' Tabular Numbers lookup 18 subtable" four
AlternateSubs2: "'aalt' Access All Alternates lookup 1 subtable" four
EndChar

StartChar: five.fitted
Encoding: 63037 63037 270
Width: 472
Flags: MW
HStem: -11 98<133 200.5 133 232.5> 332 90<146.5 261.5> 550 100<252 478 252 252>
VStem: 320 121<181 252.5>
LayerCount: 2
Fore
SplineSet
499 650 m 1
 478 550 l 1
 252 550 l 1
 213 420 l 1
 223 422 231 422 242 422 c 0
 281 422 329 413 367 386 c 0
 416 356 441 301 441 242 c 0
 441 82 309 -11 156 -11 c 0
 85 -11 24 8 0 26 c 1
 32 119 l 1
 57 104 106 87 160 87 c 0
 241 87 320 141 320 221 c 0
 320 284 284 332 161 332 c 0
 132 332 110 330 84 328 c 1
 176 650 l 1
 499 650 l 1
EndSplineSet
Substitution2: "'tnum' Tabular Numbers lookup 18 subtable" five
AlternateSubs2: "'aalt' Access All Alternates lookup 1 subtable" five
EndChar

StartChar: six.fitted
Encoding: 63038 63038 271
Width: 519
Flags: MW
HStem: -11 91<211 279.5 211 310> 344 89<297.5 303.5> 563 96<468.5 494>
VStem: 34 115<163 203.5 163 285> 367 120<204.5 275>
LayerCount: 2
Fore
SplineSet
494 659 m 1
 477 563 l 1
 460 563 442 563 420 560 c 0
 302 544 216 469 178 369 c 1
 180 368 l 1
 216 408 270 433 325 433 c 0
 424 432 487 357 487 253 c 0
 487 119 384 -11 236 -11 c 0
 101 -11 34 85 34 210 c 0
 34 360 109 492 196 563 c 0
 266 619 353 651 439 658 c 0
 463 660 480 660 494 659 c 1
241 80 m 0
 318 80 367 167 367 242 c 0
 367 308 331 344 276 344 c 0
 231 344 189 315 163 271 c 0
 157 261 153 249 152 239 c 0
 150 225 149 211 149 196 c 0
 149 130 181 80 241 80 c 0
EndSplineSet
Substitution2: "'tnum' Tabular Numbers lookup 18 subtable" six
AlternateSubs2: "'aalt' Access All Alternates lookup 1 subtable" six
EndChar

StartChar: seven.fitted
Encoding: 63039 63039 272
Width: 444
Flags: MW
HStem: 0 21G<8 137 8 8> 550 100<101 370 82 518>
VStem: 8 510
LayerCount: 2
Fore
SplineSet
101 650 m 1
 518 650 l 1
 503 571 l 1
 382 381 260 191 137 0 c 1
 8 0 l 1
 130 183 251 366 371 548 c 1
 370 550 l 1
 82 550 l 1
 101 650 l 1
EndSplineSet
Substitution2: "'tnum' Tabular Numbers lookup 18 subtable" seven
AlternateSubs2: "'aalt' Access All Alternates lookup 1 subtable" seven
EndChar

StartChar: eight.fitted
Encoding: 63040 63040 273
Width: 517
Flags: MW
HStem: -11 86<207 269.5 207 287.5> 575 86<282 339>
VStem: 20 122<143 201.5> 98 112<455 503.5 455 527> 353 122<151.5 213.5> 391 113<471.5 515.5>
LayerCount: 2
Fore
SplineSet
324 661 m 0xd4
 426 661 504 605 504 508 c 0xe4
 504 435 455 381 383 347 c 1
 382 344 l 1
 444 310 475 253 475 196 c 0
 475 60 348 -11 227 -11 c 0
 97 -11 20 59 20 154 c 0xe8
 20 249 88 312 165 343 c 1
 166 346 l 1
 118 381 98 424 98 470 c 0
 98 584 203 661 324 661 c 0xd4
239 75 m 0xe8
 300 75 353 118 353 185 c 0
 353 242 316 277 255 299 c 1
 198 284 142 239 142 168 c 0
 142 118 175 75 239 75 c 0xe8
310 575 m 0xd4
 254 575 210 529 210 478 c 0
 210 432 242 401 295 383 c 1
 346 400 391 441 391 495 c 0
 391 536 368 575 310 575 c 0xd4
EndSplineSet
Substitution2: "'tnum' Tabular Numbers lookup 18 subtable" eight
AlternateSubs2: "'aalt' Access All Alternates lookup 1 subtable" eight
EndChar

StartChar: nine.fitted
Encoding: 63041 63041 274
Width: 520
Flags: MW
HStem: -9 99 227 89<244.5 256.5> 570 91<275.5 340.5>
VStem: 67 119<385 453 385 468.5> 397 118<451.5 492.5>
LayerCount: 2
Fore
SplineSet
50 -9 m 1
 64 88 l 1
 81 86 100 87 126 90 c 0
 171 95 218 111 258 141 c 0
 306 174 345 223 370 284 c 1
 367 285 l 1
 332 246 280 227 233 227 c 0
 128 227 67 304 67 400 c 0
 67 537 179 661 320 661 c 0
 455 661 515 565 515 444 c 0
 514 286 430 147 348 80 c 0
 286 29 203 -1 125 -8 c 0
 91 -10 70 -10 50 -9 c 1
310 570 m 0
 241 570 186 492 186 414 c 0
 186 356 218 316 271 316 c 0
 317 316 355 340 377 373 c 0
 383 381 388 390 391 403 c 0
 395 418 397 441 397 462 c 0
 397 523 371 570 310 570 c 0
EndSplineSet
Substitution2: "'tnum' Tabular Numbers lookup 18 subtable" nine
AlternateSubs2: "'aalt' Access All Alternates lookup 1 subtable" nine
EndChar

StartChar: zero.slashfitted
Encoding: 57352 57352 275
Width: 519
Flags: MW
HStem: -11 93<214.5 283 214.5 315> 568 93<274 340>
VStem: 41 114<235 241 235 323> 398 114<410 414.5>
LayerCount: 2
Fore
SplineSet
158 201 m 1
 386 523 l 1
 377 547 357 568 323 568 c 0
 225 568 161 384 155 241 c 0
 155 229 155 215 158 201 c 1
396 442 m 1
 170 124 l 1
 179 101 199 82 230 82 c 0
 336 82 390 283 398 410 c 0
 398 419 398 431 396 442 c 1
337 661 m 0
 469 661 512 555 512 447 c 0
 512 239 412 -11 218 -11 c 0
 90 -11 41 90 41 218 c 0
 41 428 149 661 337 661 c 0
EndSplineSet
AlternateSubs2: "'aalt' Access All Alternates lookup 1 subtable" zero.fitted zero.oldstyle zero.taboldstyle zero.superior zero.inferior zero.numerator zero.denominator
EndChar

StartChar: zero.taboldstyle
Encoding: 63043 63043 276
Width: 534
Flags: MW
HStem: -11 93<210.5 288 210.5 312.5> 405 93<246 323>
VStem: 32 118<161.5 239 161.5 266.5> 384 117<247 323.5>
LayerCount: 2
Fore
SplineSet
227 -11 m 0
 108 -11 32 75 32 191 c 0
 32 342 138 498 306 498 c 0
 424 498 501 408 501 297 c 0
 501 141 398 -11 227 -11 c 0
241 82 m 0
 335 82 384 202 384 292 c 0
 384 355 353 405 293 405 c 0
 199 405 150 283 150 195 c 0
 150 128 180 82 241 82 c 0
EndSplineSet
Substitution2: "'pnum' Proportional Numbers lookup 17 subtable" zero.oldstyle
Substitution2: "'lnum' Lining Figures lookup 16 subtable" zero
AlternateSubs2: "'aalt' Access All Alternates lookup 1 subtable" zero zero.oldstyle
EndChar

StartChar: one.taboldstyle
Encoding: 63044 63044 277
Width: 534
Flags: MW
HStem: 0 21G<220 332 220 220> 468 20G<328 424 424 424>
VStem: 100 324<408 488>
LayerCount: 2
Fore
SplineSet
424 488 m 1
 332 0 l 1
 220 0 l 1
 292 382 l 1
 290 382 l 1
 101 316 l 1
 100 408 l 1
 328 488 l 1
 424 488 l 1
EndSplineSet
Substitution2: "'pnum' Proportional Numbers lookup 17 subtable" one.oldstyle
Substitution2: "'lnum' Lining Figures lookup 16 subtable" one
AlternateSubs2: "'aalt' Access All Alternates lookup 1 subtable" one one.oldstyle
EndChar

StartChar: two.taboldstyle
Encoding: 63045 63045 278
Width: 534
Flags: MW
HStem: 0 96<291 417> 402 96<234.5 254>
VStem: 311 123<307.5 352.5>
LayerCount: 2
Fore
SplineSet
435 96 m 1
 417 0 l 1
 6 0 l 1
 18 66 l 1
 111 125 l 2
 238 207 311 267 311 327 c 0
 311 378 279 402 229 402 c 0
 185 402 138 377 112 361 c 1
 86 434 l 1
 129 466 194 498 275 498 c 0
 362 498 434 446 434 350 c 0
 434 265 371 202 255 126 c 2
 205 92 l 1
 205 89 l 1
 234 94 266 96 291 96 c 2
 435 96 l 1
EndSplineSet
Substitution2: "'pnum' Proportional Numbers lookup 17 subtable" two.oldstyle
Substitution2: "'lnum' Lining Figures lookup 16 subtable" two
AlternateSubs2: "'aalt' Access All Alternates lookup 1 subtable" two two.oldstyle
EndChar

StartChar: three.taboldstyle
Encoding: 63046 63046 279
Width: 534
Flags: MW
HStem: -121 94<113.5 175.5 113.5 206> 159 86<149 197.5> 403 95<234.5 256.5>
VStem: 287 122<44 104.5> 310 119<345 408>
LayerCount: 2
Fore
SplineSet
-2 -98 m 1xf0
 25 -9 l 1
 49 -18 94 -27 133 -27 c 0
 218 -27 287 12 287 76 c 0xf0
 287 133 228 159 167 159 c 0
 146 159 129 159 113 158 c 1
 130 243 l 1
 138 244 145 245 153 245 c 0
 209 249 309 279 310 345 c 0
 310 383 280 403 233 403 c 0
 188 403 146 387 117 371 c 1
 96 448 l 1
 139 476 201 498 268 498 c 0
 364 498 429 448 429 368 c 0xe8
 427 285 356 236 288 216 c 1
 288 214 l 1
 354 201 409 156 409 79 c 0
 409 -52 274 -121 138 -121 c 0
 80 -121 29 -111 -2 -98 c 1xf0
EndSplineSet
Substitution2: "'pnum' Proportional Numbers lookup 17 subtable" three.oldstyle
Substitution2: "'lnum' Lining Figures lookup 16 subtable" three
AlternateSubs2: "'aalt' Access All Alternates lookup 1 subtable" three three.oldstyle
EndChar

StartChar: four.taboldstyle
Encoding: 63047 63047 280
Width: 534
Flags: MW
HStem: -119 21G<248 356 248 248> 42 89<137 279 404 468> 398 94<346 349 346 346>
VStem: 1 484<42 131>
LayerCount: 2
Fore
SplineSet
386 42 m 1
 356 -119 l 1
 248 -119 l 1
 279 42 l 1
 1 42 l 1
 16 120 l 1
 334 492 l 1
 471 492 l 1
 404 131 l 1
 485 131 l 1
 468 42 l 1
 386 42 l 1
295 131 m 1
 325 288 l 2
 332 323 341 365 349 398 c 1
 346 398 l 1
 327 367 302 331 280 304 c 2
 136 136 l 1
 137 131 l 1
 295 131 l 1
EndSplineSet
Substitution2: "'pnum' Proportional Numbers lookup 17 subtable" four.oldstyle
Substitution2: "'lnum' Lining Figures lookup 16 subtable" four
AlternateSubs2: "'aalt' Access All Alternates lookup 1 subtable" four four.oldstyle
EndChar

StartChar: five.taboldstyle
Encoding: 63048 63048 281
Width: 534
Flags: MW
HStem: -121 94<117.5 180.5 117.5 218.5> 187 81 388 99<237 431 237 237>
VStem: 291 121<51.5 98.5>
LayerCount: 2
Fore
SplineSet
6 -98 m 1
 32 -10 l 1
 57 -19 98 -27 137 -27 c 0
 224 -27 291 16 291 87 c 0
 291 110 283 132 267 147 c 0
 229 184 140 190 72 187 c 1
 171 487 l 1
 462 487 l 1
 431 388 l 1
 237 388 l 1
 196 268 l 1
 263 267 327 249 368 209 c 0
 396 181 412 144 412 100 c 0
 412 -38 296 -121 141 -121 c 0
 84 -121 33 -110 6 -98 c 1
EndSplineSet
Substitution2: "'pnum' Proportional Numbers lookup 17 subtable" five.oldstyle
Substitution2: "'lnum' Lining Figures lookup 16 subtable" five
AlternateSubs2: "'aalt' Access All Alternates lookup 1 subtable" five five.oldstyle
EndChar

StartChar: six.taboldstyle
Encoding: 63049 63049 282
Width: 534
Flags: MW
HStem: -11 92<216.5 276 216.5 305.5> 320 80<252 374> 524 87<487 495>
VStem: 40 115<155.5 204 155.5 238> 365 119<186 255.5>
LayerCount: 2
Fore
SplineSet
243 81 m 0
 309 81 365 147 365 225 c 0
 365 286 325 320 277 320 c 0
 227 320 196 294 177 265 c 0
 163 246 155 219 155 189 c 0
 155 122 190 81 243 81 c 0
487 611 m 1
 495 524 l 1
 392 515 301 482 248 428 c 0
 221 401 203 374 192 345 c 1
 193 344 l 1
 223 373 270 400 333 400 c 0
 415 400 484 338 484 236 c 0
 484 101 376 -11 235 -11 c 0
 124 -11 40 62 40 200 c 0
 40 276 73 390 158 475 c 0
 232 548 341 606 487 611 c 1
EndSplineSet
Substitution2: "'pnum' Proportional Numbers lookup 17 subtable" six.oldstyle
Substitution2: "'lnum' Lining Figures lookup 16 subtable" six
AlternateSubs2: "'aalt' Access All Alternates lookup 1 subtable" six six.oldstyle
EndChar

StartChar: seven.taboldstyle
Encoding: 63050 63050 283
Width: 534
Flags: MW
HStem: -121 21G<113 113> 386 101<84 338 66 482>
VStem: 3 479
LayerCount: 2
Fore
SplineSet
482 487 m 1
 468 411 l 1
 416 299 241 38 113 -121 c 1
 3 -95 l 1
 109 30 262 245 338 384 c 1
 338 386 l 1
 66 386 l 1
 84 487 l 1
 482 487 l 1
EndSplineSet
Substitution2: "'pnum' Proportional Numbers lookup 17 subtable" seven.oldstyle
Substitution2: "'lnum' Lining Figures lookup 16 subtable" seven
AlternateSubs2: "'aalt' Access All Alternates lookup 1 subtable" seven seven.oldstyle
EndChar

StartChar: eight.taboldstyle
Encoding: 63051 63051 284
Width: 534
Flags: MW
HStem: -11 86<225 283 225 303> 529 84<282 337>
VStem: 32 122<136 191 136 192.5> 101 111<427.5 473 427.5 491> 364 123<144 195> 394 112<431.5 474.5>
LayerCount: 2
Fore
SplineSet
319 613 m 0xd4
 430 613 506 550 506 463 c 0xe4
 506 394 455 354 388 321 c 1
 388 319 l 1
 444 288 487 240 487 180 c 0
 487 60 363 -11 243 -11 c 0
 113 -11 32 56 32 152 c 0xe8
 32 233 100 284 178 318 c 1
 178 321 l 1
 131 347 101 389 101 439 c 0
 101 543 205 613 319 613 c 0xd4
310 529 m 0
 254 529 212 496 212 450 c 0
 212 405 254 377 306 357 c 1
 354 376 394 408 394 455 c 0
 394 494 364 529 310 529 c 0
252 75 m 0xe8
 314 75 364 117 364 171 c 0
 364 219 323 251 263 277 c 1
 208 257 154 219 154 163 c 0
 154 109 198 75 252 75 c 0xe8
EndSplineSet
Substitution2: "'pnum' Proportional Numbers lookup 17 subtable" eight.oldstyle
Substitution2: "'lnum' Lining Figures lookup 16 subtable" eight
AlternateSubs2: "'aalt' Access All Alternates lookup 1 subtable" eight eight.oldstyle
EndChar

StartChar: nine.taboldstyle
Encoding: 63052 63052 285
Width: 534
Flags: MW
HStem: -120 21G<46 46> -120 98 87 81<222 233> 405 93<250 308>
VStem: 45 119<233 302.5 233 319> 372 116<283.5 332.5>
LayerCount: 2
Fore
SplineSet
245 168 m 0xbc
 285 168 322 190 347 220 c 0
 361 236 372 268 372 299 c 0
 372 366 335 405 281 405 c 0
 219 405 164 342 164 263 c 0
 164 203 199 168 245 168 c 0xbc
46 -120 m 1
 40 -31 l 1
 64 -30 93 -28 124 -22 c 0x7c
 243 -1 312 71 340 143 c 1
 338 144 l 1
 312 115 261 87 205 87 c 0
 105 87 45 158 45 251 c 0
 45 387 157 498 296 498 c 0
 413 498 488 407 488 285 c 0
 488 89 352 -85 116 -116 c 0
 88 -119 64 -121 46 -120 c 1
EndSplineSet
Substitution2: "'pnum' Proportional Numbers lookup 17 subtable" nine.oldstyle
Substitution2: "'lnum' Lining Figures lookup 16 subtable" nine
AlternateSubs2: "'aalt' Access All Alternates lookup 1 subtable" nine nine.oldstyle
EndChar

StartChar: dollar.taboldstyle
Encoding: 63059 63059 286
Width: 534
Flags: MW
HStem: -85 170<192 240.5 192 244 174 240.5> 406 168<303 347.5>
VStem: 116 121<339.5 369.5 339.5 376> 315 126<124.5 155.5>
LayerCount: 2
Fore
SplineSet
244 -85 m 1
 174 -85 l 1
 189 -2 l 1
 133 0 79 19 49 42 c 1
 90 123 l 1
 115 105 167 85 217 85 c 0
 264 85 315 104 315 145 c 0
 315 166 302 187 234 213 c 0
 148 245 116 280 116 331 c 0
 116 421 200 473 286 485 c 1
 303 574 l 1
 375 574 l 1
 359 488 l 1
 407 484 451 469 475 453 c 1
 436 374 l 1
 412 390 370 406 325 406 c 0
 280 406 237 387 237 352 c 0
 237 327 253 315 320 289 c 0
 403 259 441 219 441 167 c 0
 441 70 349 13 261 1 c 1
 244 -85 l 1
EndSplineSet
Substitution2: "'lnum' Lining Figures lookup 16 subtable" dollar
AlternateSubs2: "'aalt' Access All Alternates lookup 1 subtable" dollar
EndChar

StartChar: cent.taboldstyle
Encoding: 63060 63060 287
Width: 534
Flags: MW
HStem: 42 84<282 282> 375 150<304 353>
VStem: 65 113<189.5 262 189.5 264>
LayerCount: 2
Fore
SplineSet
390 147 m 1
 392 67 l 1
 367 56 321 44 282 42 c 1
 269 -31 l 1
 199 -31 l 1
 213 44 l 1
 126 56 65 115 65 202 c 0
 65 326 158 434 291 454 c 1
 304 525 l 1
 373 525 l 1
 361 457 l 1
 393 456 436 443 456 432 c 1
 423 352 l 1
 406 362 369 375 337 375 c 0
 241 375 178 304 178 220 c 0
 178 159 221 126 287 126 c 0
 325 126 365 137 390 147 c 1
EndSplineSet
Substitution2: "'lnum' Lining Figures lookup 16 subtable" cent
AlternateSubs2: "'aalt' Access All Alternates lookup 1 subtable" cent
EndChar

StartChar: Euro.taboldstyle
Encoding: 63054 63054 288
Width: 534
Flags: MW
HStem: -11 92<304.5 336.5> 180 60<46 95 33 97 212 212 212 418> 288 59<70 105 56 123 238 441> 449 90<369 427.5>
VStem: 33 499<180 513> 97 112<240 240>
LayerCount: 2
Fore
SplineSet
447 105 m 1xf8
 454 18 l 1
 425 2 367 -11 306 -11 c 0
 185 -11 104 63 95 180 c 1
 33 180 l 1
 46 240 l 1
 97 240 l 1
 98 256 101 273 105 288 c 1
 56 288 l 1
 70 347 l 1
 123 347 l 1
 168 463 277 539 409 539 c 0
 469 539 509 525 532 513 c 1
 498 429 l 1
 478 439 447 449 408 449 c 0
 330 449 269 407 238 347 c 1
 454 347 l 1
 441 288 l 1
 216 288 l 1
 212 271 210 257 209 240 c 1xf4
 430 240 l 1
 418 180 l 1
 212 180 l 1
 223 116 272 81 337 81 c 0
 376 81 422 93 447 105 c 1xf8
EndSplineSet
Substitution2: "'lnum' Lining Figures lookup 16 subtable" Euro
Substitution2: "'aalt' Access All Alternates lookup 0 subtable" Euro
EndChar

StartChar: florin.taboldstyle
Encoding: 63055 63055 289
Width: 534
Flags: MW
HStem: -125 92<50.5 80.5 50.5 125.5> 270 87<128 199 117 221 333 429> 520 93<422 458>
VStem: -17 544
LayerCount: 2
Fore
SplineSet
527 595 m 1
 496 510 l 1
 482 516 467 520 449 520 c 0
 395 520 363 476 346 406 c 2
 333 357 l 1
 440 357 l 1
 429 270 l 1
 312 270 l 1
 267 88 l 2
 237 -34 186 -125 65 -125 c 0
 27 -125 -2 -116 -17 -106 c 1
 10 -22 l 1
 24 -29 41 -33 60 -33 c 0
 101 -33 133 -3 163 117 c 2
 199 270 l 1
 117 270 l 1
 128 357 l 1
 221 357 l 1
 230 395 l 2
 248 474 301 613 454 613 c 0
 483 613 511 605 527 595 c 1
EndSplineSet
Substitution2: "'lnum' Lining Figures lookup 16 subtable" florin
Substitution2: "'aalt' Access All Alternates lookup 0 subtable" florin
EndChar

StartChar: sterling.taboldstyle
Encoding: 63057 63057 290
Width: 534
Flags: MW
HStem: 0 96<193 441> 230 70<78 150 78 153 67 150 261 391> 457 96<340.5 391>
VStem: 150 111.5 153 108<189 230>
LayerCount: 2
Fore
SplineSet
486 529 m 1xe8
 453 440 l 1
 437 449 407 457 375 457 c 0
 306 457 265 406 262 325 c 0
 261 317 260 308 261 300 c 1
 403 300 l 1
 391 230 l 1
 261 230 l 1
 258 175 238 129 193 98 c 1
 193 96 l 1
 456 96 l 1
 441 0 l 1
 22 0 l 1
 33 66 l 1
 107 95 153 148 153 230 c 1
 67 230 l 1
 78 300 l 1xe8
 150 300 l 1
 150 308 151 317 152 326 c 0xf0
 161 451 243 553 384 553 c 0
 429 553 467 541 486 529 c 1xe8
EndSplineSet
Substitution2: "'lnum' Lining Figures lookup 16 subtable" sterling
Substitution2: "'aalt' Access All Alternates lookup 0 subtable" sterling
EndChar

StartChar: yen.taboldstyle
Encoding: 63058 63058 291
Width: 534
Flags: MW
HStem: 109 61<50 182 38 194 304 438> 226 61<72 189 72 204 60 189 356 460>
VStem: 38 512<109 528>
LayerCount: 2
Fore
SplineSet
272 0 m 1
 161 0 l 1
 182 109 l 1
 38 109 l 1
 50 170 l 1
 194 170 l 1
 204 226 l 1
 60 226 l 1
 72 287 l 1
 189 287 l 1
 92 528 l 1
 213 528 l 1
 253 390 l 2
 262 355 269 329 275 299 c 1
 277 299 l 1
 294 328 314 358 335 391 c 2
 429 528 l 1
 550 528 l 1
 356 287 l 1
 471 287 l 1
 460 226 l 1
 314 226 l 1
 304 170 l 1
 449 170 l 1
 438 109 l 1
 292 109 l 1
 272 0 l 1
EndSplineSet
Substitution2: "'lnum' Lining Figures lookup 16 subtable" yen
Substitution2: "'aalt' Access All Alternates lookup 0 subtable" yen
EndChar

StartChar: numbersign.taboldstyle
Encoding: 63056 63056 292
Width: 534
Flags: MW
HStem: 167 76<45 115 32 139 45 189 214 278 377 449> 372 75<107 180 94 203 277 343 107 254 441 510>
VStem: 32 490<167 447>
LayerCount: 2
Fore
SplineSet
214 243 m 1
 302 243 l 1
 343 372 l 1
 254 372 l 1
 214 243 l 1
138 0 m 1
 62 0 l 1
 115 167 l 1
 32 167 l 1
 45 243 l 1
 139 243 l 1
 180 372 l 1
 94 372 l 1
 107 447 l 1
 203 447 l 1
 255 613 l 1
 329 613 l 1
 277 447 l 1
 366 447 l 1
 419 613 l 1
 493 613 l 1
 441 447 l 1
 522 447 l 1
 510 372 l 1
 417 372 l 1
 377 243 l 1
 462 243 l 1
 449 167 l 1
 352 167 l 1
 301 0 l 1
 226 0 l 1
 278 167 l 1
 189 167 l 1
 138 0 l 1
EndSplineSet
Substitution2: "'lnum' Lining Figures lookup 16 subtable" numbersign
Substitution2: "'aalt' Access All Alternates lookup 0 subtable" numbersign
EndChar

StartChar: zero.superior
Encoding: 8304 8304 293
Width: 346
Flags: MW
HStem: 401 69<202.5 250.5 202.5 270> 732 69<241 287.5>
VStem: 85 92<526 576.5 526 611.5> 313 92<627 676.5>
LayerCount: 2
Fore
SplineSet
211 401 m 0
 128 401 85 461 85 545 c 0
 85 678 162 801 281 801 c 0
 365 801 405 739 405 668 c 0
 405 526 329 401 211 401 c 0
220 470 m 0
 281 470 313 594 313 660 c 0
 313 693 305 732 270 732 c 0
 212 732 177 609 177 544 c 0
 177 508 185 470 220 470 c 0
EndSplineSet
EndChar

StartChar: one.superior
Encoding: 65539 -1 294
Width: 253
Flags: MW
HStem: 406 390<221 230 135 304> 716 80<192 304 192 304>
VStem: 109 195<750 796>
LayerCount: 2
Fore
SplineSet
230 406 m 1xa0
 135 406 l 1
 194 716 l 1
 192 716 l 1
 117 684 l 1
 109 750 l 1
 221 796 l 1
 304 796 l 1x60
 230 406 l 1xa0
EndSplineSet
EndChar

StartChar: two.superior
Encoding: 65540 -1 295
Width: 322
Flags: MW
HStem: 406 72<193 331> 727 74<227 242>
VStem: 277 101<657.5 693>
LayerCount: 2
Fore
SplineSet
331 406 m 1
 45 406 l 1
 55 455 l 1
 129 513 l 2
 217 580 277 630 277 681 c 0
 277 705 262 727 222 727 c 0
 190 727 157 712 135 698 c 1
 118 758 l 1
 153 783 201 801 253 801 c 0
 325 801 378 762 378 697 c 0
 378 618 301 560 224 504 c 2
 193 480 l 1
 193 478 l 1
 345 478 l 1
 331 406 l 1
EndSplineSet
EndChar

StartChar: three.superior
Encoding: 65541 -1 296
Width: 315
Flags: MW
HStem: 401 67<154 197 154 226> 584 57<160 167 148 178> 734 67<223.5 239.5>
VStem: 254 99<528 547.5> 272 99<688 707.5>
LayerCount: 2
Fore
SplineSet
133 706 m 1xf0
 123 766 l 1
 152 786 198 801 249 801 c 0
 321 801 371 763 371 712 c 0xe8
 371 664 330 631 277 616 c 1
 277 614 l 1
 317 606 353 574 353 528 c 0
 352 448 275 401 177 401 c 0
 126 401 77 414 51 432 c 1
 81 495 l 1
 100 482 136 468 172 468 c 0
 222 468 254 495 254 529 c 0
 254 566 215 584 167 584 c 2xf0
 148 584 l 1
 160 641 l 1
 178 641 l 2
 221 641 272 661 272 697 c 0
 272 718 258 734 221 734 c 0xe8
 189 734 153 720 133 706 c 1xf0
EndSplineSet
EndChar

StartChar: four.superior
Encoding: 8308 8308 297
Width: 344
Flags: MW
HStem: 503 63<164 246 346 386> 727 72<291 293 291 291>
VStem: 62 337<503 566>
LayerCount: 2
Fore
SplineSet
315 406 m 1
 228 406 l 1
 246 503 l 1
 62 503 l 1
 73 556 l 1
 282 799 l 1
 390 799 l 1
 346 566 l 1
 399 566 l 1
 386 503 l 1
 334 503 l 1
 315 406 l 1
258 566 m 1
 276 657 l 2
 280 681 287 706 293 727 c 1
 291 727 l 1
 274 703 259 680 244 661 c 2
 164 568 l 1
 164 566 l 1
 258 566 l 1
EndSplineSet
EndChar

StartChar: five.superior
Encoding: 8309 8309 298
Width: 318
Flags: MW
HStem: 401 70<144.5 189 144.5 214> 599 62<148.5 237> 723 73<219 367 219 219>
VStem: 256 99<520.5 558.5>
LayerCount: 2
Fore
SplineSet
382 796 m 1
 367 723 l 1
 219 723 l 1
 200 660 l 1
 210 661 217 661 225 661 c 0
 249 661 273 657 294 645 c 0
 336 628 355 593 355 555 c 0
 355 455 267 401 161 401 c 0
 112 401 75 412 56 422 c 1
 79 489 l 1
 94 481 126 471 163 471 c 0
 215 471 256 499 256 542 c 0
 256 575 231 599 159 599 c 0
 138 599 123 598 107 596 c 1
 164 796 l 1
 382 796 l 1
EndSplineSet
EndChar

StartChar: six.superior
Encoding: 8310 8310 299
Width: 341
Flags: MW
HStem: 401 65<211.5 248.5 211.5 271.5> 607 61<233.5 317.5> 730 69<332 388>
VStem: 84 90<509 531 509 583.5> 298 92<528 569>
LayerCount: 2
Fore
SplineSet
388 799 m 1
 375 730 l 1
 364 731 348 732 332 730 c 0
 261 720 215 681 196 633 c 1
 197 632 l 1
 218 654 253 668 282 668 c 0
 353 668 390 619 390 557 c 0
 390 472 318 401 225 401 c 0
 138 401 84 460 84 538 c 0
 84 629 135 707 194 747 c 0
 233 774 281 792 335 797 c 0
 353 799 373 800 388 799 c 1
229 466 m 0
 268 466 298 504 298 552 c 0
 298 586 279 607 245 607 c 0
 222 607 200 593 186 572 c 0
 182 567 180 562 178 556 c 0
 175 547 174 536 174 526 c 0
 174 492 194 466 229 466 c 0
EndSplineSet
EndChar

StartChar: seven.superior
Encoding: 8311 8311 300
Width: 301
Flags: MW
HStem: 724 72<120 282 106 395>
VStem: 62 333
LayerCount: 2
Fore
SplineSet
120 796 m 1
 395 796 l 1
 384 740 l 1
 337 669 217 491 161 406 c 1
 62 406 l 1
 126 498 233 651 282 722 c 1
 282 724 l 1
 106 724 l 1
 120 796 l 1
EndSplineSet
EndChar

StartChar: eight.superior
Encoding: 8312 8312 301
Width: 345
Flags: MW
HStem: 401 62<211 245 211 258> 740 61<251 283.5>
VStem: 80 93<500 528> 125 89<680.5 704.5 680.5 720> 291 94<503 535> 315 85<685.5 707>
LayerCount: 2
Fore
SplineSet
278 801 m 0xd4
 342 801 400 771 400 707 c 0xe4
 400 664 364 633 322 615 c 1
 322 613 l 1
 364 593 385 561 385 527 c 0
 385 440 297 401 219 401 c 0
 134 401 80 443 80 501 c 0xe8
 80 555 124 593 173 610 c 1
 173 612 l 1
 143 630 125 654 125 684 c 0
 125 756 197 801 278 801 c 0xd4
228 463 m 0xe8
 262 463 291 486 291 520 c 0
 291 550 271 569 235 581 c 1
 204 572 173 552 173 513 c 0
 173 487 194 463 228 463 c 0xe8
266 740 m 0xd4
 236 740 214 717 214 692 c 0
 214 669 228 652 264 639 c 1
 292 647 315 667 315 696 c 0
 315 718 301 740 266 740 c 0xd4
EndSplineSet
EndChar

StartChar: nine.superior
Encoding: 8313 8313 302
Width: 338
Flags: MW
HStem: 403 70<89 148 99 141> 540 60<174 250.5> 735 66<236 272.5>
VStem: 95 92<637.5 675.5 637.5 690> 308 89<671 693>
LayerCount: 2
Fore
SplineSet
89 403 m 1
 99 473 l 1
 110 472 130 471 148 473 c 0
 174 475 199 483 223 498 c 0
 253 514 277 539 290 569 c 1
 288 570 l 1
 267 550 234 540 206 540 c 0
 142 540 95 582 95 648 c 0
 95 732 172 801 263 801 c 0
 350 801 397 743 397 665 c 0
 397 572 346 497 293 456 c 0
 251 423 193 406 141 403 c 0
 124 401 104 402 89 403 c 1
255 735 m 0
 217 735 187 698 187 653 c 0
 187 622 206 600 238 600 c 0
 263 600 283 612 296 629 c 0
 300 633 303 639 305 648 c 0
 306 655 308 666 308 676 c 0
 308 710 290 735 255 735 c 0
EndSplineSet
EndChar

StartChar: period.superior
Encoding: 63208 63208 303
Width: 157
Flags: MW
HStem: 401 109<114.5 139.5>
VStem: 74 107<442 466.5>
LayerCount: 2
Fore
SplineSet
122 401 m 0
 93 401 74 422 74 450 c 0
 74 483 97 510 132 510 c 0
 161 510 181 490 181 459 c 0
 181 425 157 401 122 401 c 0
EndSplineSet
EndChar

StartChar: comma.superior
Encoding: 63202 63202 304
Width: 157
Flags: MW
HStem: 337.5 170.5
VStem: 27 161
LayerCount: 2
Fore
SplineSet
89 340 m 1
 27 335 l 1
 53 388 79 450 94 505 c 1
 188 511 l 1
 160 449 124 386 89 340 c 1
EndSplineSet
EndChar

StartChar: dollar.superior
Encoding: 63204 63204 305
Width: 316
Flags: MW
HStem: 354 123<171.5 209 152 212> 728 117<246 281.5>
VStem: 110 94<679.5 699 679.5 706.5> 258 95<506.5 530>
LayerCount: 2
Fore
SplineSet
209 354 m 1
 152 354 l 1
 163 410 l 1
 124 412 82 430 63 445 c 1
 91 510 l 1
 115 492 149 477 194 477 c 0
 230 477 258 493 258 520 c 0
 258 540 244 556 204 572 c 0
 155 594 110 623 110 675 c 0
 110 738 162 784 236 791 c 1
 246 845 l 1
 304 845 l 1
 293 791 l 1
 330 790 360 778 376 767 c 1
 348 704 l 1
 333 713 303 728 260 728 c 0
 224 728 204 709 204 689 c 0
 204 670 222 657 269 636 c 0
 318 614 353 582 353 532 c 0
 353 458 291 419 221 410 c 1
 209 354 l 1
EndSplineSet
EndChar

StartChar: cent.superior
Encoding: 63200 63200 306
Width: 298
Flags: MW
HStem: 456 67<251 251> 691 120<262 297>
VStem: 95 92<569 620.5 569 627>
LayerCount: 2
Fore
SplineSet
241 399 m 1
 183 399 l 1
 194 458 l 1
 161 464 136 477 120 499 c 0
 103 520 95 548 95 580 c 0
 95 674 166 741 252 755 c 1
 262 811 l 1
 319 811 l 1
 309 757 l 1
 326 757 351 752 365 744 c 1
 338 680 l 1
 326 686 310 691 284 691 c 0
 231 691 187 650 187 591 c 0
 187 547 217 523 257 523 c 0
 281 523 299 529 315 535 c 1
 321 472 l 1
 301 462 276 457 251 456 c 1
 241 399 l 1
EndSplineSet
EndChar

StartChar: hyphen.superior
Encoding: 63206 63206 307
Width: 200
Flags: MW
HStem: 561 60<93 244 82 255>
VStem: 82 173<561 621>
LayerCount: 2
Fore
SplineSet
93 621 m 1
 255 621 l 1
 244 561 l 1
 82 561 l 1
 93 621 l 1
EndSplineSet
EndChar

StartChar: parenleft.superior
Encoding: 8317 8317 308
Width: 194
Flags: MW
HStem: 349 484<139 289 139 289>
VStem: 104 69<484.5 576.5 484.5 578>
LayerCount: 2
Fore
SplineSet
226 833 m 1
 289 833 l 1
 227 754 173 640 173 513 c 0
 173 456 180 405 200 349 c 1
 139 349 l 1
 118 395 104 452 104 509 c 0
 104 647 158 759 226 833 c 1
EndSplineSet
EndChar

